<svg width="427" height="496" viewBox="0 0 427 496" fill="none" xmlns="http://www.w3.org/2000/svg">
<path d="M45 279C45 262.431 58.4315 249 75 249H145V339C145 344.523 140.523 349 135 349H45V279Z" fill="#DF6951"/>
<g filter="url(#filter0_dddddd_1_326)">
<rect x="80" y="2" width="267" height="314" rx="36" fill="white"/>
</g>
<path d="M137.297 202.352V205.616H141.137V207.104H137.297V210.512H141.617V212H135.473V200.864H141.617V202.352H137.297ZM148.312 203.04C149.005 203.04 149.624 203.184 150.168 203.472C150.723 203.76 151.155 204.187 151.464 204.752C151.773 205.317 151.928 206 151.928 206.8V212H150.12V207.072C150.12 206.283 149.923 205.68 149.528 205.264C149.133 204.837 148.595 204.624 147.912 204.624C147.229 204.624 146.685 204.837 146.28 205.264C145.885 205.68 145.688 206.283 145.688 207.072V212H143.864V203.184H145.688V204.192C145.987 203.829 146.365 203.547 146.824 203.344C147.293 203.141 147.789 203.04 148.312 203.04ZM157.807 203.04C158.489 203.04 159.092 203.179 159.615 203.456C160.148 203.723 160.564 204.059 160.863 204.464V203.184H162.703V212.144C162.703 212.955 162.532 213.675 162.191 214.304C161.849 214.944 161.353 215.445 160.703 215.808C160.063 216.171 159.295 216.352 158.399 216.352C157.204 216.352 156.212 216.069 155.423 215.504C154.633 214.949 154.185 214.192 154.079 213.232H155.887C156.025 213.691 156.319 214.059 156.767 214.336C157.225 214.624 157.769 214.768 158.399 214.768C159.135 214.768 159.727 214.544 160.175 214.096C160.633 213.648 160.863 212.997 160.863 212.144V210.672C160.553 211.088 160.132 211.44 159.599 211.728C159.076 212.005 158.479 212.144 157.807 212.144C157.039 212.144 156.335 211.952 155.695 211.568C155.065 211.173 154.564 210.629 154.191 209.936C153.828 209.232 153.647 208.437 153.647 207.552C153.647 206.667 153.828 205.883 154.191 205.2C154.564 204.517 155.065 203.989 155.695 203.616C156.335 203.232 157.039 203.04 157.807 203.04ZM160.863 207.584C160.863 206.976 160.735 206.448 160.479 206C160.233 205.552 159.908 205.211 159.503 204.976C159.097 204.741 158.66 204.624 158.191 204.624C157.721 204.624 157.284 204.741 156.879 204.976C156.473 205.2 156.143 205.536 155.887 205.984C155.641 206.421 155.519 206.944 155.519 207.552C155.519 208.16 155.641 208.693 155.887 209.152C156.143 209.611 156.473 209.963 156.879 210.208C157.295 210.443 157.732 210.56 158.191 210.56C158.66 210.56 159.097 210.443 159.503 210.208C159.908 209.973 160.233 209.632 160.479 209.184C160.735 208.725 160.863 208.192 160.863 207.584ZM166.922 204.464C167.189 204.016 167.541 203.669 167.978 203.424C168.426 203.168 168.954 203.04 169.562 203.04V204.928H169.098C168.384 204.928 167.84 205.109 167.466 205.472C167.104 205.835 166.922 206.464 166.922 207.36V212H165.098V203.184H166.922V204.464ZM175.063 212.144C174.231 212.144 173.479 211.957 172.807 211.584C172.135 211.2 171.607 210.667 171.223 209.984C170.839 209.291 170.647 208.491 170.647 207.584C170.647 206.688 170.844 205.893 171.239 205.2C171.634 204.507 172.172 203.973 172.855 203.6C173.538 203.227 174.3 203.04 175.143 203.04C175.986 203.04 176.748 203.227 177.431 203.6C178.114 203.973 178.652 204.507 179.047 205.2C179.442 205.893 179.639 206.688 179.639 207.584C179.639 208.48 179.436 209.275 179.031 209.968C178.626 210.661 178.071 211.2 177.367 211.584C176.674 211.957 175.906 212.144 175.063 212.144ZM175.063 210.56C175.532 210.56 175.97 210.448 176.375 210.224C176.791 210 177.127 209.664 177.383 209.216C177.639 208.768 177.767 208.224 177.767 207.584C177.767 206.944 177.644 206.405 177.399 205.968C177.154 205.52 176.828 205.184 176.423 204.96C176.018 204.736 175.58 204.624 175.111 204.624C174.642 204.624 174.204 204.736 173.799 204.96C173.404 205.184 173.09 205.52 172.855 205.968C172.62 206.405 172.503 206.944 172.503 207.584C172.503 208.533 172.743 209.269 173.223 209.792C173.714 210.304 174.327 210.56 175.063 210.56ZM184.642 212.144C183.949 212.144 183.325 212.021 182.77 211.776C182.226 211.52 181.794 211.179 181.474 210.752C181.154 210.315 180.984 209.829 180.962 209.296H182.85C182.882 209.669 183.058 209.984 183.378 210.24C183.709 210.485 184.12 210.608 184.61 210.608C185.122 210.608 185.517 210.512 185.794 210.32C186.082 210.117 186.226 209.861 186.226 209.552C186.226 209.221 186.066 208.976 185.746 208.816C185.437 208.656 184.941 208.48 184.258 208.288C183.597 208.107 183.058 207.931 182.642 207.76C182.226 207.589 181.864 207.328 181.554 206.976C181.256 206.624 181.106 206.16 181.106 205.584C181.106 205.115 181.245 204.688 181.522 204.304C181.8 203.909 182.194 203.6 182.706 203.376C183.229 203.152 183.826 203.04 184.498 203.04C185.501 203.04 186.306 203.296 186.914 203.808C187.533 204.309 187.864 204.997 187.906 205.872H186.082C186.05 205.477 185.89 205.163 185.602 204.928C185.314 204.693 184.925 204.576 184.434 204.576C183.954 204.576 183.586 204.667 183.33 204.848C183.074 205.029 182.946 205.269 182.946 205.568C182.946 205.803 183.032 206 183.202 206.16C183.373 206.32 183.581 206.448 183.826 206.544C184.072 206.629 184.434 206.741 184.914 206.88C185.554 207.051 186.077 207.227 186.482 207.408C186.898 207.579 187.256 207.835 187.554 208.176C187.853 208.517 188.008 208.971 188.018 209.536C188.018 210.037 187.88 210.485 187.602 210.88C187.325 211.275 186.93 211.584 186.418 211.808C185.917 212.032 185.325 212.144 184.642 212.144ZM193.189 212.144C192.496 212.144 191.872 212.021 191.317 211.776C190.773 211.52 190.341 211.179 190.021 210.752C189.701 210.315 189.53 209.829 189.509 209.296H191.397C191.429 209.669 191.605 209.984 191.925 210.24C192.256 210.485 192.666 210.608 193.157 210.608C193.669 210.608 194.064 210.512 194.341 210.32C194.629 210.117 194.773 209.861 194.773 209.552C194.773 209.221 194.613 208.976 194.293 208.816C193.984 208.656 193.488 208.48 192.805 208.288C192.144 208.107 191.605 207.931 191.189 207.76C190.773 207.589 190.41 207.328 190.101 206.976C189.802 206.624 189.653 206.16 189.653 205.584C189.653 205.115 189.792 204.688 190.069 204.304C190.346 203.909 190.741 203.6 191.253 203.376C191.776 203.152 192.373 203.04 193.045 203.04C194.048 203.04 194.853 203.296 195.461 203.808C196.08 204.309 196.41 204.997 196.453 205.872H194.629C194.597 205.477 194.437 205.163 194.149 204.928C193.861 204.693 193.472 204.576 192.981 204.576C192.501 204.576 192.133 204.667 191.877 204.848C191.621 205.029 191.493 205.269 191.493 205.568C191.493 205.803 191.578 206 191.749 206.16C191.92 206.32 192.128 206.448 192.373 206.544C192.618 206.629 192.981 206.741 193.461 206.88C194.101 207.051 194.624 207.227 195.029 207.408C195.445 207.579 195.802 207.835 196.101 208.176C196.4 208.517 196.554 208.971 196.565 209.536C196.565 210.037 196.426 210.485 196.149 210.88C195.872 211.275 195.477 211.584 194.965 211.808C194.464 212.032 193.872 212.144 193.189 212.144ZM206.616 207.376C206.616 207.707 206.595 208.005 206.552 208.272H199.816C199.869 208.976 200.131 209.541 200.6 209.968C201.069 210.395 201.645 210.608 202.328 210.608C203.309 210.608 204.003 210.197 204.408 209.376H206.376C206.109 210.187 205.624 210.853 204.92 211.376C204.227 211.888 203.363 212.144 202.328 212.144C201.485 212.144 200.728 211.957 200.056 211.584C199.395 211.2 198.872 210.667 198.488 209.984C198.115 209.291 197.928 208.491 197.928 207.584C197.928 206.677 198.109 205.883 198.472 205.2C198.845 204.507 199.363 203.973 200.024 203.6C200.696 203.227 201.464 203.04 202.328 203.04C203.16 203.04 203.901 203.221 204.552 203.584C205.203 203.947 205.709 204.459 206.072 205.12C206.435 205.771 206.616 206.523 206.616 207.376ZM204.712 206.8C204.701 206.128 204.461 205.589 203.992 205.184C203.523 204.779 202.941 204.576 202.248 204.576C201.619 204.576 201.08 204.779 200.632 205.184C200.184 205.579 199.917 206.117 199.832 206.8H204.712ZM207.803 207.552C207.803 206.667 207.984 205.883 208.347 205.2C208.72 204.517 209.222 203.989 209.851 203.616C210.491 203.232 211.2 203.04 211.979 203.04C212.555 203.04 213.12 203.168 213.675 203.424C214.24 203.669 214.688 204 215.019 204.416V200.16H216.859V212H215.019V210.672C214.72 211.099 214.304 211.451 213.771 211.728C213.248 212.005 212.646 212.144 211.963 212.144C211.195 212.144 210.491 211.952 209.851 211.568C209.222 211.173 208.72 210.629 208.347 209.936C207.984 209.232 207.803 208.437 207.803 207.552ZM215.019 207.584C215.019 206.976 214.891 206.448 214.635 206C214.39 205.552 214.064 205.211 213.659 204.976C213.254 204.741 212.816 204.624 212.347 204.624C211.878 204.624 211.44 204.741 211.035 204.976C210.63 205.2 210.299 205.536 210.043 205.984C209.798 206.421 209.675 206.944 209.675 207.552C209.675 208.16 209.798 208.693 210.043 209.152C210.299 209.611 210.63 209.963 211.035 210.208C211.451 210.443 211.888 210.56 212.347 210.56C212.816 210.56 213.254 210.443 213.659 210.208C214.064 209.973 214.39 209.632 214.635 209.184C214.891 208.725 215.019 208.192 215.019 207.584ZM225.235 200.16V212H223.411V200.16H225.235ZM228.558 202.016C228.227 202.016 227.95 201.904 227.726 201.68C227.502 201.456 227.39 201.179 227.39 200.848C227.39 200.517 227.502 200.24 227.726 200.016C227.95 199.792 228.227 199.68 228.558 199.68C228.878 199.68 229.15 199.792 229.374 200.016C229.598 200.24 229.71 200.517 229.71 200.848C229.71 201.179 229.598 201.456 229.374 201.68C229.15 201.904 228.878 202.016 228.558 202.016ZM229.454 203.184V212H227.63V203.184H229.454ZM235.048 212.144C234.355 212.144 233.731 212.021 233.176 211.776C232.632 211.52 232.2 211.179 231.88 210.752C231.56 210.315 231.39 209.829 231.368 209.296H233.256C233.288 209.669 233.464 209.984 233.784 210.24C234.115 210.485 234.526 210.608 235.016 210.608C235.528 210.608 235.923 210.512 236.2 210.32C236.488 210.117 236.632 209.861 236.632 209.552C236.632 209.221 236.472 208.976 236.152 208.816C235.843 208.656 235.347 208.48 234.664 208.288C234.003 208.107 233.464 207.931 233.048 207.76C232.632 207.589 232.27 207.328 231.96 206.976C231.662 206.624 231.512 206.16 231.512 205.584C231.512 205.115 231.651 204.688 231.928 204.304C232.206 203.909 232.6 203.6 233.112 203.376C233.635 203.152 234.232 203.04 234.904 203.04C235.907 203.04 236.712 203.296 237.32 203.808C237.939 204.309 238.27 204.997 238.312 205.872H236.488C236.456 205.477 236.296 205.163 236.008 204.928C235.72 204.693 235.331 204.576 234.84 204.576C234.36 204.576 233.992 204.667 233.736 204.848C233.48 205.029 233.352 205.269 233.352 205.568C233.352 205.803 233.438 206 233.608 206.16C233.779 206.32 233.987 206.448 234.232 206.544C234.478 206.629 234.84 206.741 235.32 206.88C235.96 207.051 236.483 207.227 236.888 207.408C237.304 207.579 237.662 207.835 237.96 208.176C238.259 208.517 238.414 208.971 238.424 209.536C238.424 210.037 238.286 210.485 238.008 210.88C237.731 211.275 237.336 211.584 236.824 211.808C236.323 212.032 235.731 212.144 235.048 212.144ZM242.523 204.672V209.552C242.523 209.883 242.598 210.123 242.747 210.272C242.907 210.411 243.174 210.48 243.547 210.48H244.667V212H243.227C242.406 212 241.777 211.808 241.339 211.424C240.902 211.04 240.683 210.416 240.683 209.552V204.672H239.643V203.184H240.683V200.992H242.523V203.184H244.667V204.672H242.523ZM254.428 207.376C254.428 207.707 254.407 208.005 254.364 208.272H247.628C247.682 208.976 247.943 209.541 248.412 209.968C248.882 210.395 249.458 210.608 250.14 210.608C251.122 210.608 251.815 210.197 252.22 209.376H254.188C253.922 210.187 253.436 210.853 252.732 211.376C252.039 211.888 251.175 212.144 250.14 212.144C249.298 212.144 248.54 211.957 247.868 211.584C247.207 211.2 246.684 210.667 246.3 209.984C245.927 209.291 245.74 208.491 245.74 207.584C245.74 206.677 245.922 205.883 246.284 205.2C246.658 204.507 247.175 203.973 247.836 203.6C248.508 203.227 249.276 203.04 250.14 203.04C250.972 203.04 251.714 203.221 252.364 203.584C253.015 203.947 253.522 204.459 253.884 205.12C254.247 205.771 254.428 206.523 254.428 207.376ZM252.524 206.8C252.514 206.128 252.274 205.589 251.804 205.184C251.335 204.779 250.754 204.576 250.06 204.576C249.431 204.576 248.892 204.779 248.444 205.184C247.996 205.579 247.73 206.117 247.644 206.8H252.524ZM260.671 203.04C261.365 203.04 261.983 203.184 262.527 203.472C263.082 203.76 263.514 204.187 263.823 204.752C264.133 205.317 264.287 206 264.287 206.8V212H262.479V207.072C262.479 206.283 262.282 205.68 261.887 205.264C261.493 204.837 260.954 204.624 260.271 204.624C259.589 204.624 259.045 204.837 258.639 205.264C258.245 205.68 258.047 206.283 258.047 207.072V212H256.223V203.184H258.047V204.192C258.346 203.829 258.725 203.547 259.183 203.344C259.653 203.141 260.149 203.04 260.671 203.04ZM267.542 202.016C267.211 202.016 266.934 201.904 266.71 201.68C266.486 201.456 266.374 201.179 266.374 200.848C266.374 200.517 266.486 200.24 266.71 200.016C266.934 199.792 267.211 199.68 267.542 199.68C267.862 199.68 268.134 199.792 268.358 200.016C268.582 200.24 268.694 200.517 268.694 200.848C268.694 201.179 268.582 201.456 268.358 201.68C268.134 201.904 267.862 202.016 267.542 202.016ZM268.438 203.184V212H266.614V203.184H268.438ZM275.281 203.04C275.974 203.04 276.593 203.184 277.137 203.472C277.691 203.76 278.123 204.187 278.433 204.752C278.742 205.317 278.897 206 278.897 206.8V212H277.089V207.072C277.089 206.283 276.891 205.68 276.497 205.264C276.102 204.837 275.563 204.624 274.881 204.624C274.198 204.624 273.654 204.837 273.249 205.264C272.854 205.68 272.657 206.283 272.657 207.072V212H270.833V203.184H272.657V204.192C272.955 203.829 273.334 203.547 273.793 203.344C274.262 203.141 274.758 203.04 275.281 203.04ZM284.775 203.04C285.458 203.04 286.061 203.179 286.583 203.456C287.117 203.723 287.533 204.059 287.831 204.464V203.184H289.671V212.144C289.671 212.955 289.501 213.675 289.159 214.304C288.818 214.944 288.322 215.445 287.671 215.808C287.031 216.171 286.263 216.352 285.367 216.352C284.173 216.352 283.181 216.069 282.391 215.504C281.602 214.949 281.154 214.192 281.047 213.232H282.855C282.994 213.691 283.287 214.059 283.735 214.336C284.194 214.624 284.738 214.768 285.367 214.768C286.103 214.768 286.695 214.544 287.143 214.096C287.602 213.648 287.831 212.997 287.831 212.144V210.672C287.522 211.088 287.101 211.44 286.567 211.728C286.045 212.005 285.447 212.144 284.775 212.144C284.007 212.144 283.303 211.952 282.663 211.568C282.034 211.173 281.533 210.629 281.159 209.936C280.797 209.232 280.615 208.437 280.615 207.552C280.615 206.667 280.797 205.883 281.159 205.2C281.533 204.517 282.034 203.989 282.663 203.616C283.303 203.232 284.007 203.04 284.775 203.04ZM287.831 207.584C287.831 206.976 287.703 206.448 287.447 206C287.202 205.552 286.877 205.211 286.471 204.976C286.066 204.741 285.629 204.624 285.159 204.624C284.69 204.624 284.253 204.741 283.847 204.976C283.442 205.2 283.111 205.536 282.855 205.984C282.61 206.421 282.487 206.944 282.487 207.552C282.487 208.16 282.61 208.693 282.855 209.152C283.111 209.611 283.442 209.963 283.847 210.208C284.263 210.443 284.701 210.56 285.159 210.56C285.629 210.56 286.066 210.443 286.471 210.208C286.877 209.973 287.202 209.632 287.447 209.184C287.703 208.725 287.831 208.192 287.831 207.584ZM292.803 212.112C292.473 212.112 292.195 212 291.971 211.776C291.747 211.552 291.635 211.275 291.635 210.944C291.635 210.613 291.747 210.336 291.971 210.112C292.195 209.888 292.473 209.776 292.803 209.776C293.123 209.776 293.395 209.888 293.619 210.112C293.843 210.336 293.955 210.613 293.955 210.944C293.955 211.275 293.843 211.552 293.619 211.776C293.395 212 293.123 212.112 292.803 212.112ZM149.609 230.192C149.609 230.757 149.475 231.291 149.209 231.792C148.942 232.293 148.515 232.704 147.929 233.024C147.342 233.333 146.59 233.488 145.673 233.488H143.657V238H141.833V226.88H145.673C146.526 226.88 147.246 227.029 147.833 227.328C148.43 227.616 148.873 228.011 149.161 228.512C149.459 229.013 149.609 229.573 149.609 230.192ZM145.673 232C146.366 232 146.883 231.845 147.225 231.536C147.566 231.216 147.737 230.768 147.737 230.192C147.737 228.976 147.049 228.368 145.673 228.368H143.657V232H145.673ZM150.74 233.552C150.74 232.667 150.922 231.883 151.284 231.2C151.658 230.517 152.159 229.989 152.788 229.616C153.428 229.232 154.132 229.04 154.9 229.04C155.594 229.04 156.196 229.179 156.708 229.456C157.231 229.723 157.647 230.059 157.956 230.464V229.184H159.796V238H157.956V236.688C157.647 237.104 157.226 237.451 156.692 237.728C156.159 238.005 155.551 238.144 154.868 238.144C154.111 238.144 153.418 237.952 152.788 237.568C152.159 237.173 151.658 236.629 151.284 235.936C150.922 235.232 150.74 234.437 150.74 233.552ZM157.956 233.584C157.956 232.976 157.828 232.448 157.572 232C157.327 231.552 157.002 231.211 156.596 230.976C156.191 230.741 155.754 230.624 155.284 230.624C154.815 230.624 154.378 230.741 153.972 230.976C153.567 231.2 153.236 231.536 152.98 231.984C152.735 232.421 152.612 232.944 152.612 233.552C152.612 234.16 152.735 234.693 152.98 235.152C153.236 235.611 153.567 235.963 153.972 236.208C154.388 236.443 154.826 236.56 155.284 236.56C155.754 236.56 156.191 236.443 156.596 236.208C157.002 235.973 157.327 235.632 157.572 235.184C157.828 234.725 157.956 234.192 157.956 233.584ZM164.016 230.464C164.283 230.016 164.635 229.669 165.072 229.424C165.52 229.168 166.048 229.04 166.656 229.04V230.928H166.192C165.478 230.928 164.934 231.109 164.56 231.472C164.198 231.835 164.016 232.464 164.016 233.36V238H162.192V229.184H164.016V230.464ZM171.821 233.6L175.885 238H173.421L170.157 234.208V238H168.333V226.16H170.157V233.04L173.357 229.184H175.885L171.821 233.6ZM184.9 229.04C185.583 229.04 186.186 229.179 186.708 229.456C187.242 229.723 187.658 230.059 187.956 230.464V229.184H189.796V238.144C189.796 238.955 189.626 239.675 189.284 240.304C188.943 240.944 188.447 241.445 187.796 241.808C187.156 242.171 186.388 242.352 185.492 242.352C184.298 242.352 183.306 242.069 182.516 241.504C181.727 240.949 181.279 240.192 181.172 239.232H182.98C183.119 239.691 183.412 240.059 183.86 240.336C184.319 240.624 184.863 240.768 185.492 240.768C186.228 240.768 186.82 240.544 187.268 240.096C187.727 239.648 187.956 238.997 187.956 238.144V236.672C187.647 237.088 187.226 237.44 186.692 237.728C186.17 238.005 185.572 238.144 184.9 238.144C184.132 238.144 183.428 237.952 182.788 237.568C182.159 237.173 181.658 236.629 181.284 235.936C180.922 235.232 180.74 234.437 180.74 233.552C180.74 232.667 180.922 231.883 181.284 231.2C181.658 230.517 182.159 229.989 182.788 229.616C183.428 229.232 184.132 229.04 184.9 229.04ZM187.956 233.584C187.956 232.976 187.828 232.448 187.572 232C187.327 231.552 187.002 231.211 186.596 230.976C186.191 230.741 185.754 230.624 185.284 230.624C184.815 230.624 184.378 230.741 183.972 230.976C183.567 231.2 183.236 231.536 182.98 231.984C182.735 232.421 182.612 232.944 182.612 233.552C182.612 234.16 182.735 234.693 182.98 235.152C183.236 235.611 183.567 235.963 183.972 236.208C184.388 236.443 184.826 236.56 185.284 236.56C185.754 236.56 186.191 236.443 186.596 236.208C187.002 235.973 187.327 235.632 187.572 235.184C187.828 234.725 187.956 234.192 187.956 233.584ZM191.584 233.552C191.584 232.667 191.766 231.883 192.128 231.2C192.502 230.517 193.003 229.989 193.632 229.616C194.272 229.232 194.976 229.04 195.744 229.04C196.438 229.04 197.04 229.179 197.552 229.456C198.075 229.723 198.491 230.059 198.8 230.464V229.184H200.64V238H198.8V236.688C198.491 237.104 198.07 237.451 197.536 237.728C197.003 238.005 196.395 238.144 195.712 238.144C194.955 238.144 194.262 237.952 193.632 237.568C193.003 237.173 192.502 236.629 192.128 235.936C191.766 235.232 191.584 234.437 191.584 233.552ZM198.8 233.584C198.8 232.976 198.672 232.448 198.416 232C198.171 231.552 197.846 231.211 197.44 230.976C197.035 230.741 196.598 230.624 196.128 230.624C195.659 230.624 195.222 230.741 194.816 230.976C194.411 231.2 194.08 231.536 193.824 231.984C193.579 232.421 193.456 232.944 193.456 233.552C193.456 234.16 193.579 234.693 193.824 235.152C194.08 235.611 194.411 235.963 194.816 236.208C195.232 236.443 195.67 236.56 196.128 236.56C196.598 236.56 197.035 236.443 197.44 236.208C197.846 235.973 198.171 235.632 198.416 235.184C198.672 234.725 198.8 234.192 198.8 233.584ZM205.164 230.672V235.552C205.164 235.883 205.239 236.123 205.388 236.272C205.548 236.411 205.815 236.48 206.188 236.48H207.308V238H205.868C205.047 238 204.417 237.808 203.98 237.424C203.543 237.04 203.324 236.416 203.324 235.552V230.672H202.284V229.184H203.324V226.992H205.164V229.184H207.308V230.672H205.164ZM217.069 233.376C217.069 233.707 217.048 234.005 217.005 234.272H210.269C210.322 234.976 210.584 235.541 211.053 235.968C211.522 236.395 212.098 236.608 212.781 236.608C213.762 236.608 214.456 236.197 214.861 235.376H216.829C216.562 236.187 216.077 236.853 215.373 237.376C214.68 237.888 213.816 238.144 212.781 238.144C211.938 238.144 211.181 237.957 210.509 237.584C209.848 237.2 209.325 236.667 208.941 235.984C208.568 235.291 208.381 234.491 208.381 233.584C208.381 232.677 208.562 231.883 208.925 231.2C209.298 230.507 209.816 229.973 210.477 229.6C211.149 229.227 211.917 229.04 212.781 229.04C213.613 229.04 214.354 229.221 215.005 229.584C215.656 229.947 216.162 230.459 216.525 231.12C216.888 231.771 217.069 232.523 217.069 233.376ZM215.165 232.8C215.154 232.128 214.914 231.589 214.445 231.184C213.976 230.779 213.394 230.576 212.701 230.576C212.072 230.576 211.533 230.779 211.085 231.184C210.637 231.579 210.37 232.117 210.285 232.8H215.165ZM226.22 238.144C225.527 238.144 224.903 238.021 224.348 237.776C223.804 237.52 223.372 237.179 223.052 236.752C222.732 236.315 222.562 235.829 222.54 235.296H224.428C224.46 235.669 224.636 235.984 224.956 236.24C225.287 236.485 225.698 236.608 226.188 236.608C226.7 236.608 227.095 236.512 227.372 236.32C227.66 236.117 227.804 235.861 227.804 235.552C227.804 235.221 227.644 234.976 227.324 234.816C227.015 234.656 226.519 234.48 225.836 234.288C225.175 234.107 224.636 233.931 224.22 233.76C223.804 233.589 223.442 233.328 223.132 232.976C222.834 232.624 222.684 232.16 222.684 231.584C222.684 231.115 222.823 230.688 223.1 230.304C223.378 229.909 223.772 229.6 224.284 229.376C224.807 229.152 225.404 229.04 226.076 229.04C227.079 229.04 227.884 229.296 228.492 229.808C229.111 230.309 229.442 230.997 229.484 231.872H227.66C227.628 231.477 227.468 231.163 227.18 230.928C226.892 230.693 226.503 230.576 226.012 230.576C225.532 230.576 225.164 230.667 224.908 230.848C224.652 231.029 224.524 231.269 224.524 231.568C224.524 231.803 224.61 232 224.78 232.16C224.951 232.32 225.159 232.448 225.404 232.544C225.65 232.629 226.012 232.741 226.492 232.88C227.132 233.051 227.655 233.227 228.06 233.408C228.476 233.579 228.834 233.835 229.132 234.176C229.431 234.517 229.586 234.971 229.596 235.536C229.596 236.037 229.458 236.485 229.18 236.88C228.903 237.275 228.508 237.584 227.996 237.808C227.495 238.032 226.903 238.144 226.22 238.144ZM239.647 233.376C239.647 233.707 239.626 234.005 239.583 234.272H232.847C232.901 234.976 233.162 235.541 233.631 235.968C234.101 236.395 234.677 236.608 235.359 236.608C236.341 236.608 237.034 236.197 237.439 235.376H239.407C239.141 236.187 238.655 236.853 237.951 237.376C237.258 237.888 236.394 238.144 235.359 238.144C234.517 238.144 233.759 237.957 233.087 237.584C232.426 237.2 231.903 236.667 231.519 235.984C231.146 235.291 230.959 234.491 230.959 233.584C230.959 232.677 231.141 231.883 231.503 231.2C231.877 230.507 232.394 229.973 233.055 229.6C233.727 229.227 234.495 229.04 235.359 229.04C236.191 229.04 236.933 229.221 237.583 229.584C238.234 229.947 238.741 230.459 239.103 231.12C239.466 231.771 239.647 232.523 239.647 233.376ZM237.743 232.8C237.733 232.128 237.493 231.589 237.023 231.184C236.554 230.779 235.973 230.576 235.279 230.576C234.65 230.576 234.111 230.779 233.663 231.184C233.215 231.579 232.949 232.117 232.863 232.8H237.743ZM243.266 226.16V238H241.442V226.16H243.266ZM247.485 226.16V238H245.661V226.16H247.485ZM256.164 230.672V235.552C256.164 235.883 256.239 236.123 256.388 236.272C256.548 236.411 256.815 236.48 257.188 236.48H258.308V238H256.868C256.047 238 255.417 237.808 254.98 237.424C254.543 237.04 254.324 236.416 254.324 235.552V230.672H253.284V229.184H254.324V226.992H256.164V229.184H258.308V230.672H256.164ZM264.549 229.04C265.221 229.04 265.818 229.184 266.341 229.472C266.874 229.76 267.29 230.187 267.589 230.752C267.898 231.317 268.053 232 268.053 232.8V238H266.245V233.072C266.245 232.283 266.048 231.68 265.653 231.264C265.258 230.837 264.72 230.624 264.037 230.624C263.354 230.624 262.81 230.837 262.405 231.264C262.01 231.68 261.813 232.283 261.813 233.072V238H259.989V226.16H261.813V230.208C262.122 229.835 262.512 229.547 262.981 229.344C263.461 229.141 263.984 229.04 264.549 229.04ZM278.46 233.376C278.46 233.707 278.438 234.005 278.396 234.272H271.66C271.713 234.976 271.974 235.541 272.444 235.968C272.913 236.395 273.489 236.608 274.172 236.608C275.153 236.608 275.846 236.197 276.252 235.376H278.22C277.953 236.187 277.468 236.853 276.764 237.376C276.07 237.888 275.206 238.144 274.172 238.144C273.329 238.144 272.572 237.957 271.9 237.584C271.238 237.2 270.716 236.667 270.332 235.984C269.958 235.291 269.772 234.491 269.772 233.584C269.772 232.677 269.953 231.883 270.316 231.2C270.689 230.507 271.206 229.973 271.868 229.6C272.54 229.227 273.308 229.04 274.172 229.04C275.004 229.04 275.745 229.221 276.396 229.584C277.046 229.947 277.553 230.459 277.916 231.12C278.278 231.771 278.46 232.523 278.46 233.376ZM276.556 232.8C276.545 232.128 276.305 231.589 275.836 231.184C275.366 230.779 274.785 230.576 274.092 230.576C273.462 230.576 272.924 230.779 272.476 231.184C272.028 231.579 271.761 232.117 271.676 232.8H276.556ZM288.191 229.184L282.783 242.144H280.895L282.687 237.856L279.215 229.184H281.247L283.727 235.904L286.303 229.184H288.191ZM157.54 255.184L154.804 264H152.884L151.108 257.488L149.332 264H147.412L144.66 255.184H146.516L148.356 262.272L150.228 255.184H152.132L153.924 262.24L155.748 255.184H157.54ZM166.983 259.376C166.983 259.707 166.962 260.005 166.919 260.272H160.183C160.236 260.976 160.498 261.541 160.967 261.968C161.436 262.395 162.012 262.608 162.695 262.608C163.676 262.608 164.37 262.197 164.775 261.376H166.743C166.476 262.187 165.991 262.853 165.287 263.376C164.594 263.888 163.73 264.144 162.695 264.144C161.852 264.144 161.095 263.957 160.423 263.584C159.762 263.2 159.239 262.667 158.855 261.984C158.482 261.291 158.295 260.491 158.295 259.584C158.295 258.677 158.476 257.883 158.839 257.2C159.212 256.507 159.73 255.973 160.391 255.6C161.063 255.227 161.831 255.04 162.695 255.04C163.527 255.04 164.268 255.221 164.919 255.584C165.57 255.947 166.076 256.459 166.439 257.12C166.802 257.771 166.983 258.523 166.983 259.376ZM165.079 258.8C165.068 258.128 164.828 257.589 164.359 257.184C163.89 256.779 163.308 256.576 162.615 256.576C161.986 256.576 161.447 256.779 160.999 257.184C160.551 257.579 160.284 258.117 160.199 258.8H165.079ZM171.978 264.144C171.285 264.144 170.661 264.021 170.106 263.776C169.562 263.52 169.13 263.179 168.81 262.752C168.49 262.315 168.319 261.829 168.298 261.296H170.186C170.218 261.669 170.394 261.984 170.714 262.24C171.045 262.485 171.455 262.608 171.946 262.608C172.458 262.608 172.853 262.512 173.13 262.32C173.418 262.117 173.562 261.861 173.562 261.552C173.562 261.221 173.402 260.976 173.082 260.816C172.773 260.656 172.277 260.48 171.594 260.288C170.933 260.107 170.394 259.931 169.978 259.76C169.562 259.589 169.199 259.328 168.89 258.976C168.591 258.624 168.442 258.16 168.442 257.584C168.442 257.115 168.581 256.688 168.858 256.304C169.135 255.909 169.53 255.6 170.042 255.376C170.565 255.152 171.162 255.04 171.834 255.04C172.837 255.04 173.642 255.296 174.25 255.808C174.869 256.309 175.199 256.997 175.242 257.872H173.418C173.386 257.477 173.226 257.163 172.938 256.928C172.65 256.693 172.261 256.576 171.77 256.576C171.29 256.576 170.922 256.667 170.666 256.848C170.41 257.029 170.282 257.269 170.282 257.568C170.282 257.803 170.367 258 170.538 258.16C170.709 258.32 170.917 258.448 171.162 258.544C171.407 258.629 171.77 258.741 172.25 258.88C172.89 259.051 173.413 259.227 173.818 259.408C174.234 259.579 174.591 259.835 174.89 260.176C175.189 260.517 175.343 260.971 175.354 261.536C175.354 262.037 175.215 262.485 174.938 262.88C174.661 263.275 174.266 263.584 173.754 263.808C173.253 264.032 172.661 264.144 171.978 264.144ZM179.453 256.672V261.552C179.453 261.883 179.528 262.123 179.677 262.272C179.837 262.411 180.104 262.48 180.477 262.48H181.597V264H180.157C179.336 264 178.706 263.808 178.269 263.424C177.832 263.04 177.613 262.416 177.613 261.552V256.672H176.573V255.184H177.613V252.992H179.453V255.184H181.597V256.672H179.453ZM191.994 255.04C192.666 255.04 193.264 255.184 193.786 255.472C194.32 255.76 194.736 256.187 195.034 256.752C195.344 257.317 195.498 258 195.498 258.8V264H193.69V259.072C193.69 258.283 193.493 257.68 193.098 257.264C192.704 256.837 192.165 256.624 191.482 256.624C190.8 256.624 190.256 256.837 189.85 257.264C189.456 257.68 189.258 258.283 189.258 259.072V264H187.434V252.16H189.258V256.208C189.568 255.835 189.957 255.547 190.426 255.344C190.906 255.141 191.429 255.04 191.994 255.04ZM197.217 259.552C197.217 258.667 197.398 257.883 197.761 257.2C198.134 256.517 198.636 255.989 199.265 255.616C199.905 255.232 200.609 255.04 201.377 255.04C202.07 255.04 202.673 255.179 203.185 255.456C203.708 255.723 204.124 256.059 204.433 256.464V255.184H206.273V264H204.433V262.688C204.124 263.104 203.702 263.451 203.169 263.728C202.636 264.005 202.028 264.144 201.345 264.144C200.588 264.144 199.894 263.952 199.265 263.568C198.636 263.173 198.134 262.629 197.761 261.936C197.398 261.232 197.217 260.437 197.217 259.552ZM204.433 259.584C204.433 258.976 204.305 258.448 204.049 258C203.804 257.552 203.478 257.211 203.073 256.976C202.668 256.741 202.23 256.624 201.761 256.624C201.292 256.624 200.854 256.741 200.449 256.976C200.044 257.2 199.713 257.536 199.457 257.984C199.212 258.421 199.089 258.944 199.089 259.552C199.089 260.16 199.212 260.693 199.457 261.152C199.713 261.611 200.044 261.963 200.449 262.208C200.865 262.443 201.302 262.56 201.761 262.56C202.23 262.56 202.668 262.443 203.073 262.208C203.478 261.973 203.804 261.632 204.049 261.184C204.305 260.725 204.433 260.192 204.433 259.584ZM210.493 256.464C210.759 256.016 211.111 255.669 211.549 255.424C211.997 255.168 212.525 255.04 213.133 255.04V256.928H212.669C211.954 256.928 211.41 257.109 211.037 257.472C210.674 257.835 210.493 258.464 210.493 259.36V264H208.669V255.184H210.493V256.464ZM214.201 259.552C214.201 258.667 214.383 257.883 214.745 257.2C215.119 256.517 215.62 255.989 216.249 255.616C216.889 255.232 217.599 255.04 218.377 255.04C218.953 255.04 219.519 255.168 220.073 255.424C220.639 255.669 221.087 256 221.417 256.416V252.16H223.257V264H221.417V262.672C221.119 263.099 220.703 263.451 220.169 263.728C219.647 264.005 219.044 264.144 218.361 264.144C217.593 264.144 216.889 263.952 216.249 263.568C215.62 263.173 215.119 262.629 214.745 261.936C214.383 261.232 214.201 260.437 214.201 259.552ZM221.417 259.584C221.417 258.976 221.289 258.448 221.033 258C220.788 257.552 220.463 257.211 220.057 256.976C219.652 256.741 219.215 256.624 218.745 256.624C218.276 256.624 217.839 256.741 217.433 256.976C217.028 257.2 216.697 257.536 216.441 257.984C216.196 258.421 216.073 258.944 216.073 259.552C216.073 260.16 216.196 260.693 216.441 261.152C216.697 261.611 217.028 261.963 217.433 262.208C217.849 262.443 218.287 262.56 218.745 262.56C219.215 262.56 219.652 262.443 220.057 262.208C220.463 261.973 220.788 261.632 221.033 261.184C221.289 260.725 221.417 260.192 221.417 259.584ZM233.505 256.672H231.873V264H230.033V256.672H228.993V255.184H230.033V254.56C230.033 253.547 230.3 252.811 230.833 252.352C231.377 251.883 232.225 251.648 233.377 251.648V253.168C232.823 253.168 232.433 253.275 232.209 253.488C231.985 253.691 231.873 254.048 231.873 254.56V255.184H233.505V256.672ZM238.946 264.144C238.114 264.144 237.362 263.957 236.69 263.584C236.018 263.2 235.49 262.667 235.106 261.984C234.722 261.291 234.53 260.491 234.53 259.584C234.53 258.688 234.727 257.893 235.122 257.2C235.517 256.507 236.055 255.973 236.738 255.6C237.421 255.227 238.183 255.04 239.026 255.04C239.869 255.04 240.631 255.227 241.314 255.6C241.997 255.973 242.535 256.507 242.93 257.2C243.325 257.893 243.522 258.688 243.522 259.584C243.522 260.48 243.319 261.275 242.914 261.968C242.509 262.661 241.954 263.2 241.25 263.584C240.557 263.957 239.789 264.144 238.946 264.144ZM238.946 262.56C239.415 262.56 239.853 262.448 240.258 262.224C240.674 262 241.01 261.664 241.266 261.216C241.522 260.768 241.65 260.224 241.65 259.584C241.65 258.944 241.527 258.405 241.282 257.968C241.037 257.52 240.711 257.184 240.306 256.96C239.901 256.736 239.463 256.624 238.994 256.624C238.525 256.624 238.087 256.736 237.682 256.96C237.287 257.184 236.973 257.52 236.738 257.968C236.503 258.405 236.386 258.944 236.386 259.584C236.386 260.533 236.626 261.269 237.106 261.792C237.597 262.304 238.21 262.56 238.946 262.56ZM247.149 256.464C247.416 256.016 247.768 255.669 248.205 255.424C248.653 255.168 249.181 255.04 249.789 255.04V256.928H249.325C248.61 256.928 248.066 257.109 247.693 257.472C247.33 257.835 247.149 258.464 247.149 259.36V264H245.325V255.184H247.149V256.464ZM257.75 256.672V261.552C257.75 261.883 257.825 262.123 257.974 262.272C258.134 262.411 258.401 262.48 258.774 262.48H259.894V264H258.454C257.633 264 257.003 263.808 256.566 263.424C256.129 263.04 255.91 262.416 255.91 261.552V256.672H254.87V255.184H255.91V252.992H257.75V255.184H259.894V256.672H257.75ZM266.135 255.04C266.807 255.04 267.404 255.184 267.927 255.472C268.46 255.76 268.876 256.187 269.175 256.752C269.484 257.317 269.639 258 269.639 258.8V264H267.831V259.072C267.831 258.283 267.634 257.68 267.239 257.264C266.844 256.837 266.306 256.624 265.623 256.624C264.94 256.624 264.396 256.837 263.991 257.264C263.596 257.68 263.399 258.283 263.399 259.072V264H261.575V252.16H263.399V256.208C263.708 255.835 264.098 255.547 264.567 255.344C265.047 255.141 265.57 255.04 266.135 255.04ZM280.046 259.376C280.046 259.707 280.024 260.005 279.982 260.272H273.246C273.299 260.976 273.56 261.541 274.03 261.968C274.499 262.395 275.075 262.608 275.758 262.608C276.739 262.608 277.432 262.197 277.838 261.376H279.806C279.539 262.187 279.054 262.853 278.35 263.376C277.656 263.888 276.792 264.144 275.758 264.144C274.915 264.144 274.158 263.957 273.486 263.584C272.824 263.2 272.302 262.667 271.918 261.984C271.544 261.291 271.358 260.491 271.358 259.584C271.358 258.677 271.539 257.883 271.902 257.2C272.275 256.507 272.792 255.973 273.454 255.6C274.126 255.227 274.894 255.04 275.758 255.04C276.59 255.04 277.331 255.221 277.982 255.584C278.632 255.947 279.139 256.459 279.502 257.12C279.864 257.771 280.046 258.523 280.046 259.376ZM278.142 258.8C278.131 258.128 277.891 257.589 277.422 257.184C276.952 256.779 276.371 256.576 275.678 256.576C275.048 256.576 274.51 256.779 274.062 257.184C273.614 257.579 273.347 258.117 273.262 258.8H278.142ZM282.577 264.112C282.246 264.112 281.969 264 281.745 263.776C281.521 263.552 281.409 263.275 281.409 262.944C281.409 262.613 281.521 262.336 281.745 262.112C281.969 261.888 282.246 261.776 282.577 261.776C282.897 261.776 283.169 261.888 283.393 262.112C283.617 262.336 283.729 262.613 283.729 262.944C283.729 263.275 283.617 263.552 283.393 263.776C283.169 264 282.897 264.112 282.577 264.112Z" fill="#5E6282"/>
<path d="M155.885 157.723H160.123C162.089 157.723 163.508 158.009 164.381 158.582C165.26 159.155 165.699 160.06 165.699 161.297C165.699 162.13 165.484 162.824 165.055 163.377C164.625 163.93 164.007 164.279 163.199 164.422V164.52C164.202 164.708 164.938 165.083 165.406 165.643C165.882 166.196 166.119 166.948 166.119 167.898C166.119 169.181 165.67 170.187 164.771 170.916C163.88 171.639 162.636 172 161.041 172H155.885V157.723ZM158.219 163.621H160.465C161.441 163.621 162.154 163.468 162.604 163.162C163.053 162.85 163.277 162.322 163.277 161.58C163.277 160.91 163.033 160.424 162.545 160.125C162.063 159.826 161.295 159.676 160.24 159.676H158.219V163.621ZM158.219 165.516V170.037H160.699C161.676 170.037 162.411 169.852 162.906 169.48C163.408 169.103 163.658 168.51 163.658 167.703C163.658 166.961 163.404 166.411 162.896 166.053C162.389 165.695 161.617 165.516 160.582 165.516H158.219ZM173.561 172.195C171.881 172.195 170.566 171.707 169.615 170.73C168.671 169.747 168.199 168.396 168.199 166.678C168.199 164.913 168.639 163.527 169.518 162.518C170.396 161.508 171.604 161.004 173.141 161.004C174.566 161.004 175.693 161.437 176.52 162.303C177.346 163.169 177.76 164.36 177.76 165.877V167.117H170.562C170.595 168.165 170.878 168.973 171.412 169.539C171.946 170.099 172.698 170.379 173.668 170.379C174.306 170.379 174.898 170.32 175.445 170.203C175.999 170.079 176.591 169.878 177.223 169.598V171.463C176.663 171.73 176.096 171.919 175.523 172.029C174.951 172.14 174.296 172.195 173.561 172.195ZM173.141 162.742C172.411 162.742 171.826 162.973 171.383 163.436C170.947 163.898 170.686 164.572 170.602 165.457H175.504C175.491 164.565 175.276 163.891 174.859 163.436C174.443 162.973 173.87 162.742 173.141 162.742ZM187.623 168.924C187.623 169.979 187.239 170.789 186.471 171.355C185.702 171.915 184.602 172.195 183.17 172.195C181.731 172.195 180.576 171.977 179.703 171.541V169.559C180.973 170.145 182.154 170.438 183.248 170.438C184.661 170.438 185.367 170.011 185.367 169.158C185.367 168.885 185.289 168.657 185.133 168.475C184.977 168.292 184.719 168.104 184.361 167.908C184.003 167.713 183.505 167.492 182.867 167.244C181.624 166.762 180.781 166.281 180.338 165.799C179.902 165.317 179.684 164.692 179.684 163.924C179.684 162.999 180.055 162.283 180.797 161.775C181.546 161.261 182.561 161.004 183.844 161.004C185.113 161.004 186.314 161.261 187.447 161.775L186.705 163.504C185.54 163.022 184.56 162.781 183.766 162.781C182.555 162.781 181.949 163.126 181.949 163.816C181.949 164.155 182.105 164.441 182.418 164.676C182.737 164.91 183.427 165.232 184.488 165.643C185.38 165.988 186.028 166.303 186.432 166.59C186.835 166.876 187.135 167.208 187.33 167.586C187.525 167.957 187.623 168.403 187.623 168.924ZM194.137 170.34C194.697 170.34 195.257 170.252 195.816 170.076V171.805C195.562 171.915 195.234 172.007 194.83 172.078C194.433 172.156 194.02 172.195 193.59 172.195C191.415 172.195 190.328 171.049 190.328 168.758V162.938H188.854V161.922L190.436 161.082L191.217 158.797H192.633V161.199H195.709V162.938H192.633V168.719C192.633 169.272 192.77 169.682 193.043 169.949C193.323 170.21 193.688 170.34 194.137 170.34ZM205.738 172H203.424V157.723H211.48V159.695H205.738V164.158H211.119V166.141H205.738V172ZM216.119 172H213.824V156.805H216.119V172ZM221.705 172H219.41V161.199H221.705V172ZM219.273 158.338C219.273 157.928 219.384 157.612 219.605 157.391C219.833 157.169 220.156 157.059 220.572 157.059C220.976 157.059 221.288 157.169 221.51 157.391C221.738 157.612 221.852 157.928 221.852 158.338C221.852 158.729 221.738 159.038 221.51 159.266C221.288 159.487 220.976 159.598 220.572 159.598C220.156 159.598 219.833 159.487 219.605 159.266C219.384 159.038 219.273 158.729 219.273 158.338ZM234.117 161.199V162.459L232.271 162.801C232.441 163.029 232.581 163.309 232.691 163.641C232.802 163.973 232.857 164.324 232.857 164.695C232.857 165.809 232.473 166.684 231.705 167.322C230.937 167.96 229.879 168.279 228.531 168.279C228.186 168.279 227.874 168.253 227.594 168.201C227.099 168.507 226.852 168.865 226.852 169.275C226.852 169.523 226.965 169.708 227.193 169.832C227.428 169.956 227.854 170.018 228.473 170.018H230.357C231.549 170.018 232.454 170.271 233.072 170.779C233.691 171.287 234 172.02 234 172.977C234 174.201 233.495 175.145 232.486 175.809C231.477 176.473 230.019 176.805 228.111 176.805C226.64 176.805 225.517 176.544 224.742 176.023C223.967 175.503 223.58 174.76 223.58 173.797C223.58 173.133 223.788 172.573 224.205 172.117C224.628 171.668 225.217 171.355 225.973 171.18C225.667 171.049 225.413 170.841 225.211 170.555C225.016 170.262 224.918 169.956 224.918 169.637C224.918 169.233 225.032 168.891 225.26 168.611C225.488 168.331 225.826 168.055 226.275 167.781C225.715 167.54 225.26 167.15 224.908 166.609C224.563 166.062 224.391 165.424 224.391 164.695C224.391 163.523 224.758 162.615 225.494 161.971C226.236 161.326 227.291 161.004 228.658 161.004C228.964 161.004 229.283 161.027 229.615 161.072C229.954 161.111 230.208 161.154 230.377 161.199H234.117ZM225.631 173.68C225.631 174.174 225.852 174.555 226.295 174.822C226.744 175.089 227.372 175.223 228.18 175.223C229.43 175.223 230.361 175.044 230.973 174.686C231.585 174.327 231.891 173.852 231.891 173.26C231.891 172.791 231.721 172.456 231.383 172.254C231.051 172.059 230.429 171.961 229.518 171.961H227.779C227.122 171.961 226.598 172.114 226.207 172.42C225.823 172.732 225.631 173.152 225.631 173.68ZM226.617 164.695C226.617 165.372 226.79 165.893 227.135 166.258C227.486 166.622 227.988 166.805 228.639 166.805C229.967 166.805 230.631 166.095 230.631 164.676C230.631 163.973 230.465 163.432 230.133 163.055C229.807 162.671 229.309 162.479 228.639 162.479C227.975 162.479 227.47 162.667 227.125 163.045C226.786 163.423 226.617 163.973 226.617 164.695ZM245.631 172H243.326V165.359C243.326 164.526 243.157 163.904 242.818 163.494C242.486 163.084 241.956 162.879 241.227 162.879C240.263 162.879 239.553 163.169 239.098 163.748C238.648 164.321 238.424 165.285 238.424 166.639V172H236.129V156.805H238.424V160.662C238.424 161.281 238.385 161.941 238.307 162.645H238.453C238.766 162.124 239.199 161.72 239.752 161.434C240.312 161.147 240.963 161.004 241.705 161.004C244.322 161.004 245.631 162.322 245.631 164.959V172ZM252.848 170.34C253.408 170.34 253.967 170.252 254.527 170.076V171.805C254.273 171.915 253.945 172.007 253.541 172.078C253.144 172.156 252.73 172.195 252.301 172.195C250.126 172.195 249.039 171.049 249.039 168.758V162.938H247.564V161.922L249.146 161.082L249.928 158.797H251.344V161.199H254.42V162.938H251.344V168.719C251.344 169.272 251.48 169.682 251.754 169.949C252.034 170.21 252.398 170.34 252.848 170.34ZM263.951 168.924C263.951 169.979 263.567 170.789 262.799 171.355C262.031 171.915 260.93 172.195 259.498 172.195C258.059 172.195 256.904 171.977 256.031 171.541V169.559C257.301 170.145 258.482 170.438 259.576 170.438C260.989 170.438 261.695 170.011 261.695 169.158C261.695 168.885 261.617 168.657 261.461 168.475C261.305 168.292 261.048 168.104 260.689 167.908C260.331 167.713 259.833 167.492 259.195 167.244C257.952 166.762 257.109 166.281 256.666 165.799C256.23 165.317 256.012 164.692 256.012 163.924C256.012 162.999 256.383 162.283 257.125 161.775C257.874 161.261 258.889 161.004 260.172 161.004C261.441 161.004 262.643 161.261 263.775 161.775L263.033 163.504C261.868 163.022 260.888 162.781 260.094 162.781C258.883 162.781 258.277 163.126 258.277 163.816C258.277 164.155 258.434 164.441 258.746 164.676C259.065 164.91 259.755 165.232 260.816 165.643C261.708 165.988 262.356 166.303 262.76 166.59C263.163 166.876 263.463 167.208 263.658 167.586C263.854 167.957 263.951 168.403 263.951 168.924Z" fill="#1E1D4C"/>
<path d="M176.805 72.9999C176.805 82.9411 184.864 90.9999 194.805 90.9999L221.805 90.9999C224.567 90.9999 226.805 88.7614 226.805 85.9999L226.805 51.9999C226.805 46.4771 222.328 41.9999 216.805 41.9999L181.805 41.9999C179.044 41.9999 176.805 44.2385 176.805 46.9999L176.805 72.9999Z" fill="#FFF1DA"/>
<path d="M225.389 86.9413C224.031 87.2456 222.708 87.8091 221.502 88.5965C218.361 90.5978 216.534 93.4546 217.421 94.9767C218.308 96.4988 221.573 96.1095 224.714 94.1082C225.936 93.3486 227.021 92.3779 227.903 91.2559C228.313 90.7138 228.386 90.0383 228.091 89.5334L226.939 87.556C226.645 87.0495 226.037 86.8086 225.389 86.9413Z" fill="#D5D6DB"/>
<path d="M217.502 59.9482C216.517 60.169 215.558 60.5778 214.683 61.1488C212.407 62.5996 211.081 64.671 211.723 65.7738C212.366 66.8766 214.734 66.5941 217.011 65.1434C217.897 64.5923 218.684 63.8881 219.324 63.0744C219.62 62.6815 219.673 62.1922 219.459 61.8261L218.625 60.3943C218.413 60.0271 217.972 59.8521 217.502 59.9482Z" fill="#D5D6DB"/>
<path d="M204.688 61.0787C204.469 61.0542 204.235 61.1126 204.032 61.2421L198.684 64.6503C198.237 64.9346 198.058 65.4819 198.285 65.8731C198.336 65.9627 198.407 66.0393 198.494 66.0983L211.675 75.1832L229.509 63.8185L204.688 61.0787Z" fill="#029BC5"/>
<path d="M261.065 59.794L212.533 90.3461L183.82 101.772L169.177 104.682L167.566 101.945L248.461 51.9985C250.872 50.5036 253.558 49.586 256.246 49.3389C257.424 49.237 258.587 49.2762 259.708 49.455C260.702 49.6057 261.645 49.8964 262.508 50.3185C263.472 50.7967 265.307 50.8519 265.901 51.8047C265.903 51.8032 267.305 56.1776 261.065 59.794V59.794Z" fill="#E1E6E9"/>
<path d="M213.176 86.3036L192.181 119.774C191.919 120.244 192.074 120.77 192.528 120.949C192.807 121.059 193.148 121.016 193.434 120.834L198.778 117.444C199.806 116.791 200.716 115.963 201.452 115.009L242.169 67.1404L213.176 86.3036Z" fill="#029BC5"/>
<path d="M160.197 85.1861C159.846 85.0664 159.43 85.1285 159.078 85.3525L154.66 88.1659C154.058 88.549 153.819 89.2854 154.124 89.8111C154.183 89.911 154.258 89.999 154.349 90.0714L166.726 99.9838L179.739 91.8557L160.197 85.1861Z" fill="#029BC5"/>
<path d="M170.874 101.771L164.213 111.1C164.115 111.234 164.138 111.403 164.264 111.476C164.355 111.529 164.479 111.519 164.58 111.452L168.708 108.836C168.74 108.815 168.769 108.79 168.793 108.761L178.527 96.9261L170.874 101.771Z" fill="#029BC5"/>
<path d="M258.911 49.8572C257.757 49.6718 256.559 49.6322 255.346 49.7388C254.166 51.3899 253.411 53.2446 253.157 55.118C253.139 55.4943 253.442 55.7652 253.835 55.723C253.957 55.7098 254.079 55.6669 254.188 55.5981L261.796 50.7538C260.906 50.3152 259.935 50.0134 258.911 49.8572Z" fill="#029BC5"/>
<path d="M242.332 58.7653L247.299 55.6284L251.926 63.4974L246.959 66.6343L242.332 58.7653Z" fill="#D5D6DB"/>
<path d="M239.207 61.8775C238.608 62.2567 238.369 62.9855 238.673 63.5052L239.165 64.3472C239.489 64.8536 240.228 64.9427 240.816 64.546C241.376 64.1682 241.602 63.4815 241.332 62.9745L240.84 62.1325C240.536 61.6132 239.805 61.499 239.207 61.8775V61.8775Z" fill="#3A556A"/>
<path d="M234.742 64.65C234.144 65.0291 233.904 65.7579 234.208 66.2777L234.701 67.1196C235.025 67.6261 235.764 67.7152 236.352 67.3185C236.912 66.9407 237.137 66.254 236.868 65.747L236.375 64.905C236.071 64.3859 235.341 64.2716 234.742 64.65V64.65Z" fill="#3A556A"/>
<path d="M230.276 67.4233C229.679 67.803 229.44 68.5309 229.744 69.0501L230.236 69.8921C230.56 70.3986 231.299 70.4876 231.887 70.0909C232.447 69.7131 232.673 69.0265 232.403 68.5195L231.911 67.6775C231.607 67.1578 230.875 67.044 230.276 67.4233V67.4233Z" fill="#3A556A"/>
<path d="M225.812 70.1957C225.214 70.5754 224.976 71.3033 225.279 71.8226L225.772 72.6646C226.096 73.171 226.835 73.2601 227.423 72.8634C227.983 72.4856 228.208 71.7989 227.939 71.2919L227.446 70.4499C227.142 69.9304 226.411 69.8166 225.812 70.1957V70.1957Z" fill="#3A556A"/>
<path d="M221.348 72.9684C220.75 73.3482 220.511 74.0764 220.815 74.5959L221.308 75.4383C221.611 75.9575 222.343 76.0712 222.941 75.6923C223.539 75.3133 223.778 74.5851 223.475 74.0658L222.982 73.2235C222.679 72.7037 221.948 72.5892 221.349 72.9676C221.349 72.9679 221.349 72.9681 221.348 72.9684Z" fill="#3A556A"/>
<path d="M216.884 75.7408C216.285 76.1207 216.047 76.8489 216.351 77.3684L216.843 78.2107C217.147 78.73 217.878 78.8437 218.477 78.4647C219.075 78.0857 219.314 77.3575 219.01 76.8383L218.518 75.9959C218.215 75.4762 217.484 75.3617 216.885 75.74C216.884 75.7404 216.884 75.7407 216.884 75.7408Z" fill="#3A556A"/>
<path d="M212.419 78.5134C211.821 78.8932 211.582 79.6214 211.886 80.1409L212.379 80.9832C212.683 81.502 213.415 81.6145 214.013 81.2351C214.609 80.8562 214.848 80.1296 214.545 79.6109L214.053 78.7686C213.749 78.249 213.018 78.1347 212.419 78.5134Z" fill="#3A556A"/>
<path d="M207.955 81.2859C207.356 81.6657 207.118 82.3939 207.422 82.9134L207.914 83.7558C208.219 84.2746 208.95 84.3871 209.548 84.0076C210.145 83.6288 210.383 82.9021 210.081 82.3835L209.588 81.5411C209.285 81.0215 208.553 80.9072 207.955 81.2859Z" fill="#3A556A"/>
<path d="M203.49 84.0583C202.892 84.4381 202.654 85.1663 202.957 85.6858L203.45 86.5281C203.754 87.0469 204.486 87.1595 205.084 86.78C205.68 86.4011 205.919 85.6745 205.617 85.1559L205.124 84.3136C204.82 83.7941 204.089 83.6798 203.49 84.0583Z" fill="#3A556A"/>
<path d="M199.024 86.8315C198.426 87.2105 198.187 87.9387 198.491 88.458L198.492 88.4591L198.984 89.3014C199.289 89.8202 200.02 89.9328 200.618 89.5533C201.215 89.1744 201.453 88.4478 201.151 87.9291L200.658 87.0868C200.355 86.5671 199.623 86.4528 199.024 86.8315Z" fill="#3A556A"/>
<path d="M194.561 89.6032C193.963 89.9822 193.724 90.7104 194.028 91.2296L194.028 91.2307L194.521 92.073C194.825 92.5918 195.557 92.7044 196.155 92.3249C196.751 91.9461 196.99 91.2194 196.688 90.7008L196.195 89.8585C195.891 89.339 195.16 89.2247 194.561 89.6032Z" fill="#3A556A"/>
<defs>
<filter id="filter0_dddddd_1_326" x="0" y="0.703704" width="427" height="495.296" filterUnits="userSpaceOnUse" color-interpolation-filters="sRGB">
<feFlood flood-opacity="0" result="BackgroundImageFix"/>
<feColorMatrix in="SourceAlpha" type="matrix" values="0 0 0 0 0 0 0 0 0 0 0 0 0 0 0 0 0 0 127 0" result="hardAlpha"/>
<feOffset dy="1.85185"/>
<feGaussianBlur stdDeviation="1.57407"/>
<feColorMatrix type="matrix" values="0 0 0 0 0 0 0 0 0 0 0 0 0 0 0 0 0 0 0.01 0"/>
<feBlend mode="normal" in2="BackgroundImageFix" result="effect1_dropShadow_1_326"/>
<feColorMatrix in="SourceAlpha" type="matrix" values="0 0 0 0 0 0 0 0 0 0 0 0 0 0 0 0 0 0 127 0" result="hardAlpha"/>
<feOffset dy="8.14815"/>
<feGaussianBlur stdDeviation="3.25926"/>
<feColorMatrix type="matrix" values="0 0 0 0 0 0 0 0 0 0 0 0 0 0 0 0 0 0 0.01 0"/>
<feBlend mode="normal" in2="effect1_dropShadow_1_326" result="effect2_dropShadow_1_326"/>
<feColorMatrix in="SourceAlpha" type="matrix" values="0 0 0 0 0 0 0 0 0 0 0 0 0 0 0 0 0 0 127 0" result="hardAlpha"/>
<feOffset dy="20"/>
<feGaussianBlur stdDeviation="6.5"/>
<feColorMatrix type="matrix" values="0 0 0 0 0 0 0 0 0 0 0 0 0 0 0 0 0 0 0.01 0"/>
<feBlend mode="normal" in2="effect2_dropShadow_1_326" result="effect3_dropShadow_1_326"/>
<feColorMatrix in="SourceAlpha" type="matrix" values="0 0 0 0 0 0 0 0 0 0 0 0 0 0 0 0 0 0 127 0" result="hardAlpha"/>
<feOffset dy="38.5185"/>
<feGaussianBlur stdDeviation="12.7407"/>
<feColorMatrix type="matrix" values="0 0 0 0 0 0 0 0 0 0 0 0 0 0 0 0 0 0 0.0121481 0"/>
<feBlend mode="normal" in2="effect3_dropShadow_1_326" result="effect4_dropShadow_1_326"/>
<feColorMatrix in="SourceAlpha" type="matrix" values="0 0 0 0 0 0 0 0 0 0 0 0 0 0 0 0 0 0 127 0" result="hardAlpha"/>
<feOffset dy="64.8148"/>
<feGaussianBlur stdDeviation="23.4259"/>
<feColorMatrix type="matrix" values="0 0 0 0 0 0 0 0 0 0 0 0 0 0 0 0 0 0 0.0151852 0"/>
<feBlend mode="normal" in2="effect4_dropShadow_1_326" result="effect5_dropShadow_1_326"/>
<feColorMatrix in="SourceAlpha" type="matrix" values="0 0 0 0 0 0 0 0 0 0 0 0 0 0 0 0 0 0 127 0" result="hardAlpha"/>
<feOffset dy="100"/>
<feGaussianBlur stdDeviation="40"/>
<feColorMatrix type="matrix" values="0 0 0 0 0 0 0 0 0 0 0 0 0 0 0 0 0 0 0.02 0"/>
<feBlend mode="normal" in2="effect5_dropShadow_1_326" result="effect6_dropShadow_1_326"/>
<feBlend mode="normal" in="SourceGraphic" in2="effect6_dropShadow_1_326" result="shape"/>
</filter>
</defs>
</svg>
