<svg width="16" height="16" viewBox="0 0 16 16" fill="none" xmlns="http://www.w3.org/2000/svg">
<path d="M0.266666 15.4667H1.86667V6.66667C1.86667 6.5194 1.98607 6.4 2.13333 6.4H5.86667V0.266667C5.86667 0.1194 5.98607 0 6.13333 0H13.0667C13.2139 0 13.3333 0.1194 13.3333 0.266667V15.4667H15.7333C15.8806 15.4667 16 15.5861 16 15.7333C16 15.8806 15.8806 16 15.7333 16H0.266666C0.119399 16 -8.34465e-07 15.8806 -8.34465e-07 15.7333C-8.34465e-07 15.5861 0.119399 15.4667 0.266666 15.4667ZM10.4 15.4667H11.4667V13.0667C11.4667 12.9194 11.3473 12.8 11.2 12.8H10.6667C10.5194 12.8 10.4 12.9194 10.4 13.0667V15.4667ZM9.33333 6.66667V15.4667H9.86667V13.0667C9.86667 12.6248 10.2248 12.2667 10.6667 12.2667H11.2C11.6418 12.2667 12 12.6248 12 13.0667V15.4667H12.8V0.533333H6.4V6.4H9.06667C9.21393 6.4 9.33333 6.5194 9.33333 6.66667ZM2.4 15.4667H8.8V6.93333H2.4V15.4667Z" fill="#84829A"/>
<path d="M7.46737 3.7334H9.0667C9.2139 3.7334 9.33325 3.85275 9.33325 3.99995V5.59928C9.33325 5.74649 9.2139 5.86584 9.0667 5.86584H7.46737C7.32016 5.86584 7.20081 5.74649 7.20081 5.59928V3.99995C7.20081 3.85275 7.32016 3.7334 7.46737 3.7334ZM7.73392 5.33273H8.80014V4.26651H7.73392V5.33273Z" fill="#84829A"/>
<path d="M7.46737 1.06665H9.0667C9.2139 1.06665 9.33325 1.186 9.33325 1.33321V2.93253C9.33325 3.07974 9.2139 3.19909 9.0667 3.19909H7.46737C7.32016 3.19909 7.20081 3.07974 7.20081 2.93253V1.33321C7.20081 1.186 7.32016 1.06665 7.46737 1.06665ZM7.73392 2.66598H8.80014V1.59976H7.73392V2.66598Z" fill="#84829A"/>
<path d="M10.1341 3.7334H11.7334C11.8807 3.7334 12 3.85275 12 3.99995V5.59928C12 5.74649 11.8807 5.86584 11.7334 5.86584H10.1341C9.98691 5.86584 9.86756 5.74649 9.86756 5.59928V3.99995C9.86756 3.85275 9.98691 3.7334 10.1341 3.7334ZM10.4007 5.33273H11.4669V4.26651H10.4007V5.33273Z" fill="#84829A"/>
<path d="M10.1341 1.06665H11.7334C11.8807 1.06665 12 1.186 12 1.33321V2.93253C12 3.07974 11.8807 3.19909 11.7334 3.19909H10.1341C9.98691 3.19909 9.86756 3.07974 9.86756 2.93253V1.33321C9.86756 1.186 9.98691 1.06665 10.1341 1.06665ZM10.4007 2.66598H11.4669V1.59976H10.4007V2.66598Z" fill="#84829A"/>
<path d="M10.1341 6.3999H11.7334C11.8807 6.3999 12 6.51925 12 6.66646V8.26579C12 8.41299 11.8807 8.53234 11.7334 8.53234H10.1341C9.98691 8.53234 9.86756 8.41299 9.86756 8.26579V6.66646C9.86756 6.51925 9.98691 6.3999 10.1341 6.3999ZM10.4007 7.99923H11.4669V6.93301H10.4007V7.99923Z" fill="#84829A"/>
<path d="M10.1341 9.06665H11.7334C11.8807 9.06665 12 9.186 12 9.33321V10.9325C12 11.0797 11.8807 11.1991 11.7334 11.1991H10.1341C9.98691 11.1991 9.86756 11.0797 9.86756 10.9325V9.33321C9.86756 9.186 9.98691 9.06665 10.1341 9.06665ZM10.4007 10.666H11.4669V9.59976H10.4007V10.666Z" fill="#84829A"/>
<path d="M5.0667 12.2657H3.46737C3.32016 12.2657 3.20081 12.1464 3.20081 11.9992V10.3999C3.20081 10.2527 3.32016 10.1333 3.46737 10.1333H5.0667C5.2139 10.1333 5.33325 10.2527 5.33325 10.3999V11.9992C5.33325 12.1464 5.2139 12.2657 5.0667 12.2657ZM4.80014 10.6664H3.73392V11.7326H4.80014V10.6664Z" fill="#84829A"/>
<path d="M5.0667 9.59899H3.46737C3.32016 9.59899 3.20081 9.47964 3.20081 9.33244V7.73311C3.20081 7.5859 3.32016 7.46655 3.46737 7.46655H5.0667C5.2139 7.46655 5.33325 7.5859 5.33325 7.73311V9.33244C5.33325 9.47964 5.2139 9.59899 5.0667 9.59899ZM4.80014 7.99966H3.73392V9.06588H4.80014V7.99966Z" fill="#84829A"/>
<path d="M5.0667 14.9325H3.46737C3.32016 14.9325 3.20081 14.8131 3.20081 14.6659V13.0666C3.20081 12.9194 3.32016 12.8 3.46737 12.8H5.0667C5.2139 12.8 5.33325 12.9194 5.33325 13.0666V14.6659C5.33325 14.8131 5.2139 14.9325 5.0667 14.9325ZM4.80014 13.3332H3.73392V14.3994H4.80014V13.3332Z" fill="#84829A"/>
<path d="M7.73345 12.2657H6.13412C5.98691 12.2657 5.86756 12.1464 5.86756 11.9992V10.3999C5.86756 10.2527 5.98691 10.1333 6.13412 10.1333H7.73345C7.88065 10.1333 8 10.2527 8 10.3999V11.9992C8 12.1464 7.88065 12.2657 7.73345 12.2657ZM7.46689 10.6664H6.40067V11.7326H7.46689V10.6664Z" fill="#84829A"/>
<path d="M7.73345 9.59899H6.13412C5.98691 9.59899 5.86756 9.47964 5.86756 9.33244V7.73311C5.86756 7.5859 5.98691 7.46655 6.13412 7.46655H7.73345C7.88065 7.46655 8 7.5859 8 7.73311V9.33244C8 9.47964 7.88065 9.59899 7.73345 9.59899ZM7.46689 7.99966H6.40067V9.06588H7.46689V7.99966Z" fill="#84829A"/>
<path d="M7.73345 14.9325H6.13412C5.98691 14.9325 5.86756 14.8131 5.86756 14.6659V13.0666C5.86756 12.9194 5.98691 12.8 6.13412 12.8H7.73345C7.88065 12.8 8 12.9194 8 13.0666V14.6659C8 14.8131 7.88065 14.9325 7.73345 14.9325ZM7.46689 13.3332H6.40067V14.3994H7.46689V13.3332Z" fill="#84829A"/>
</svg>
