<svg width="190" height="227" viewBox="0 0 190 227" fill="none" xmlns="http://www.w3.org/2000/svg">
<path d="M145 60C145 69.9411 136.941 78 127 78L100 78C97.2386 78 95 75.7614 95 73L95 39C95 33.4772 99.4772 29 105 29L140 29C142.761 29 145 31.2386 145 34L145 60Z" fill="#FFF1DA"/>
<path d="M76.527 50.6574L74.6389 49.7535L63.4222 66.3382H75.9402L77.1464 65.5516V51.225L76.527 50.6574Z" fill="#407093"/>
<path d="M74.8095 49.8353L70.5644 47.803H69.7644L57.7606 65.5516L58.4752 66.3382H63.6483L74.8095 49.8353Z" fill="#365E7D"/>
<path d="M79.4 65.5515H62.8475C62.0956 65.5515 61.486 66.161 61.486 66.9131V68.6385C61.486 69.3903 62.0955 69.9998 62.8473 69.9999H79.4C80.152 69.9999 80.7616 69.3904 80.7616 68.6385V66.9131C80.7616 66.161 80.152 65.5515 79.4 65.5515V65.5515Z" fill="#4A80AA"/>
<path d="M61.7677 68.6385V66.9131C61.7677 66.1611 62.3774 65.5515 63.1293 65.5515H54.3616C53.6096 65.5515 53 66.161 53 66.9131V68.6385C53 69.3904 53.6096 69.9999 54.3616 69.9999H63.1292C62.3772 69.9999 61.7677 69.3904 61.7677 68.6385V68.6385Z" fill="#407093"/>
<path d="M74.2397 39.9827C73.7302 41.0338 73.4423 42.2123 73.4423 43.459C73.4423 46.8659 75.5756 49.7721 78.5782 50.9218C79.8673 50.5179 81.0128 49.7893 81.9176 48.8301V47.0893L74.2397 39.9827Z" fill="#4A80AA"/>
<path d="M73.5767 43.4863C73.5767 42.2684 73.8583 41.1173 74.357 40.0909L71.9027 37.8192H70.9069C69.4009 39.2399 68.4595 41.2525 68.4595 43.4862C68.4595 47.7893 71.9477 51.2775 76.2508 51.2775C77.1471 51.2775 78.0067 51.1237 78.8078 50.8449C75.7628 49.7856 73.5767 46.8921 73.5767 43.4863V43.4863Z" fill="#407093"/>
<path d="M118.812 0.924695C117.579 -0.308232 115.58 -0.308232 114.347 0.924695L111.334 3.93756V4.31941L115.095 8.23954L115.799 8.40223L118.812 5.38937C120.045 4.15658 120.045 2.15762 118.812 0.924695V0.924695Z" fill="#FFD086"/>
<path d="M119.645 2.41492C119.513 1.86915 119.238 1.35085 118.812 0.924695C117.579 -0.308232 115.58 -0.308232 114.347 0.924695L111.334 3.93756V4.31941L113.328 6.3978C114.517 5.16091 115.697 3.94029 116.304 3.3334C117.316 2.32182 118.793 2.31403 119.645 2.41492V2.41492Z" fill="#FFC365"/>
<path d="M108.497 8.95026C108.463 8.95026 108.428 8.94848 108.393 8.94507L73.5763 5.51808C72.9957 5.46094 72.5714 4.944 72.6286 4.36336C72.6857 3.78272 73.2029 3.35875 73.7833 3.41549L108.6 6.84234C109.18 6.89949 109.605 7.41642 109.547 7.99706C109.494 8.5427 109.034 8.95026 108.497 8.95026Z" fill="#365E7D"/>
<path d="M83.6459 15.4681C83.1774 15.4681 82.7493 15.1539 82.6249 14.6795C82.4769 14.1151 82.8144 13.5377 83.3787 13.3896L108.229 6.87154C108.793 6.72374 109.371 7.06103 109.519 7.6254C109.667 8.18964 109.329 8.76714 108.765 8.9152L83.9147 15.4333C83.8248 15.4568 83.7345 15.4681 83.6459 15.4681V15.4681Z" fill="#407093"/>
<path d="M115.247 47.136C114.709 47.136 114.25 46.7281 114.196 46.1823L110.791 11.3445C110.734 10.764 111.159 10.2472 111.739 10.1903C112.32 10.1362 112.837 10.5584 112.893 11.139L116.299 45.9768C116.356 46.5573 115.931 47.0741 115.35 47.131C115.316 47.1342 115.281 47.136 115.247 47.136Z" fill="#365E7D"/>
<path d="M105.225 37.2475C105.136 37.2475 105.045 37.2359 104.954 37.212C104.39 37.0624 104.054 36.4841 104.204 35.9201L110.818 10.9741C110.967 10.41 111.545 10.0746 112.109 10.2236C112.673 10.3732 113.009 10.9515 112.86 11.5155L106.246 36.4615C106.12 36.9348 105.693 37.2475 105.225 37.2475V37.2475Z" fill="#407093"/>
<path d="M108.307 6.96429L111.327 3.94376L115.791 8.40782L112.771 11.4284L108.307 6.96429Z" fill="#FFC365"/>
<path d="M110.601 9.24573C111.327 8.48557 112.461 7.29995 113.557 6.15999L111.335 3.9375L108.314 6.95843L110.601 9.24573Z" fill="#FFA90F"/>
<path d="M113.451 13.1519C113.181 13.1519 112.91 13.0487 112.704 12.8425L106.894 7.03305C106.482 6.62044 106.482 5.95175 106.894 5.53899C107.307 5.12665 107.976 5.12665 108.388 5.53899L114.198 11.3484C114.611 11.761 114.611 12.4297 114.198 12.8425C113.992 13.0488 113.721 13.1519 113.451 13.1519Z" fill="#4A80AA"/>
<path d="M114.133 49.0376L78.7619 13.36C74.0724 23.9466 73.2581 35.3114 76.7688 45.1115C86.4643 53.8573 100.948 55.2003 114.281 49.7026L114.133 49.0376Z" fill="#B5DCFF"/>
<path d="M78.9502 13.55L70.8463 5.37573L70.0341 5.45585C64.3245 19.3031 65.9917 34.3917 75.6683 44.0684C76.2544 44.6545 76.8609 45.2107 77.4853 45.7383C73.4062 35.9498 74.0691 24.3077 78.9502 13.55V13.55Z" fill="#8BCAFF"/>
<path d="M117.365 46.5017L81.4914 10.6282C81.1384 10.6826 80.7985 10.8431 80.5267 11.1149L78.9664 12.6754C78.6313 13.0105 78.4646 13.4481 78.4598 13.8874L114.22 49.647C114.751 50.1787 115.613 50.1787 116.145 49.647L117.365 48.4271C117.897 47.8955 117.897 47.0334 117.365 46.5017Z" fill="#DBEDFF"/>
<path d="M79.0203 12.7021L80.5481 11.1743C80.8295 10.8929 81.1848 10.7318 81.5515 10.6882L73.2352 2.37192C72.7035 1.84022 71.8415 1.84022 71.3096 2.37192L70.0896 3.59199C69.5579 4.12369 69.5579 4.9857 70.0896 5.5174L78.5228 13.9506C78.5117 13.5 78.6764 13.0459 79.0203 12.7021V12.7021Z" fill="#B5DCFF"/>
<path d="M27.9879 162.288C28.5853 162.395 29.0919 162.709 29.5079 163.232C29.9239 163.755 30.1319 164.347 30.1319 165.008C30.1319 165.573 29.9826 166.085 29.6839 166.544C29.3959 166.992 28.9746 167.349 28.4199 167.616C27.8653 167.872 27.2199 168 26.4839 168H22.0359V156.88H26.2759C27.0333 156.88 27.6839 157.008 28.2279 157.264C28.7719 157.52 29.1826 157.867 29.4599 158.304C29.7373 158.731 29.8759 159.211 29.8759 159.744C29.8759 160.384 29.7053 160.917 29.3639 161.344C29.0226 161.771 28.5639 162.085 27.9879 162.288ZM23.8599 161.552H26.1159C26.7133 161.552 27.1773 161.419 27.5079 161.152C27.8493 160.875 28.0199 160.48 28.0199 159.968C28.0199 159.467 27.8493 159.077 27.5079 158.8C27.1773 158.512 26.7133 158.368 26.1159 158.368H23.8599V161.552ZM26.3239 166.512C26.9426 166.512 27.4279 166.363 27.7799 166.064C28.1319 165.765 28.3079 165.349 28.3079 164.816C28.3079 164.272 28.1213 163.84 27.7479 163.52C27.3746 163.2 26.8786 163.04 26.2599 163.04H23.8599V166.512H26.3239ZM40.0981 159.184V168H38.2741V166.96C37.9861 167.323 37.6074 167.611 37.1381 167.824C36.6794 168.027 36.1887 168.128 35.6661 168.128C34.9727 168.128 34.3487 167.984 33.7941 167.696C33.2501 167.408 32.8181 166.981 32.4981 166.416C32.1887 165.851 32.0341 165.168 32.0341 164.368V159.184H33.8421V164.096C33.8421 164.885 34.0394 165.493 34.4341 165.92C34.8287 166.336 35.3674 166.544 36.0501 166.544C36.7327 166.544 37.2714 166.336 37.6661 165.92C38.0714 165.493 38.2741 164.885 38.2741 164.096V159.184H40.0981ZM43.4327 158.016C43.102 158.016 42.8247 157.904 42.6007 157.68C42.3767 157.456 42.2647 157.179 42.2647 156.848C42.2647 156.517 42.3767 156.24 42.6007 156.016C42.8247 155.792 43.102 155.68 43.4327 155.68C43.7527 155.68 44.0247 155.792 44.2487 156.016C44.4727 156.24 44.5847 156.517 44.5847 156.848C44.5847 157.179 44.4727 157.456 44.2487 157.68C44.0247 157.904 43.7527 158.016 43.4327 158.016ZM44.3287 159.184V168H42.5047V159.184H44.3287ZM48.5474 156.16V168H46.7234V156.16H48.5474ZM53.0702 160.672V165.552C53.0702 165.883 53.1449 166.123 53.2942 166.272C53.4542 166.411 53.7209 166.48 54.0942 166.48H55.2142V168H53.7742C52.9529 168 52.3235 167.808 51.8862 167.424C51.4489 167.04 51.2302 166.416 51.2302 165.552V160.672H50.1902V159.184H51.2302V156.992H53.0702V159.184H55.2142V160.672H53.0702ZM75.5316 156.88L72.2356 168H70.1716L67.8356 159.584L65.3556 168L63.3076 168.016L60.1556 156.88H62.0916L64.3956 165.936L66.8916 156.88H68.9396L71.2596 165.888L73.5796 156.88H75.5316ZM77.9639 158.016C77.6333 158.016 77.3559 157.904 77.1319 157.68C76.9079 157.456 76.7959 157.179 76.7959 156.848C76.7959 156.517 76.9079 156.24 77.1319 156.016C77.3559 155.792 77.6333 155.68 77.9639 155.68C78.2839 155.68 78.5559 155.792 78.7799 156.016C79.0039 156.24 79.1159 156.517 79.1159 156.848C79.1159 157.179 79.0039 157.456 78.7799 157.68C78.5559 157.904 78.2839 158.016 77.9639 158.016ZM78.8599 159.184V168H77.0359V159.184H78.8599ZM80.6467 163.584C80.6467 162.677 80.828 161.883 81.1907 161.2C81.564 160.507 82.076 159.973 82.7267 159.6C83.3774 159.227 84.124 159.04 84.9667 159.04C86.0334 159.04 86.9134 159.296 87.6067 159.808C88.3107 160.309 88.7854 161.029 89.0307 161.968H87.0627C86.9027 161.531 86.6467 161.189 86.2947 160.944C85.9427 160.699 85.5 160.576 84.9667 160.576C84.22 160.576 83.6227 160.843 83.1747 161.376C82.7374 161.899 82.5187 162.635 82.5187 163.584C82.5187 164.533 82.7374 165.275 83.1747 165.808C83.6227 166.341 84.22 166.608 84.9667 166.608C86.0227 166.608 86.7214 166.144 87.0627 165.216H89.0307C88.7747 166.112 88.2947 166.827 87.5907 167.36C86.8867 167.883 86.012 168.144 84.9667 168.144C84.124 168.144 83.3774 167.957 82.7267 167.584C82.076 167.2 81.564 166.667 81.1907 165.984C80.828 165.291 80.6467 164.491 80.6467 163.584ZM94.3364 163.6L98.4004 168H95.9364L92.6724 164.208V168H90.8484V156.16H92.6724V163.04L95.8724 159.184H98.4004L94.3364 163.6ZM107.788 163.376C107.788 163.707 107.766 164.005 107.724 164.272H100.988C101.041 164.976 101.302 165.541 101.772 165.968C102.241 166.395 102.817 166.608 103.5 166.608C104.481 166.608 105.174 166.197 105.58 165.376H107.548C107.281 166.187 106.796 166.853 106.092 167.376C105.398 167.888 104.534 168.144 103.5 168.144C102.657 168.144 101.9 167.957 101.228 167.584C100.566 167.2 100.044 166.667 99.6598 165.984C99.2865 165.291 99.0998 164.491 99.0998 163.584C99.0998 162.677 99.2811 161.883 99.6438 161.2C100.017 160.507 100.534 159.973 101.196 159.6C101.868 159.227 102.636 159.04 103.5 159.04C104.332 159.04 105.073 159.221 105.724 159.584C106.374 159.947 106.881 160.459 107.244 161.12C107.606 161.771 107.788 162.523 107.788 163.376ZM105.884 162.8C105.873 162.128 105.633 161.589 105.164 161.184C104.694 160.779 104.113 160.576 103.42 160.576C102.79 160.576 102.252 160.779 101.804 161.184C101.356 161.579 101.089 162.117 101.004 162.8H105.884ZM111.711 160.672V165.552C111.711 165.883 111.785 166.123 111.935 166.272C112.095 166.411 112.361 166.48 112.735 166.48H113.855V168H112.415C111.593 168 110.964 167.808 110.527 167.424C110.089 167.04 109.871 166.416 109.871 165.552V160.672H108.831V159.184H109.871V156.992H111.711V159.184H113.855V160.672H111.711ZM121.516 156.16V168H119.692V156.16H121.516ZM127.735 168.144C126.903 168.144 126.151 167.957 125.479 167.584C124.807 167.2 124.279 166.667 123.895 165.984C123.511 165.291 123.319 164.491 123.319 163.584C123.319 162.688 123.516 161.893 123.911 161.2C124.306 160.507 124.844 159.973 125.527 159.6C126.21 159.227 126.972 159.04 127.815 159.04C128.658 159.04 129.42 159.227 130.103 159.6C130.786 159.973 131.324 160.507 131.719 161.2C132.114 161.893 132.311 162.688 132.311 163.584C132.311 164.48 132.108 165.275 131.703 165.968C131.298 166.661 130.743 167.2 130.039 167.584C129.346 167.957 128.578 168.144 127.735 168.144ZM127.735 166.56C128.204 166.56 128.642 166.448 129.047 166.224C129.463 166 129.799 165.664 130.055 165.216C130.311 164.768 130.439 164.224 130.439 163.584C130.439 162.944 130.316 162.405 130.071 161.968C129.826 161.52 129.5 161.184 129.095 160.96C128.69 160.736 128.252 160.624 127.783 160.624C127.314 160.624 126.876 160.736 126.471 160.96C126.076 161.184 125.762 161.52 125.527 161.968C125.292 162.405 125.175 162.944 125.175 163.584C125.175 164.533 125.415 165.269 125.895 165.792C126.386 166.304 126.999 166.56 127.735 166.56ZM138.562 159.04C139.255 159.04 139.874 159.184 140.418 159.472C140.973 159.76 141.405 160.187 141.714 160.752C142.023 161.317 142.178 162 142.178 162.8V168H140.37V163.072C140.37 162.283 140.173 161.68 139.778 161.264C139.383 160.837 138.845 160.624 138.162 160.624C137.479 160.624 136.935 160.837 136.53 161.264C136.135 161.68 135.938 162.283 135.938 163.072V168H134.114V159.184H135.938V160.192C136.237 159.829 136.615 159.547 137.074 159.344C137.543 159.141 138.039 159.04 138.562 159.04ZM148.057 159.04C148.739 159.04 149.342 159.179 149.865 159.456C150.398 159.723 150.814 160.059 151.113 160.464V159.184H152.953V168.144C152.953 168.955 152.782 169.675 152.441 170.304C152.099 170.944 151.603 171.445 150.953 171.808C150.313 172.171 149.545 172.352 148.649 172.352C147.454 172.352 146.462 172.069 145.673 171.504C144.883 170.949 144.435 170.192 144.329 169.232H146.137C146.275 169.691 146.569 170.059 147.017 170.336C147.475 170.624 148.019 170.768 148.649 170.768C149.385 170.768 149.977 170.544 150.425 170.096C150.883 169.648 151.113 168.997 151.113 168.144V166.672C150.803 167.088 150.382 167.44 149.849 167.728C149.326 168.005 148.729 168.144 148.057 168.144C147.289 168.144 146.585 167.952 145.945 167.568C145.315 167.173 144.814 166.629 144.441 165.936C144.078 165.232 143.897 164.437 143.897 163.552C143.897 162.667 144.078 161.883 144.441 161.2C144.814 160.517 145.315 159.989 145.945 159.616C146.585 159.232 147.289 159.04 148.057 159.04ZM151.113 163.584C151.113 162.976 150.985 162.448 150.729 162C150.483 161.552 150.158 161.211 149.753 160.976C149.347 160.741 148.91 160.624 148.441 160.624C147.971 160.624 147.534 160.741 147.129 160.976C146.723 161.2 146.393 161.536 146.137 161.984C145.891 162.421 145.769 162.944 145.769 163.552C145.769 164.16 145.891 164.693 146.137 165.152C146.393 165.611 146.723 165.963 147.129 166.208C147.545 166.443 147.982 166.56 148.441 166.56C148.91 166.56 149.347 166.443 149.753 166.208C150.158 165.973 150.483 165.632 150.729 165.184C150.985 164.725 151.113 164.192 151.113 163.584ZM163.428 163.376C163.428 163.707 163.407 164.005 163.364 164.272H156.628C156.682 164.976 156.943 165.541 157.412 165.968C157.882 166.395 158.458 166.608 159.14 166.608C160.122 166.608 160.815 166.197 161.22 165.376H163.188C162.922 166.187 162.436 166.853 161.732 167.376C161.039 167.888 160.175 168.144 159.14 168.144C158.298 168.144 157.54 167.957 156.868 167.584C156.207 167.2 155.684 166.667 155.3 165.984C154.927 165.291 154.74 164.491 154.74 163.584C154.74 162.677 154.922 161.883 155.284 161.2C155.658 160.507 156.175 159.973 156.836 159.6C157.508 159.227 158.276 159.04 159.14 159.04C159.972 159.04 160.714 159.221 161.364 159.584C162.015 159.947 162.522 160.459 162.884 161.12C163.247 161.771 163.428 162.523 163.428 163.376ZM161.524 162.8C161.514 162.128 161.274 161.589 160.804 161.184C160.335 160.779 159.754 160.576 159.06 160.576C158.431 160.576 157.892 160.779 157.444 161.184C156.996 161.579 156.73 162.117 156.644 162.8H161.524ZM167.047 160.464C167.314 160.016 167.666 159.669 168.103 159.424C168.551 159.168 169.079 159.04 169.687 159.04V160.928H169.223C168.509 160.928 167.965 161.109 167.591 161.472C167.229 161.835 167.047 162.464 167.047 163.36V168H165.223V159.184H167.047V160.464ZM24.9514 189.552C24.9514 188.667 25.1327 187.883 25.4954 187.2C25.8687 186.517 26.37 185.989 26.9994 185.616C27.6394 185.232 28.3434 185.04 29.1114 185.04C29.8047 185.04 30.4074 185.179 30.9194 185.456C31.442 185.723 31.858 186.059 32.1674 186.464V185.184H34.0074V194H32.1674V192.688C31.858 193.104 31.4367 193.451 30.9034 193.728C30.37 194.005 29.762 194.144 29.0794 194.144C28.322 194.144 27.6287 193.952 26.9994 193.568C26.37 193.173 25.8687 192.629 25.4954 191.936C25.1327 191.232 24.9514 190.437 24.9514 189.552ZM32.1674 189.584C32.1674 188.976 32.0394 188.448 31.7834 188C31.538 187.552 31.2127 187.211 30.8074 186.976C30.402 186.741 29.9647 186.624 29.4954 186.624C29.026 186.624 28.5887 186.741 28.1834 186.976C27.778 187.2 27.4474 187.536 27.1914 187.984C26.946 188.421 26.8234 188.944 26.8234 189.552C26.8234 190.16 26.946 190.693 27.1914 191.152C27.4474 191.611 27.778 191.963 28.1834 192.208C28.5994 192.443 29.0367 192.56 29.4954 192.56C29.9647 192.56 30.402 192.443 30.8074 192.208C31.2127 191.973 31.538 191.632 31.7834 191.184C32.0394 190.725 32.1674 190.192 32.1674 189.584ZM35.7951 189.552C35.7951 188.667 35.9765 187.883 36.3391 187.2C36.7125 186.517 37.2138 185.989 37.8431 185.616C38.4831 185.232 39.1925 185.04 39.9711 185.04C40.5471 185.04 41.1125 185.168 41.6671 185.424C42.2325 185.669 42.6805 186 43.0111 186.416V182.16H44.8511V194H43.0111V192.672C42.7125 193.099 42.2965 193.451 41.7631 193.728C41.2405 194.005 40.6378 194.144 39.9551 194.144C39.1871 194.144 38.4831 193.952 37.8431 193.568C37.2138 193.173 36.7125 192.629 36.3391 191.936C35.9765 191.232 35.7951 190.437 35.7951 189.552ZM43.0111 189.584C43.0111 188.976 42.8831 188.448 42.6271 188C42.3818 187.552 42.0565 187.211 41.6511 186.976C41.2458 186.741 40.8085 186.624 40.3391 186.624C39.8698 186.624 39.4325 186.741 39.0271 186.976C38.6218 187.2 38.2911 187.536 38.0351 187.984C37.7898 188.421 37.6671 188.944 37.6671 189.552C37.6671 190.16 37.7898 190.693 38.0351 191.152C38.2911 191.611 38.6218 191.963 39.0271 192.208C39.4431 192.443 39.8805 192.56 40.3391 192.56C40.8085 192.56 41.2458 192.443 41.6511 192.208C42.0565 191.973 42.3818 191.632 42.6271 191.184C42.8831 190.725 43.0111 190.192 43.0111 189.584ZM57.9189 185.04C58.6122 185.04 59.2309 185.184 59.7749 185.472C60.3295 185.76 60.7615 186.187 61.0709 186.752C61.3909 187.317 61.5509 188 61.5509 188.8V194H59.7429V189.072C59.7429 188.283 59.5455 187.68 59.1509 187.264C58.7562 186.837 58.2175 186.624 57.5349 186.624C56.8522 186.624 56.3082 186.837 55.9029 187.264C55.5082 187.68 55.3109 188.283 55.3109 189.072V194H53.5029V189.072C53.5029 188.283 53.3055 187.68 52.9109 187.264C52.5162 186.837 51.9775 186.624 51.2949 186.624C50.6122 186.624 50.0682 186.837 49.6629 187.264C49.2682 187.68 49.0709 188.283 49.0709 189.072V194H47.2469V185.184H49.0709V186.192C49.3695 185.829 49.7482 185.547 50.2069 185.344C50.6655 185.141 51.1562 185.04 51.6789 185.04C52.3829 185.04 53.0122 185.189 53.5669 185.488C54.1215 185.787 54.5482 186.219 54.8469 186.784C55.1135 186.251 55.5295 185.829 56.0949 185.52C56.6602 185.2 57.2682 185.04 57.9189 185.04ZM64.7999 184.016C64.4692 184.016 64.1919 183.904 63.9679 183.68C63.7439 183.456 63.6319 183.179 63.6319 182.848C63.6319 182.517 63.7439 182.24 63.9679 182.016C64.1919 181.792 64.4692 181.68 64.7999 181.68C65.1199 181.68 65.3919 181.792 65.6159 182.016C65.8399 182.24 65.9519 182.517 65.9519 182.848C65.9519 183.179 65.8399 183.456 65.6159 183.68C65.3919 183.904 65.1199 184.016 64.7999 184.016ZM65.6959 185.184V194H63.8719V185.184H65.6959ZM69.9146 186.464C70.1813 186.016 70.5333 185.669 70.9706 185.424C71.4186 185.168 71.9466 185.04 72.5546 185.04V186.928H72.0906C71.376 186.928 70.832 187.109 70.4586 187.472C70.096 187.835 69.9146 188.464 69.9146 189.36V194H68.0906V185.184H69.9146V186.464ZM82.3113 189.376C82.3113 189.707 82.2899 190.005 82.2473 190.272H75.5113C75.5646 190.976 75.8259 191.541 76.2953 191.968C76.7646 192.395 77.3406 192.608 78.0233 192.608C79.0046 192.608 79.6979 192.197 80.1033 191.376H82.0712C81.8046 192.187 81.3193 192.853 80.6153 193.376C79.9219 193.888 79.0579 194.144 78.0233 194.144C77.1806 194.144 76.4233 193.957 75.7513 193.584C75.0899 193.2 74.5673 192.667 74.1833 191.984C73.8099 191.291 73.6233 190.491 73.6233 189.584C73.6233 188.677 73.8046 187.883 74.1673 187.2C74.5406 186.507 75.0579 185.973 75.7193 185.6C76.3913 185.227 77.1593 185.04 78.0233 185.04C78.8553 185.04 79.5966 185.221 80.2473 185.584C80.8979 185.947 81.4046 186.459 81.7673 187.12C82.1299 187.771 82.3113 188.523 82.3113 189.376ZM80.4073 188.8C80.3966 188.128 80.1566 187.589 79.6873 187.184C79.2179 186.779 78.6366 186.576 77.9433 186.576C77.3139 186.576 76.7753 186.779 76.3273 187.184C75.8793 187.579 75.6126 188.117 75.5273 188.8H80.4073ZM87.6545 189.552C87.6545 188.667 87.8358 187.883 88.1985 187.2C88.5718 186.517 89.0732 185.989 89.7025 185.616C90.3425 185.232 91.0518 185.04 91.8305 185.04C92.4065 185.04 92.9718 185.168 93.5265 185.424C94.0918 185.669 94.5398 186 94.8705 186.416V182.16H96.7105V194H94.8705V192.672C94.5718 193.099 94.1558 193.451 93.6225 193.728C93.0998 194.005 92.4972 194.144 91.8145 194.144C91.0465 194.144 90.3425 193.952 89.7025 193.568C89.0732 193.173 88.5718 192.629 88.1985 191.936C87.8358 191.232 87.6545 190.437 87.6545 189.552ZM94.8705 189.584C94.8705 188.976 94.7425 188.448 94.4865 188C94.2412 187.552 93.9158 187.211 93.5105 186.976C93.1052 186.741 92.6678 186.624 92.1985 186.624C91.7292 186.624 91.2918 186.741 90.8865 186.976C90.4812 187.2 90.1505 187.536 89.8945 187.984C89.6492 188.421 89.5265 188.944 89.5265 189.552C89.5265 190.16 89.6492 190.693 89.8945 191.152C90.1505 191.611 90.4812 191.963 90.8865 192.208C91.3025 192.443 91.7398 192.56 92.1985 192.56C92.6678 192.56 93.1052 192.443 93.5105 192.208C93.9158 191.973 94.2412 191.632 94.4865 191.184C94.7425 190.725 94.8705 190.192 94.8705 189.584ZM102.93 194.144C102.098 194.144 101.346 193.957 100.674 193.584C100.002 193.2 99.4743 192.667 99.0903 191.984C98.7063 191.291 98.5143 190.491 98.5143 189.584C98.5143 188.688 98.7116 187.893 99.1063 187.2C99.5009 186.507 100.04 185.973 100.722 185.6C101.405 185.227 102.168 185.04 103.01 185.04C103.853 185.04 104.616 185.227 105.298 185.6C105.981 185.973 106.52 186.507 106.914 187.2C107.309 187.893 107.506 188.688 107.506 189.584C107.506 190.48 107.304 191.275 106.898 191.968C106.493 192.661 105.938 193.2 105.234 193.584C104.541 193.957 103.773 194.144 102.93 194.144ZM102.93 192.56C103.4 192.56 103.837 192.448 104.242 192.224C104.658 192 104.994 191.664 105.25 191.216C105.506 190.768 105.634 190.224 105.634 189.584C105.634 188.944 105.512 188.405 105.266 187.968C105.021 187.52 104.696 187.184 104.29 186.96C103.885 186.736 103.448 186.624 102.978 186.624C102.509 186.624 102.072 186.736 101.666 186.96C101.272 187.184 100.957 187.52 100.722 187.968C100.488 188.405 100.37 188.944 100.37 189.584C100.37 190.533 100.61 191.269 101.09 191.792C101.581 192.304 102.194 192.56 102.93 192.56ZM115.29 186.496C115.599 186.069 116.02 185.723 116.554 185.456C117.098 185.179 117.7 185.04 118.362 185.04C119.14 185.04 119.844 185.227 120.474 185.6C121.103 185.973 121.599 186.507 121.962 187.2C122.324 187.883 122.506 188.667 122.506 189.552C122.506 190.437 122.324 191.232 121.962 191.936C121.599 192.629 121.098 193.173 120.458 193.568C119.828 193.952 119.13 194.144 118.362 194.144C117.679 194.144 117.071 194.011 116.538 193.744C116.015 193.477 115.599 193.136 115.29 192.72V194H113.466V182.16H115.29V186.496ZM120.65 189.552C120.65 188.944 120.522 188.421 120.266 187.984C120.02 187.536 119.69 187.2 119.274 186.976C118.868 186.741 118.431 186.624 117.962 186.624C117.503 186.624 117.066 186.741 116.65 186.976C116.244 187.211 115.914 187.552 115.658 188C115.412 188.448 115.29 188.976 115.29 189.584C115.29 190.192 115.412 190.725 115.658 191.184C115.914 191.632 116.244 191.973 116.65 192.208C117.066 192.443 117.503 192.56 117.962 192.56C118.431 192.56 118.868 192.443 119.274 192.208C119.69 191.963 120.02 191.611 120.266 191.152C120.522 190.693 120.65 190.16 120.65 189.552ZM123.701 189.552C123.701 188.667 123.883 187.883 124.245 187.2C124.619 186.517 125.12 185.989 125.749 185.616C126.389 185.232 127.093 185.04 127.861 185.04C128.555 185.04 129.157 185.179 129.669 185.456C130.192 185.723 130.608 186.059 130.917 186.464V185.184H132.757V194H130.917V192.688C130.608 193.104 130.187 193.451 129.653 193.728C129.12 194.005 128.512 194.144 127.829 194.144C127.072 194.144 126.379 193.952 125.749 193.568C125.12 193.173 124.619 192.629 124.245 191.936C123.883 191.232 123.701 190.437 123.701 189.552ZM130.917 189.584C130.917 188.976 130.789 188.448 130.533 188C130.288 187.552 129.963 187.211 129.557 186.976C129.152 186.741 128.715 186.624 128.245 186.624C127.776 186.624 127.339 186.741 126.933 186.976C126.528 187.2 126.197 187.536 125.941 187.984C125.696 188.421 125.573 188.944 125.573 189.552C125.573 190.16 125.696 190.693 125.941 191.152C126.197 191.611 126.528 191.963 126.933 192.208C127.349 192.443 127.787 192.56 128.245 192.56C128.715 192.56 129.152 192.443 129.557 192.208C129.963 191.973 130.288 191.632 130.533 191.184C130.789 190.725 130.917 190.192 130.917 189.584ZM136.977 186.464C137.244 186.016 137.596 185.669 138.033 185.424C138.481 185.168 139.009 185.04 139.617 185.04V186.928H139.153C138.438 186.928 137.894 187.109 137.521 187.472C137.158 187.835 136.977 188.464 136.977 189.36V194H135.153V185.184H136.977V186.464ZM143.422 186.672V191.552C143.422 191.883 143.496 192.123 143.646 192.272C143.806 192.411 144.072 192.48 144.446 192.48H145.566V194H144.126C143.304 194 142.675 193.808 142.238 193.424C141.8 193.04 141.582 192.416 141.582 191.552V186.672H140.542V185.184H141.582V182.992H143.422V185.184H145.566V186.672H143.422ZM151.071 194.144C150.239 194.144 149.487 193.957 148.815 193.584C148.143 193.2 147.615 192.667 147.231 191.984C146.847 191.291 146.655 190.491 146.655 189.584C146.655 188.688 146.852 187.893 147.247 187.2C147.642 186.507 148.18 185.973 148.863 185.6C149.546 185.227 150.308 185.04 151.151 185.04C151.994 185.04 152.756 185.227 153.439 185.6C154.122 185.973 154.66 186.507 155.055 187.2C155.45 187.893 155.647 188.688 155.647 189.584C155.647 190.48 155.444 191.275 155.039 191.968C154.634 192.661 154.079 193.2 153.375 193.584C152.682 193.957 151.914 194.144 151.071 194.144ZM151.071 192.56C151.54 192.56 151.978 192.448 152.383 192.224C152.799 192 153.135 191.664 153.391 191.216C153.647 190.768 153.775 190.224 153.775 189.584C153.775 188.944 153.652 188.405 153.407 187.968C153.162 187.52 152.836 187.184 152.431 186.96C152.026 186.736 151.588 186.624 151.119 186.624C150.65 186.624 150.212 186.736 149.807 186.96C149.412 187.184 149.098 187.52 148.863 187.968C148.628 188.405 148.511 188.944 148.511 189.584C148.511 190.533 148.751 191.269 149.231 191.792C149.722 192.304 150.335 192.56 151.071 192.56ZM161.898 185.04C162.591 185.04 163.21 185.184 163.754 185.472C164.309 185.76 164.741 186.187 165.05 186.752C165.359 187.317 165.514 188 165.514 188.8V194H163.706V189.072C163.706 188.283 163.509 187.68 163.114 187.264C162.719 186.837 162.181 186.624 161.498 186.624C160.815 186.624 160.271 186.837 159.866 187.264C159.471 187.68 159.274 188.283 159.274 189.072V194H157.45V185.184H159.274V186.192C159.573 185.829 159.951 185.547 160.41 185.344C160.879 185.141 161.375 185.04 161.898 185.04ZM22.9205 218.368L25.4165 211.184H27.3525L23.9925 220H21.8165L18.4725 211.184H20.4245L22.9205 218.368ZM28.1233 215.552C28.1233 214.667 28.3046 213.883 28.6673 213.2C29.0406 212.517 29.5419 211.989 30.1713 211.616C30.8113 211.232 31.5153 211.04 32.2833 211.04C32.9766 211.04 33.5793 211.179 34.0913 211.456C34.6139 211.723 35.0299 212.059 35.3393 212.464V211.184H37.1793V220H35.3393V218.688C35.0299 219.104 34.6086 219.451 34.0753 219.728C33.5419 220.005 32.9339 220.144 32.2513 220.144C31.4939 220.144 30.8006 219.952 30.1713 219.568C29.5419 219.173 29.0406 218.629 28.6673 217.936C28.3046 217.232 28.1233 216.437 28.1233 215.552ZM35.3393 215.584C35.3393 214.976 35.2113 214.448 34.9553 214C34.7099 213.552 34.3846 213.211 33.9793 212.976C33.5739 212.741 33.1366 212.624 32.6673 212.624C32.1979 212.624 31.7606 212.741 31.3553 212.976C30.9499 213.2 30.6193 213.536 30.3633 213.984C30.1179 214.421 29.9953 214.944 29.9953 215.552C29.9953 216.16 30.1179 216.693 30.3633 217.152C30.6193 217.611 30.9499 217.963 31.3553 218.208C31.7713 218.443 32.2086 218.56 32.6673 218.56C33.1366 218.56 33.5739 218.443 33.9793 218.208C34.3846 217.973 34.7099 217.632 34.9553 217.184C35.2113 216.725 35.3393 216.192 35.3393 215.584ZM44.023 211.04C44.7163 211.04 45.335 211.184 45.879 211.472C46.4337 211.76 46.8657 212.187 47.175 212.752C47.4843 213.317 47.639 214 47.639 214.8V220H45.831V215.072C45.831 214.283 45.6337 213.68 45.239 213.264C44.8443 212.837 44.3057 212.624 43.623 212.624C42.9403 212.624 42.3963 212.837 41.991 213.264C41.5963 213.68 41.399 214.283 41.399 215.072V220H39.575V211.184H41.399V212.192C41.6977 211.829 42.0763 211.547 42.535 211.344C43.0043 211.141 43.5003 211.04 44.023 211.04ZM50.8936 210.016C50.563 210.016 50.2856 209.904 50.0616 209.68C49.8376 209.456 49.7256 209.179 49.7256 208.848C49.7256 208.517 49.8376 208.24 50.0616 208.016C50.2856 207.792 50.563 207.68 50.8936 207.68C51.2136 207.68 51.4856 207.792 51.7096 208.016C51.9336 208.24 52.0456 208.517 52.0456 208.848C52.0456 209.179 51.9336 209.456 51.7096 209.68C51.4856 209.904 51.2136 210.016 50.8936 210.016ZM51.7896 211.184V220H49.9656V211.184H51.7896ZM56.3124 212.672V217.552C56.3124 217.883 56.387 218.123 56.5364 218.272C56.6964 218.411 56.963 218.48 57.3364 218.48H58.4564V220H57.0164C56.195 220 55.5657 219.808 55.1284 219.424C54.691 219.04 54.4724 218.416 54.4724 217.552V212.672H53.4324V211.184H54.4724V208.992H56.3124V211.184H58.4564V212.672H56.3124ZM68.0735 211.184L62.6655 224.144H60.7775L62.5695 219.856L59.0975 211.184H61.1295L63.6095 217.904L66.1855 211.184H68.0735ZM74.5343 210.016C74.2036 210.016 73.9263 209.904 73.7023 209.68C73.4783 209.456 73.3663 209.179 73.3663 208.848C73.3663 208.517 73.4783 208.24 73.7023 208.016C73.9263 207.792 74.2036 207.68 74.5343 207.68C74.8543 207.68 75.1263 207.792 75.3503 208.016C75.5743 208.24 75.6863 208.517 75.6863 208.848C75.6863 209.179 75.5743 209.456 75.3503 209.68C75.1263 209.904 74.8543 210.016 74.5343 210.016ZM75.4303 211.184V220H73.6063V211.184H75.4303ZM79.953 212.672V217.552C79.953 217.883 80.0277 218.123 80.177 218.272C80.337 218.411 80.6037 218.48 80.977 218.48H82.097V220H80.657C79.8357 220 79.2063 219.808 78.769 219.424C78.3317 219.04 78.113 218.416 78.113 217.552V212.672H77.073V211.184H78.113V208.992H79.953V211.184H82.097V212.672H79.953ZM86.9781 220.144C86.2848 220.144 85.6608 220.021 85.1061 219.776C84.5621 219.52 84.1301 219.179 83.8101 218.752C83.4901 218.315 83.3195 217.829 83.2981 217.296H85.1861C85.2181 217.669 85.3941 217.984 85.7141 218.24C86.0448 218.485 86.4555 218.608 86.9461 218.608C87.4581 218.608 87.8528 218.512 88.1301 218.32C88.4181 218.117 88.5621 217.861 88.5621 217.552C88.5621 217.221 88.4021 216.976 88.0821 216.816C87.7728 216.656 87.2768 216.48 86.5941 216.288C85.9328 216.107 85.3941 215.931 84.9781 215.76C84.5621 215.589 84.1995 215.328 83.8901 214.976C83.5915 214.624 83.4421 214.16 83.4421 213.584C83.4421 213.115 83.5808 212.688 83.8581 212.304C84.1355 211.909 84.5301 211.6 85.0421 211.376C85.5648 211.152 86.1621 211.04 86.8341 211.04C87.8368 211.04 88.6421 211.296 89.2501 211.808C89.8688 212.309 90.1995 212.997 90.2421 213.872H88.4181C88.3861 213.477 88.2261 213.163 87.9381 212.928C87.6501 212.693 87.2608 212.576 86.7701 212.576C86.2901 212.576 85.9221 212.667 85.6661 212.848C85.4101 213.029 85.2821 213.269 85.2821 213.568C85.2821 213.803 85.3675 214 85.5381 214.16C85.7088 214.32 85.9168 214.448 86.1621 214.544C86.4075 214.629 86.7701 214.741 87.2501 214.88C87.8901 215.051 88.4128 215.227 88.8181 215.408C89.2341 215.579 89.5915 215.835 89.8901 216.176C90.1888 216.517 90.3435 216.971 90.3541 217.536C90.3541 218.037 90.2155 218.485 89.9381 218.88C89.6608 219.275 89.2661 219.584 88.7541 219.808C88.2528 220.032 87.6608 220.144 86.9781 220.144ZM100.405 215.376C100.405 215.707 100.384 216.005 100.341 216.272H93.605C93.6583 216.976 93.9197 217.541 94.389 217.968C94.8583 218.395 95.4343 218.608 96.117 218.608C97.0983 218.608 97.7917 218.197 98.197 217.376H100.165C99.8983 218.187 99.413 218.853 98.709 219.376C98.0157 219.888 97.1517 220.144 96.117 220.144C95.2743 220.144 94.517 219.957 93.845 219.584C93.1837 219.2 92.661 218.667 92.277 217.984C91.9037 217.291 91.717 216.491 91.717 215.584C91.717 214.677 91.8983 213.883 92.261 213.2C92.6343 212.507 93.1517 211.973 93.813 211.6C94.485 211.227 95.253 211.04 96.117 211.04C96.949 211.04 97.6903 211.221 98.341 211.584C98.9917 211.947 99.4983 212.459 99.861 213.12C100.224 213.771 100.405 214.523 100.405 215.376ZM98.501 214.8C98.4903 214.128 98.2503 213.589 97.781 213.184C97.3117 212.779 96.7303 212.576 96.037 212.576C95.4077 212.576 94.869 212.779 94.421 213.184C93.973 213.579 93.7063 214.117 93.621 214.8H98.501ZM104.024 208.16V220H102.2V208.16H104.024ZM110.115 212.672H108.483V220H106.643V212.672H105.603V211.184H106.643V210.56C106.643 209.547 106.909 208.811 107.443 208.352C107.987 207.883 108.835 207.648 109.987 207.648V209.168C109.432 209.168 109.043 209.275 108.819 209.488C108.595 209.691 108.483 210.048 108.483 210.56V211.184H110.115V212.672ZM115.28 215.552C115.28 214.667 115.461 213.883 115.824 213.2C116.197 212.517 116.698 211.989 117.328 211.616C117.968 211.232 118.677 211.04 119.456 211.04C120.032 211.04 120.597 211.168 121.152 211.424C121.717 211.669 122.165 212 122.496 212.416V208.16H124.336V220H122.496V218.672C122.197 219.099 121.781 219.451 121.248 219.728C120.725 220.005 120.122 220.144 119.44 220.144C118.672 220.144 117.968 219.952 117.328 219.568C116.698 219.173 116.197 218.629 115.824 217.936C115.461 217.232 115.28 216.437 115.28 215.552ZM122.496 215.584C122.496 214.976 122.368 214.448 122.112 214C121.866 213.552 121.541 213.211 121.136 212.976C120.73 212.741 120.293 212.624 119.824 212.624C119.354 212.624 118.917 212.741 118.512 212.976C118.106 213.2 117.776 213.536 117.52 213.984C117.274 214.421 117.152 214.944 117.152 215.552C117.152 216.16 117.274 216.693 117.52 217.152C117.776 217.611 118.106 217.963 118.512 218.208C118.928 218.443 119.365 218.56 119.824 218.56C120.293 218.56 120.73 218.443 121.136 218.208C121.541 217.973 121.866 217.632 122.112 217.184C122.368 216.725 122.496 216.192 122.496 215.584ZM130.555 220.144C129.723 220.144 128.971 219.957 128.299 219.584C127.627 219.2 127.099 218.667 126.715 217.984C126.331 217.291 126.139 216.491 126.139 215.584C126.139 214.688 126.337 213.893 126.731 213.2C127.126 212.507 127.665 211.973 128.347 211.6C129.03 211.227 129.793 211.04 130.635 211.04C131.478 211.04 132.241 211.227 132.923 211.6C133.606 211.973 134.145 212.507 134.539 213.2C134.934 213.893 135.131 214.688 135.131 215.584C135.131 216.48 134.929 217.275 134.523 217.968C134.118 218.661 133.563 219.2 132.859 219.584C132.166 219.957 131.398 220.144 130.555 220.144ZM130.555 218.56C131.025 218.56 131.462 218.448 131.867 218.224C132.283 218 132.619 217.664 132.875 217.216C133.131 216.768 133.259 216.224 133.259 215.584C133.259 214.944 133.137 214.405 132.891 213.968C132.646 213.52 132.321 213.184 131.915 212.96C131.51 212.736 131.073 212.624 130.603 212.624C130.134 212.624 129.697 212.736 129.291 212.96C128.897 213.184 128.582 213.52 128.347 213.968C128.113 214.405 127.995 214.944 127.995 215.584C127.995 216.533 128.235 217.269 128.715 217.792C129.206 218.304 129.819 218.56 130.555 218.56ZM142.019 210.016C141.688 210.016 141.411 209.904 141.187 209.68C140.963 209.456 140.851 209.179 140.851 208.848C140.851 208.517 140.963 208.24 141.187 208.016C141.411 207.792 141.688 207.68 142.019 207.68C142.339 207.68 142.611 207.792 142.835 208.016C143.059 208.24 143.171 208.517 143.171 208.848C143.171 209.179 143.059 209.456 142.835 209.68C142.611 209.904 142.339 210.016 142.019 210.016ZM142.915 211.184V220H141.091V211.184H142.915ZM149.757 211.04C150.451 211.04 151.069 211.184 151.613 211.472C152.168 211.76 152.6 212.187 152.909 212.752C153.219 213.317 153.373 214 153.373 214.8V220H151.565V215.072C151.565 214.283 151.368 213.68 150.973 213.264C150.579 212.837 150.04 212.624 149.357 212.624C148.675 212.624 148.131 212.837 147.725 213.264C147.331 213.68 147.133 214.283 147.133 215.072V220H145.309V211.184H147.133V212.192C147.432 211.829 147.811 211.547 148.269 211.344C148.739 211.141 149.235 211.04 149.757 211.04ZM160.784 210.016C160.454 210.016 160.176 209.904 159.952 209.68C159.728 209.456 159.616 209.179 159.616 208.848C159.616 208.517 159.728 208.24 159.952 208.016C160.176 207.792 160.454 207.68 160.784 207.68C161.104 207.68 161.376 207.792 161.6 208.016C161.824 208.24 161.936 208.517 161.936 208.848C161.936 209.179 161.824 209.456 161.6 209.68C161.376 209.904 161.104 210.016 160.784 210.016ZM161.68 211.184V220H159.856V211.184H161.68ZM166.203 212.672V217.552C166.203 217.883 166.278 218.123 166.427 218.272C166.587 218.411 166.854 218.48 167.227 218.48H168.347V220H166.907C166.086 220 165.456 219.808 165.019 219.424C164.582 219.04 164.363 218.416 164.363 217.552V212.672H163.323V211.184H164.363V208.992H166.203V211.184H168.347V212.672H166.203ZM170.764 220.112C170.433 220.112 170.156 220 169.932 219.776C169.708 219.552 169.596 219.275 169.596 218.944C169.596 218.613 169.708 218.336 169.932 218.112C170.156 217.888 170.433 217.776 170.764 217.776C171.084 217.776 171.356 217.888 171.58 218.112C171.804 218.336 171.916 218.613 171.916 218.944C171.916 219.275 171.804 219.552 171.58 219.776C171.356 220 171.084 220.112 170.764 220.112Z" fill="#5E6282"/>
<path d="M8.22266 115.52C6.88151 115.52 5.82682 115.995 5.05859 116.945C4.29036 117.896 3.90625 119.208 3.90625 120.881C3.90625 122.632 4.27409 123.957 5.00977 124.855C5.75195 125.754 6.82292 126.203 8.22266 126.203C8.82812 126.203 9.41406 126.145 9.98047 126.027C10.5469 125.904 11.1361 125.747 11.748 125.559V127.561C10.6283 127.984 9.35872 128.195 7.93945 128.195C5.84961 128.195 4.24479 127.564 3.125 126.301C2.00521 125.031 1.44531 123.218 1.44531 120.861C1.44531 119.377 1.71549 118.078 2.25586 116.965C2.80273 115.852 3.59049 114.999 4.61914 114.406C5.64779 113.814 6.85547 113.518 8.24219 113.518C9.70052 113.518 11.0482 113.824 12.2852 114.436L11.4453 116.379C10.9635 116.151 10.4525 115.952 9.91211 115.783C9.37826 115.607 8.8151 115.52 8.22266 115.52ZM21.3379 128L20.8789 126.496H20.8008C20.2799 127.154 19.7559 127.603 19.2285 127.844C18.7012 128.078 18.0241 128.195 17.1973 128.195C16.1361 128.195 15.306 127.909 14.707 127.336C14.1146 126.763 13.8184 125.952 13.8184 124.904C13.8184 123.791 14.2318 122.951 15.0586 122.385C15.8854 121.818 17.1452 121.509 18.8379 121.457L20.7031 121.398V120.822C20.7031 120.132 20.5404 119.618 20.2148 119.279C19.8958 118.934 19.3978 118.762 18.7207 118.762C18.1673 118.762 17.6367 118.843 17.1289 119.006C16.6211 119.169 16.1328 119.361 15.6641 119.582L14.9219 117.941C15.5078 117.635 16.1491 117.404 16.8457 117.248C17.5423 117.085 18.1999 117.004 18.8184 117.004C20.1921 117.004 21.2272 117.303 21.9238 117.902C22.627 118.501 22.9785 119.442 22.9785 120.725V128H21.3379ZM17.9199 126.438C18.7533 126.438 19.4206 126.206 19.9219 125.744C20.4297 125.275 20.6836 124.621 20.6836 123.781V122.844L19.2969 122.902C18.2161 122.941 17.4284 123.124 16.9336 123.449C16.4453 123.768 16.2012 124.26 16.2012 124.924C16.2012 125.406 16.3444 125.78 16.6309 126.047C16.9173 126.307 17.347 126.438 17.9199 126.438ZM28.4766 128H26.1816V112.805H28.4766V128ZM36.123 128.195C34.4889 128.195 33.2454 127.72 32.3926 126.77C31.5462 125.812 31.123 124.442 31.123 122.658C31.123 120.842 31.5658 119.445 32.4512 118.469C33.3431 117.492 34.6289 117.004 36.3086 117.004C37.4479 117.004 38.4733 117.215 39.3848 117.639L38.6914 119.484C37.7214 119.107 36.9206 118.918 36.2891 118.918C34.4206 118.918 33.4863 120.158 33.4863 122.639C33.4863 123.85 33.7174 124.761 34.1797 125.373C34.6484 125.979 35.332 126.281 36.2305 126.281C37.2526 126.281 38.2194 126.027 39.1309 125.52V127.521C38.7207 127.762 38.2812 127.935 37.8125 128.039C37.3503 128.143 36.7871 128.195 36.123 128.195ZM49.2871 128L48.9648 126.584H48.8477C48.5286 127.085 48.0729 127.479 47.4805 127.766C46.8945 128.052 46.224 128.195 45.4688 128.195C44.1602 128.195 43.1836 127.87 42.5391 127.219C41.8945 126.568 41.5723 125.581 41.5723 124.26V117.199H43.8867V123.859C43.8867 124.686 44.056 125.308 44.3945 125.725C44.7331 126.135 45.2637 126.34 45.9863 126.34C46.9499 126.34 47.6562 126.053 48.1055 125.48C48.5612 124.901 48.7891 123.934 48.7891 122.58V117.199H51.0938V128H49.2871ZM56.6602 128H54.3652V112.805H56.6602V128ZM66.709 128L66.25 126.496H66.1719C65.651 127.154 65.127 127.603 64.5996 127.844C64.0723 128.078 63.3952 128.195 62.5684 128.195C61.5072 128.195 60.6771 127.909 60.0781 127.336C59.4857 126.763 59.1895 125.952 59.1895 124.904C59.1895 123.791 59.6029 122.951 60.4297 122.385C61.2565 121.818 62.5163 121.509 64.209 121.457L66.0742 121.398V120.822C66.0742 120.132 65.9115 119.618 65.5859 119.279C65.2669 118.934 64.7689 118.762 64.0918 118.762C63.5384 118.762 63.0078 118.843 62.5 119.006C61.9922 119.169 61.5039 119.361 61.0352 119.582L60.293 117.941C60.8789 117.635 61.5202 117.404 62.2168 117.248C62.9134 117.085 63.571 117.004 64.1895 117.004C65.5632 117.004 66.5983 117.303 67.2949 117.902C67.998 118.501 68.3496 119.442 68.3496 120.725V128H66.709ZM63.291 126.438C64.1243 126.438 64.7917 126.206 65.293 125.744C65.8008 125.275 66.0547 124.621 66.0547 123.781V122.844L64.668 122.902C63.5872 122.941 62.7995 123.124 62.3047 123.449C61.8164 123.768 61.5723 124.26 61.5723 124.924C61.5723 125.406 61.7155 125.78 62.002 126.047C62.2884 126.307 62.7181 126.438 63.291 126.438ZM75.5762 126.34C76.1361 126.34 76.696 126.252 77.2559 126.076V127.805C77.002 127.915 76.6732 128.007 76.2695 128.078C75.8724 128.156 75.459 128.195 75.0293 128.195C72.8548 128.195 71.7676 127.049 71.7676 124.758V118.938H70.293V117.922L71.875 117.082L72.6562 114.797H74.0723V117.199H77.1484V118.938H74.0723V124.719C74.0723 125.272 74.209 125.682 74.4824 125.949C74.7624 126.21 75.127 126.34 75.5762 126.34ZM84.1406 128.195C82.4609 128.195 81.1458 127.707 80.1953 126.73C79.2513 125.747 78.7793 124.396 78.7793 122.678C78.7793 120.913 79.2188 119.527 80.0977 118.518C80.9766 117.508 82.1842 117.004 83.7207 117.004C85.1465 117.004 86.2728 117.437 87.0996 118.303C87.9264 119.169 88.3398 120.36 88.3398 121.877V123.117H81.1426C81.1751 124.165 81.4583 124.973 81.9922 125.539C82.526 126.099 83.278 126.379 84.248 126.379C84.8861 126.379 85.4785 126.32 86.0254 126.203C86.5788 126.079 87.1712 125.878 87.8027 125.598V127.463C87.2428 127.73 86.6764 127.919 86.1035 128.029C85.5306 128.14 84.8763 128.195 84.1406 128.195ZM83.7207 118.742C82.9915 118.742 82.4056 118.973 81.9629 119.436C81.5267 119.898 81.2663 120.572 81.1816 121.457H86.084C86.071 120.565 85.8561 119.891 85.4395 119.436C85.0228 118.973 84.4499 118.742 83.7207 118.742ZM94.5898 128.195C93.2422 128.195 92.1908 127.707 91.4355 126.73C90.6803 125.754 90.3027 124.383 90.3027 122.619C90.3027 120.848 90.6836 119.471 91.4453 118.488C92.2135 117.499 93.2747 117.004 94.6289 117.004C96.0482 117.004 97.1289 117.528 97.8711 118.576H97.9883C97.8776 117.801 97.8223 117.189 97.8223 116.74V112.805H100.127V128H98.3301L97.9297 126.584H97.8223C97.0866 127.658 96.0091 128.195 94.5898 128.195ZM95.2051 126.34C96.1491 126.34 96.8359 126.076 97.2656 125.549C97.6953 125.015 97.9167 124.152 97.9297 122.961V122.639C97.9297 121.278 97.7083 120.311 97.2656 119.738C96.8229 119.165 96.1296 118.879 95.1855 118.879C94.3783 118.879 93.7565 119.208 93.3203 119.865C92.8841 120.516 92.666 121.447 92.666 122.658C92.666 123.856 92.8776 124.771 93.3008 125.402C93.724 126.027 94.3587 126.34 95.2051 126.34ZM122.021 128H119.482L117.061 119.484C116.956 119.113 116.826 118.579 116.67 117.883C116.514 117.18 116.419 116.691 116.387 116.418C116.322 116.835 116.214 117.375 116.064 118.039C115.921 118.703 115.801 119.198 115.703 119.523L113.34 128H110.801L108.955 120.852L107.08 113.723H109.463L111.504 122.043C111.823 123.378 112.051 124.556 112.188 125.578C112.259 125.025 112.367 124.406 112.51 123.723C112.653 123.039 112.783 122.486 112.9 122.062L115.225 113.723H117.539L119.922 122.102C120.15 122.876 120.391 124.035 120.645 125.578C120.742 124.647 120.977 123.462 121.348 122.023L123.379 113.723H125.742L122.021 128ZM132.246 128.195C130.566 128.195 129.251 127.707 128.301 126.73C127.357 125.747 126.885 124.396 126.885 122.678C126.885 120.913 127.324 119.527 128.203 118.518C129.082 117.508 130.29 117.004 131.826 117.004C133.252 117.004 134.378 117.437 135.205 118.303C136.032 119.169 136.445 120.36 136.445 121.877V123.117H129.248C129.281 124.165 129.564 124.973 130.098 125.539C130.632 126.099 131.383 126.379 132.354 126.379C132.992 126.379 133.584 126.32 134.131 126.203C134.684 126.079 135.277 125.878 135.908 125.598V127.463C135.348 127.73 134.782 127.919 134.209 128.029C133.636 128.14 132.982 128.195 132.246 128.195ZM131.826 118.742C131.097 118.742 130.511 118.973 130.068 119.436C129.632 119.898 129.372 120.572 129.287 121.457H134.189C134.176 120.565 133.962 119.891 133.545 119.436C133.128 118.973 132.555 118.742 131.826 118.742ZM145.811 128L145.352 126.496H145.273C144.753 127.154 144.229 127.603 143.701 127.844C143.174 128.078 142.497 128.195 141.67 128.195C140.609 128.195 139.779 127.909 139.18 127.336C138.587 126.763 138.291 125.952 138.291 124.904C138.291 123.791 138.704 122.951 139.531 122.385C140.358 121.818 141.618 121.509 143.311 121.457L145.176 121.398V120.822C145.176 120.132 145.013 119.618 144.688 119.279C144.368 118.934 143.87 118.762 143.193 118.762C142.64 118.762 142.109 118.843 141.602 119.006C141.094 119.169 140.605 119.361 140.137 119.582L139.395 117.941C139.98 117.635 140.622 117.404 141.318 117.248C142.015 117.085 142.673 117.004 143.291 117.004C144.665 117.004 145.7 117.303 146.396 117.902C147.1 118.501 147.451 119.442 147.451 120.725V128H145.811ZM142.393 126.438C143.226 126.438 143.893 126.206 144.395 125.744C144.902 125.275 145.156 124.621 145.156 123.781V122.844L143.77 122.902C142.689 122.941 141.901 123.124 141.406 123.449C140.918 123.768 140.674 124.26 140.674 124.924C140.674 125.406 140.817 125.78 141.104 126.047C141.39 126.307 141.82 126.438 142.393 126.438ZM154.678 126.34C155.238 126.34 155.798 126.252 156.357 126.076V127.805C156.104 127.915 155.775 128.007 155.371 128.078C154.974 128.156 154.561 128.195 154.131 128.195C151.956 128.195 150.869 127.049 150.869 124.758V118.938H149.395V117.922L150.977 117.082L151.758 114.797H153.174V117.199H156.25V118.938H153.174V124.719C153.174 125.272 153.311 125.682 153.584 125.949C153.864 126.21 154.229 126.34 154.678 126.34ZM168.027 128H165.723V121.359C165.723 120.526 165.553 119.904 165.215 119.494C164.883 119.084 164.352 118.879 163.623 118.879C162.66 118.879 161.95 119.169 161.494 119.748C161.045 120.321 160.82 121.285 160.82 122.639V128H158.525V112.805H160.82V116.662C160.82 117.281 160.781 117.941 160.703 118.645H160.85C161.162 118.124 161.595 117.72 162.148 117.434C162.708 117.147 163.359 117.004 164.102 117.004C166.719 117.004 168.027 118.322 168.027 120.959V128ZM175.938 128.195C174.258 128.195 172.943 127.707 171.992 126.73C171.048 125.747 170.576 124.396 170.576 122.678C170.576 120.913 171.016 119.527 171.895 118.518C172.773 117.508 173.981 117.004 175.518 117.004C176.943 117.004 178.07 117.437 178.896 118.303C179.723 119.169 180.137 120.36 180.137 121.877V123.117H172.939C172.972 124.165 173.255 124.973 173.789 125.539C174.323 126.099 175.075 126.379 176.045 126.379C176.683 126.379 177.275 126.32 177.822 126.203C178.376 126.079 178.968 125.878 179.6 125.598V127.463C179.04 127.73 178.473 127.919 177.9 128.029C177.327 128.14 176.673 128.195 175.938 128.195ZM175.518 118.742C174.788 118.742 174.202 118.973 173.76 119.436C173.324 119.898 173.063 120.572 172.979 121.457H177.881C177.868 120.565 177.653 119.891 177.236 119.436C176.82 118.973 176.247 118.742 175.518 118.742ZM188.223 117.004C188.685 117.004 189.066 117.036 189.365 117.102L189.141 119.24C188.815 119.162 188.477 119.123 188.125 119.123C187.207 119.123 186.462 119.423 185.889 120.021C185.322 120.62 185.039 121.398 185.039 122.355V128H182.744V117.199H184.541L184.844 119.104H184.961C185.319 118.459 185.785 117.948 186.357 117.57C186.937 117.193 187.559 117.004 188.223 117.004Z" fill="#1E1D4C"/>
</svg>
