<svg width="181" height="216" viewBox="0 0 181 216" fill="none" xmlns="http://www.w3.org/2000/svg">
<path d="M90 48C90 57.9411 98.0589 66 108 66L135 66C137.761 66 140 63.7614 140 61L140 27C140 21.4772 135.523 17 130 17L95 17C92.2386 17 90 19.2386 90 22L90 48Z" fill="#FFF1DA"/>
<path d="M113 27.8482V22.1518C113 21.0351 112.095 20.1299 110.978 20.1299H108.799C107.928 20.1299 107.155 19.5717 106.881 18.7448C106.576 17.8235 106.206 16.9322 105.775 16.0763C105.383 15.2967 105.533 14.3542 106.15 13.7371L107.692 12.1957C108.481 11.406 108.481 10.1259 107.692 9.33622L103.664 5.30825C102.874 4.51861 101.594 4.51861 100.804 5.30825L99.2628 6.8497C98.6457 7.4668 97.7032 7.6168 96.9236 7.22465C96.0677 6.79406 95.1763 6.42344 94.2551 6.11841C93.4281 5.84457 92.87 5.07163 92.87 4.2005V2.02193C92.87 0.905231 91.9648 0 90.8481 0H85.1517C84.035 0 83.1298 0.905231 83.1298 2.02193V4.2006C83.1298 5.07173 82.5716 5.84467 81.7447 6.11851C80.8234 6.42354 79.9321 6.79416 79.0761 7.22475C78.2966 7.6169 77.3541 7.4668 76.737 6.8498L75.1956 5.30835C74.4059 4.51871 73.1257 4.51871 72.3361 5.30835L68.3083 9.33632C67.5187 10.126 67.5187 11.4061 68.3083 12.1958L69.8498 13.7372C70.4668 14.3543 70.6169 15.2968 70.2247 16.0764C69.7941 16.9323 69.4235 17.8236 69.1185 18.7449C68.9249 19.3293 68.4822 19.7794 67.9317 19.9932C67.7032 20.0819 67.5567 20.2305 67.3012 20.2305H65.1225C64.0058 20.2305 63.1006 21.1357 63.1006 22.2524V27.7476C63.1006 28.8643 64.0058 29.7695 65.1225 29.7695H67.3012C68.1723 29.7695 68.9453 30.4283 69.2191 31.2552C69.5241 32.1765 69.8948 33.0677 70.3253 33.9237C70.7175 34.7033 70.5674 35.6458 69.9504 36.2629L68.5095 37.8043C67.7199 38.594 67.7199 39.8741 68.5095 40.6638L72.3363 44.4905C73.1259 45.2802 74.4061 45.2802 75.1958 44.4905L76.7372 42.9491C77.3542 42.332 78.2968 42.182 79.0763 42.5741C79.9323 43.0047 81.0248 43.476 81.9461 43.781C82.773 44.0548 83.3312 44.8278 83.3312 45.6989V47.8776C83.3312 48.9943 84.2364 49.8995 85.3531 49.8995H90.7477C91.8644 49.8995 92.7696 48.9943 92.7696 47.8776V45.6989C92.7696 45.4434 92.9182 45.2969 93.0069 45.0684C93.2207 44.5179 93.6709 44.0752 94.2552 43.8816C95.1764 43.5766 96.0678 43.2059 96.9237 42.7754C97.7033 42.3832 98.6458 42.5333 99.2629 43.1503L100.804 44.6917C101.594 45.4814 102.874 45.4814 103.664 44.6917L107.692 40.6638C108.481 39.8741 108.481 38.594 107.692 37.8043L106.15 36.2629C105.533 35.6458 105.383 34.7033 105.775 33.9237C106.206 33.0678 106.577 32.1765 106.882 31.2552C107.155 30.4283 107.928 29.8701 108.799 29.8701H110.978C112.095 29.8701 113 28.9649 113 27.8482V27.8482Z" fill="#B6C4CF"/>
<path d="M93.007 45.0684C92.9185 45.2967 92.8702 45.5442 92.8702 45.7998V47.9778C92.8702 49.0945 91.9648 50 90.8481 50H85.1519C84.0352 50 83.1298 49.0945 83.1298 47.9778V45.7998C83.1298 44.9285 82.5714 44.1549 81.7445 43.8812C80.8239 43.5764 79.9326 43.2062 79.0765 42.7756C78.2968 42.3833 77.3541 42.5332 76.7374 43.1499L75.1962 44.6911C74.4064 45.4808 73.1258 45.4808 72.336 44.6911L68.3078 40.6639C67.5191 39.8742 67.5191 38.5935 68.3078 37.8038L69.8501 36.2625C70.4668 35.6458 70.6167 34.7032 70.2243 33.9235C69.7938 33.0674 69.4235 32.176 69.1187 31.2555C68.8451 30.4285 68.0714 29.8702 67.2002 29.8702H65.0221C63.9054 29.8702 63 28.9648 63 27.8481V22.1519C63 21.0352 63.9054 20.1297 65.0221 20.1297H67.2002C67.4557 20.1297 67.7032 20.0815 67.9316 19.9929C67.9296 20.1187 67.9286 20.2454 67.9286 20.3722C67.9286 34.013 78.9869 45.0714 92.6278 45.0714C92.7545 45.0714 92.8813 45.0704 93.007 45.0684V45.0684Z" fill="#9FACBA"/>
<path d="M88 41.5996C97.1677 41.5996 104.6 34.1677 104.6 25C104.6 15.8323 97.1677 8.40039 88 8.40039C78.8323 8.40039 71.4004 15.8323 71.4004 25C71.4004 34.1677 78.8323 41.5996 88 41.5996Z" fill="#9FACBA"/>
<path d="M87.9999 38.0784C95.2229 38.0784 101.078 32.223 101.078 25C101.078 17.7769 95.2229 11.9215 87.9999 11.9215C80.7768 11.9215 74.9214 17.7769 74.9214 25C74.9214 32.223 80.7768 38.0784 87.9999 38.0784Z" fill="#F8F7F7"/>
<path d="M15.8284 145.88L12.5324 157H10.4684L8.13244 148.584L5.65244 157L3.60444 157.016L0.452438 145.88H2.38844L4.69244 154.936L7.18844 145.88H9.23644L11.5564 154.888L13.8764 145.88H15.8284ZM25.4128 152.376C25.4128 152.707 25.3915 153.005 25.3488 153.272H18.6128C18.6661 153.976 18.9275 154.541 19.3968 154.968C19.8661 155.395 20.4421 155.608 21.1248 155.608C22.1061 155.608 22.7995 155.197 23.2048 154.376H25.1728C24.9061 155.187 24.4208 155.853 23.7168 156.376C23.0235 156.888 22.1595 157.144 21.1248 157.144C20.2821 157.144 19.5248 156.957 18.8528 156.584C18.1915 156.2 17.6688 155.667 17.2848 154.984C16.9115 154.291 16.7248 153.491 16.7248 152.584C16.7248 151.677 16.9061 150.883 17.2688 150.2C17.6421 149.507 18.1595 148.973 18.8208 148.6C19.4928 148.227 20.2608 148.04 21.1248 148.04C21.9568 148.04 22.6981 148.221 23.3488 148.584C23.9995 148.947 24.5061 149.459 24.8688 150.12C25.2315 150.771 25.4128 151.523 25.4128 152.376ZM23.5088 151.8C23.4981 151.128 23.2581 150.589 22.7888 150.184C22.3195 149.779 21.7381 149.576 21.0448 149.576C20.4155 149.576 19.8768 149.779 19.4288 150.184C18.9808 150.579 18.7141 151.117 18.6288 151.8H23.5088ZM30.7561 152.552C30.7561 151.667 30.9374 150.883 31.3001 150.2C31.6734 149.517 32.1747 148.989 32.8041 148.616C33.4441 148.232 34.1534 148.04 34.9321 148.04C35.5081 148.04 36.0734 148.168 36.6281 148.424C37.1934 148.669 37.6414 149 37.9721 149.416V145.16H39.8121V157H37.9721V155.672C37.6734 156.099 37.2574 156.451 36.7241 156.728C36.2014 157.005 35.5987 157.144 34.9161 157.144C34.1481 157.144 33.4441 156.952 32.8041 156.568C32.1747 156.173 31.6734 155.629 31.3001 154.936C30.9374 154.232 30.7561 153.437 30.7561 152.552ZM37.9721 152.584C37.9721 151.976 37.8441 151.448 37.5881 151C37.3427 150.552 37.0174 150.211 36.6121 149.976C36.2067 149.741 35.7694 149.624 35.3001 149.624C34.8307 149.624 34.3934 149.741 33.9881 149.976C33.5827 150.2 33.2521 150.536 32.9961 150.984C32.7507 151.421 32.6281 151.944 32.6281 152.552C32.6281 153.16 32.7507 153.693 32.9961 154.152C33.2521 154.611 33.5827 154.963 33.9881 155.208C34.4041 155.443 34.8414 155.56 35.3001 155.56C35.7694 155.56 36.2067 155.443 36.6121 155.208C37.0174 154.973 37.3427 154.632 37.5881 154.184C37.8441 153.725 37.9721 153.192 37.9721 152.584ZM50.2878 152.376C50.2878 152.707 50.2665 153.005 50.2238 153.272H43.4878C43.5411 153.976 43.8025 154.541 44.2718 154.968C44.7411 155.395 45.3171 155.608 45.9998 155.608C46.9811 155.608 47.6745 155.197 48.0798 154.376H50.0478C49.7811 155.187 49.2958 155.853 48.5918 156.376C47.8985 156.888 47.0345 157.144 45.9998 157.144C45.1571 157.144 44.3998 156.957 43.7278 156.584C43.0665 156.2 42.5438 155.667 42.1598 154.984C41.7865 154.291 41.5998 153.491 41.5998 152.584C41.5998 151.677 41.7811 150.883 42.1438 150.2C42.5171 149.507 43.0345 148.973 43.6958 148.6C44.3678 148.227 45.1358 148.04 45.9998 148.04C46.8318 148.04 47.5731 148.221 48.2238 148.584C48.8745 148.947 49.3811 149.459 49.7438 150.12C50.1065 150.771 50.2878 151.523 50.2878 152.376ZM48.3838 151.8C48.3731 151.128 48.1331 150.589 47.6638 150.184C47.1945 149.779 46.6131 149.576 45.9198 149.576C45.2905 149.576 44.7518 149.779 44.3038 150.184C43.8558 150.579 43.5891 151.117 43.5038 151.8H48.3838ZM53.9068 145.16V157H52.0828V145.16H53.9068ZM57.2296 147.016C56.8989 147.016 56.6216 146.904 56.3976 146.68C56.1736 146.456 56.0616 146.179 56.0616 145.848C56.0616 145.517 56.1736 145.24 56.3976 145.016C56.6216 144.792 56.8989 144.68 57.2296 144.68C57.5496 144.68 57.8216 144.792 58.0456 145.016C58.2696 145.24 58.3816 145.517 58.3816 145.848C58.3816 146.179 58.2696 146.456 58.0456 146.68C57.8216 146.904 57.5496 147.016 57.2296 147.016ZM58.1256 148.184V157H56.3016V148.184H58.1256ZM63.9283 155.368L66.4243 148.184H68.3603L65.0003 157H62.8243L59.4803 148.184H61.4323L63.9283 155.368ZM77.8191 152.376C77.8191 152.707 77.7977 153.005 77.7551 153.272H71.0191C71.0724 153.976 71.3337 154.541 71.8031 154.968C72.2724 155.395 72.8484 155.608 73.5311 155.608C74.5124 155.608 75.2057 155.197 75.6111 154.376H77.5791C77.3124 155.187 76.8271 155.853 76.1231 156.376C75.4297 156.888 74.5657 157.144 73.5311 157.144C72.6884 157.144 71.9311 156.957 71.2591 156.584C70.5977 156.2 70.0751 155.667 69.6911 154.984C69.3177 154.291 69.1311 153.491 69.1311 152.584C69.1311 151.677 69.3124 150.883 69.6751 150.2C70.0484 149.507 70.5657 148.973 71.2271 148.6C71.8991 148.227 72.6671 148.04 73.5311 148.04C74.3631 148.04 75.1044 148.221 75.7551 148.584C76.4057 148.947 76.9124 149.459 77.2751 150.12C77.6377 150.771 77.8191 151.523 77.8191 152.376ZM75.9151 151.8C75.9044 151.128 75.6644 150.589 75.1951 150.184C74.7257 149.779 74.1444 149.576 73.4511 149.576C72.8217 149.576 72.2831 149.779 71.8351 150.184C71.3871 150.579 71.1204 151.117 71.0351 151.8H75.9151ZM81.4381 149.464C81.7047 149.016 82.0567 148.669 82.4941 148.424C82.9421 148.168 83.4701 148.04 84.0781 148.04V149.928H83.6141C82.8994 149.928 82.3554 150.109 81.9821 150.472C81.6194 150.835 81.4381 151.464 81.4381 152.36V157H79.6141V148.184H81.4381V149.464ZM93.7349 157.144C92.9029 157.144 92.1509 156.957 91.4789 156.584C90.8069 156.2 90.2789 155.667 89.8949 154.984C89.5109 154.291 89.3189 153.491 89.3189 152.584C89.3189 151.688 89.5163 150.893 89.9109 150.2C90.3056 149.507 90.8443 148.973 91.5269 148.6C92.2096 148.227 92.9723 148.04 93.8149 148.04C94.6576 148.04 95.4203 148.227 96.1029 148.6C96.7856 148.973 97.3243 149.507 97.7189 150.2C98.1136 150.893 98.3109 151.688 98.3109 152.584C98.3109 153.48 98.1083 154.275 97.7029 154.968C97.2976 155.661 96.7429 156.2 96.0389 156.584C95.3456 156.957 94.5776 157.144 93.7349 157.144ZM93.7349 155.56C94.2043 155.56 94.6416 155.448 95.0469 155.224C95.4629 155 95.7989 154.664 96.0549 154.216C96.3109 153.768 96.4389 153.224 96.4389 152.584C96.4389 151.944 96.3163 151.405 96.0709 150.968C95.8256 150.52 95.5003 150.184 95.0949 149.96C94.6896 149.736 94.2523 149.624 93.7829 149.624C93.3136 149.624 92.8763 149.736 92.4709 149.96C92.0763 150.184 91.7616 150.52 91.5269 150.968C91.2923 151.405 91.1749 151.944 91.1749 152.584C91.1749 153.533 91.4149 154.269 91.8949 154.792C92.3856 155.304 92.9989 155.56 93.7349 155.56ZM108.098 148.184V157H106.274V155.96C105.986 156.323 105.607 156.611 105.138 156.824C104.679 157.027 104.189 157.128 103.666 157.128C102.973 157.128 102.349 156.984 101.794 156.696C101.25 156.408 100.818 155.981 100.498 155.416C100.189 154.851 100.034 154.168 100.034 153.368V148.184H101.842V153.096C101.842 153.885 102.039 154.493 102.434 154.92C102.829 155.336 103.367 155.544 104.05 155.544C104.733 155.544 105.271 155.336 105.666 154.92C106.071 154.493 106.274 153.885 106.274 153.096V148.184H108.098ZM112.633 149.672V154.552C112.633 154.883 112.707 155.123 112.857 155.272C113.017 155.411 113.283 155.48 113.657 155.48H114.777V157H113.337C112.515 157 111.886 156.808 111.449 156.424C111.011 156.04 110.793 155.416 110.793 154.552V149.672H109.753V148.184H110.793V145.992H112.633V148.184H114.777V149.672H112.633ZM119.658 157.144C118.964 157.144 118.34 157.021 117.786 156.776C117.242 156.52 116.81 156.179 116.49 155.752C116.17 155.315 115.999 154.829 115.978 154.296H117.866C117.898 154.669 118.074 154.984 118.394 155.24C118.724 155.485 119.135 155.608 119.626 155.608C120.138 155.608 120.532 155.512 120.81 155.32C121.098 155.117 121.242 154.861 121.242 154.552C121.242 154.221 121.082 153.976 120.762 153.816C120.452 153.656 119.956 153.48 119.274 153.288C118.612 153.107 118.074 152.931 117.658 152.76C117.242 152.589 116.879 152.328 116.57 151.976C116.271 151.624 116.122 151.16 116.122 150.584C116.122 150.115 116.26 149.688 116.538 149.304C116.815 148.909 117.21 148.6 117.722 148.376C118.244 148.152 118.842 148.04 119.514 148.04C120.516 148.04 121.322 148.296 121.93 148.808C122.548 149.309 122.879 149.997 122.922 150.872H121.098C121.066 150.477 120.906 150.163 120.618 149.928C120.33 149.693 119.94 149.576 119.45 149.576C118.97 149.576 118.602 149.667 118.346 149.848C118.09 150.029 117.962 150.269 117.962 150.568C117.962 150.803 118.047 151 118.218 151.16C118.388 151.32 118.596 151.448 118.842 151.544C119.087 151.629 119.45 151.741 119.93 151.88C120.57 152.051 121.092 152.227 121.498 152.408C121.914 152.579 122.271 152.835 122.57 153.176C122.868 153.517 123.023 153.971 123.034 154.536C123.034 155.037 122.895 155.485 122.618 155.88C122.34 156.275 121.946 156.584 121.434 156.808C120.932 157.032 120.34 157.144 119.658 157.144ZM128.829 157.144C127.997 157.144 127.245 156.957 126.573 156.584C125.901 156.2 125.373 155.667 124.989 154.984C124.605 154.291 124.413 153.491 124.413 152.584C124.413 151.688 124.61 150.893 125.005 150.2C125.399 149.507 125.938 148.973 126.621 148.6C127.303 148.227 128.066 148.04 128.909 148.04C129.751 148.04 130.514 148.227 131.197 148.6C131.879 148.973 132.418 149.507 132.813 150.2C133.207 150.893 133.405 151.688 133.405 152.584C133.405 153.48 133.202 154.275 132.797 154.968C132.391 155.661 131.837 156.2 131.133 156.584C130.439 156.957 129.671 157.144 128.829 157.144ZM128.829 155.56C129.298 155.56 129.735 155.448 130.141 155.224C130.557 155 130.893 154.664 131.149 154.216C131.405 153.768 131.533 153.224 131.533 152.584C131.533 151.944 131.41 151.405 131.165 150.968C130.919 150.52 130.594 150.184 130.189 149.96C129.783 149.736 129.346 149.624 128.877 149.624C128.407 149.624 127.97 149.736 127.565 149.96C127.17 150.184 126.855 150.52 126.621 150.968C126.386 151.405 126.269 151.944 126.269 152.584C126.269 153.533 126.509 154.269 126.989 154.792C127.479 155.304 128.093 155.56 128.829 155.56ZM143.192 148.184V157H141.368V155.96C141.08 156.323 140.701 156.611 140.232 156.824C139.773 157.027 139.282 157.128 138.76 157.128C138.066 157.128 137.442 156.984 136.888 156.696C136.344 156.408 135.912 155.981 135.592 155.416C135.282 154.851 135.128 154.168 135.128 153.368V148.184H136.936V153.096C136.936 153.885 137.133 154.493 137.528 154.92C137.922 155.336 138.461 155.544 139.144 155.544C139.826 155.544 140.365 155.336 140.76 154.92C141.165 154.493 141.368 153.885 141.368 153.096V148.184H143.192ZM147.422 149.464C147.689 149.016 148.041 148.669 148.478 148.424C148.926 148.168 149.454 148.04 150.062 148.04V149.928H149.598C148.884 149.928 148.34 150.109 147.966 150.472C147.604 150.835 147.422 151.464 147.422 152.36V157H145.598V148.184H147.422V149.464ZM151.131 152.584C151.131 151.677 151.312 150.883 151.675 150.2C152.048 149.507 152.56 148.973 153.211 148.6C153.862 148.227 154.608 148.04 155.451 148.04C156.518 148.04 157.398 148.296 158.091 148.808C158.795 149.309 159.27 150.029 159.515 150.968H157.547C157.387 150.531 157.131 150.189 156.779 149.944C156.427 149.699 155.984 149.576 155.451 149.576C154.704 149.576 154.107 149.843 153.659 150.376C153.222 150.899 153.003 151.635 153.003 152.584C153.003 153.533 153.222 154.275 153.659 154.808C154.107 155.341 154.704 155.608 155.451 155.608C156.507 155.608 157.206 155.144 157.547 154.216H159.515C159.259 155.112 158.779 155.827 158.075 156.36C157.371 156.883 156.496 157.144 155.451 157.144C154.608 157.144 153.862 156.957 153.211 156.584C152.56 156.2 152.048 155.667 151.675 154.984C151.312 154.291 151.131 153.491 151.131 152.584ZM169.413 152.376C169.413 152.707 169.391 153.005 169.349 153.272H162.613C162.666 153.976 162.927 154.541 163.397 154.968C163.866 155.395 164.442 155.608 165.125 155.608C166.106 155.608 166.799 155.197 167.205 154.376H169.173C168.906 155.187 168.421 155.853 167.717 156.376C167.023 156.888 166.159 157.144 165.125 157.144C164.282 157.144 163.525 156.957 162.853 156.584C162.191 156.2 161.669 155.667 161.285 154.984C160.911 154.291 160.725 153.491 160.725 152.584C160.725 151.677 160.906 150.883 161.269 150.2C161.642 149.507 162.159 148.973 162.821 148.6C163.493 148.227 164.261 148.04 165.125 148.04C165.957 148.04 166.698 148.221 167.349 148.584C167.999 148.947 168.506 149.459 168.869 150.12C169.231 150.771 169.413 151.523 169.413 152.376ZM167.509 151.8C167.498 151.128 167.258 150.589 166.789 150.184C166.319 149.779 165.738 149.576 165.045 149.576C164.415 149.576 163.877 149.779 163.429 150.184C162.981 150.579 162.714 151.117 162.629 151.8H167.509ZM170.6 152.552C170.6 151.667 170.781 150.883 171.144 150.2C171.517 149.517 172.018 148.989 172.648 148.616C173.288 148.232 173.997 148.04 174.776 148.04C175.352 148.04 175.917 148.168 176.472 148.424C177.037 148.669 177.485 149 177.816 149.416V145.16H179.656V157H177.816V155.672C177.517 156.099 177.101 156.451 176.568 156.728C176.045 157.005 175.442 157.144 174.76 157.144C173.992 157.144 173.288 156.952 172.648 156.568C172.018 156.173 171.517 155.629 171.144 154.936C170.781 154.232 170.6 153.437 170.6 152.552ZM177.816 152.584C177.816 151.976 177.688 151.448 177.432 151C177.186 150.552 176.861 150.211 176.456 149.976C176.05 149.741 175.613 149.624 175.144 149.624C174.674 149.624 174.237 149.741 173.832 149.976C173.426 150.2 173.096 150.536 172.84 150.984C172.594 151.421 172.472 151.944 172.472 152.552C172.472 153.16 172.594 153.693 172.84 154.152C173.096 154.611 173.426 154.963 173.832 155.208C174.248 155.443 174.685 155.56 175.144 155.56C175.613 155.56 176.05 155.443 176.456 155.208C176.861 154.973 177.186 154.632 177.432 154.184C177.688 153.725 177.816 153.192 177.816 152.584ZM10.1545 178.552C10.1545 177.667 10.3358 176.883 10.6985 176.2C11.0718 175.517 11.5732 174.989 12.2025 174.616C12.8425 174.232 13.5465 174.04 14.3145 174.04C15.0078 174.04 15.6105 174.179 16.1225 174.456C16.6452 174.723 17.0612 175.059 17.3705 175.464V174.184H19.2105V183H17.3705V181.688C17.0612 182.104 16.6398 182.451 16.1065 182.728C15.5732 183.005 14.9652 183.144 14.2825 183.144C13.5252 183.144 12.8318 182.952 12.2025 182.568C11.5732 182.173 11.0718 181.629 10.6985 180.936C10.3358 180.232 10.1545 179.437 10.1545 178.552ZM17.3705 178.584C17.3705 177.976 17.2425 177.448 16.9865 177C16.7412 176.552 16.4158 176.211 16.0105 175.976C15.6052 175.741 15.1678 175.624 14.6985 175.624C14.2292 175.624 13.7918 175.741 13.3865 175.976C12.9812 176.2 12.6505 176.536 12.3945 176.984C12.1492 177.421 12.0265 177.944 12.0265 178.552C12.0265 179.16 12.1492 179.693 12.3945 180.152C12.6505 180.611 12.9812 180.963 13.3865 181.208C13.8025 181.443 14.2398 181.56 14.6985 181.56C15.1678 181.56 15.6052 181.443 16.0105 181.208C16.4158 180.973 16.7412 180.632 16.9865 180.184C17.2425 179.725 17.3705 179.192 17.3705 178.584ZM25.0143 181.368L27.5103 174.184H29.4462L26.0863 183H23.9103L20.5663 174.184H22.5182L25.0143 181.368ZM31.753 173.016C31.4223 173.016 31.145 172.904 30.921 172.68C30.697 172.456 30.585 172.179 30.585 171.848C30.585 171.517 30.697 171.24 30.921 171.016C31.145 170.792 31.4223 170.68 31.753 170.68C32.073 170.68 32.345 170.792 32.569 171.016C32.793 171.24 32.905 171.517 32.905 171.848C32.905 172.179 32.793 172.456 32.569 172.68C32.345 172.904 32.073 173.016 31.753 173.016ZM32.649 174.184V183H30.825V174.184H32.649ZM34.4358 178.552C34.4358 177.667 34.6171 176.883 34.9798 176.2C35.3531 175.517 35.8544 174.989 36.4838 174.616C37.1238 174.232 37.8278 174.04 38.5958 174.04C39.2891 174.04 39.8918 174.179 40.4038 174.456C40.9264 174.723 41.3424 175.059 41.6518 175.464V174.184H43.4918V183H41.6518V181.688C41.3424 182.104 40.9211 182.451 40.3878 182.728C39.8544 183.005 39.2464 183.144 38.5638 183.144C37.8064 183.144 37.1131 182.952 36.4838 182.568C35.8544 182.173 35.3531 181.629 34.9798 180.936C34.6171 180.232 34.4358 179.437 34.4358 178.552ZM41.6518 178.584C41.6518 177.976 41.5238 177.448 41.2678 177C41.0224 176.552 40.6971 176.211 40.2918 175.976C39.8864 175.741 39.4491 175.624 38.9798 175.624C38.5104 175.624 38.0731 175.741 37.6678 175.976C37.2624 176.2 36.9318 176.536 36.6758 176.984C36.4304 177.421 36.3078 177.944 36.3078 178.552C36.3078 179.16 36.4304 179.693 36.6758 180.152C36.9318 180.611 37.2624 180.963 37.6678 181.208C38.0838 181.443 38.5211 181.56 38.9798 181.56C39.4491 181.56 39.8864 181.443 40.2918 181.208C40.6971 180.973 41.0224 180.632 41.2678 180.184C41.5238 179.725 41.6518 179.192 41.6518 178.584ZM48.0155 175.672V180.552C48.0155 180.883 48.0902 181.123 48.2395 181.272C48.3995 181.411 48.6662 181.48 49.0395 181.48H50.1595V183H48.7195C47.8982 183 47.2688 182.808 46.8315 182.424C46.3942 182.04 46.1755 181.416 46.1755 180.552V175.672H45.1355V174.184H46.1755V171.992H48.0155V174.184H50.1595V175.672H48.0155ZM52.7686 173.016C52.438 173.016 52.1606 172.904 51.9366 172.68C51.7126 172.456 51.6006 172.179 51.6006 171.848C51.6006 171.517 51.7126 171.24 51.9366 171.016C52.1606 170.792 52.438 170.68 52.7686 170.68C53.0886 170.68 53.3606 170.792 53.5846 171.016C53.8086 171.24 53.9206 171.517 53.9206 171.848C53.9206 172.179 53.8086 172.456 53.5846 172.68C53.3606 172.904 53.0886 173.016 52.7686 173.016ZM53.6646 174.184V183H51.8406V174.184H53.6646ZM59.8834 183.144C59.0514 183.144 58.2994 182.957 57.6274 182.584C56.9554 182.2 56.4274 181.667 56.0434 180.984C55.6594 180.291 55.4674 179.491 55.4674 178.584C55.4674 177.688 55.6647 176.893 56.0594 176.2C56.454 175.507 56.9927 174.973 57.6754 174.6C58.358 174.227 59.1207 174.04 59.9634 174.04C60.806 174.04 61.5687 174.227 62.2514 174.6C62.934 174.973 63.4727 175.507 63.8674 176.2C64.262 176.893 64.4594 177.688 64.4594 178.584C64.4594 179.48 64.2567 180.275 63.8514 180.968C63.446 181.661 62.8914 182.2 62.1874 182.584C61.494 182.957 60.726 183.144 59.8834 183.144ZM59.8834 181.56C60.3527 181.56 60.79 181.448 61.1954 181.224C61.6114 181 61.9474 180.664 62.2034 180.216C62.4594 179.768 62.5874 179.224 62.5874 178.584C62.5874 177.944 62.4647 177.405 62.2194 176.968C61.974 176.52 61.6487 176.184 61.2434 175.96C60.838 175.736 60.4007 175.624 59.9314 175.624C59.462 175.624 59.0247 175.736 58.6194 175.96C58.2247 176.184 57.91 176.52 57.6754 176.968C57.4407 177.405 57.3234 177.944 57.3234 178.584C57.3234 179.533 57.5634 180.269 58.0434 180.792C58.534 181.304 59.1474 181.56 59.8834 181.56ZM70.7105 174.04C71.4038 174.04 72.0225 174.184 72.5665 174.472C73.1212 174.76 73.5532 175.187 73.8625 175.752C74.1718 176.317 74.3265 177 74.3265 177.8V183H72.5185V178.072C72.5185 177.283 72.3212 176.68 71.9265 176.264C71.5318 175.837 70.9932 175.624 70.3105 175.624C69.6278 175.624 69.0838 175.837 68.6785 176.264C68.2838 176.68 68.0865 177.283 68.0865 178.072V183H66.2625V174.184H68.0865V175.192C68.3852 174.829 68.7638 174.547 69.2225 174.344C69.6918 174.141 70.1878 174.04 70.7105 174.04ZM84.0094 183.144C83.316 183.144 82.692 183.021 82.1374 182.776C81.5934 182.52 81.1614 182.179 80.8414 181.752C80.5214 181.315 80.3507 180.829 80.3294 180.296H82.2174C82.2494 180.669 82.4254 180.984 82.7454 181.24C83.076 181.485 83.4867 181.608 83.9774 181.608C84.4894 181.608 84.884 181.512 85.1614 181.32C85.4494 181.117 85.5934 180.861 85.5934 180.552C85.5934 180.221 85.4334 179.976 85.1134 179.816C84.804 179.656 84.308 179.48 83.6254 179.288C82.964 179.107 82.4254 178.931 82.0094 178.76C81.5934 178.589 81.2307 178.328 80.9214 177.976C80.6227 177.624 80.4734 177.16 80.4734 176.584C80.4734 176.115 80.612 175.688 80.8894 175.304C81.1667 174.909 81.5614 174.6 82.0734 174.376C82.596 174.152 83.1934 174.04 83.8654 174.04C84.868 174.04 85.6734 174.296 86.2814 174.808C86.9 175.309 87.2307 175.997 87.2734 176.872H85.4494C85.4174 176.477 85.2574 176.163 84.9694 175.928C84.6814 175.693 84.292 175.576 83.8014 175.576C83.3214 175.576 82.9534 175.667 82.6974 175.848C82.4414 176.029 82.3134 176.269 82.3134 176.568C82.3134 176.803 82.3987 177 82.5694 177.16C82.74 177.32 82.948 177.448 83.1934 177.544C83.4387 177.629 83.8014 177.741 84.2814 177.88C84.9214 178.051 85.444 178.227 85.8494 178.408C86.2654 178.579 86.6227 178.835 86.9214 179.176C87.22 179.517 87.3747 179.971 87.3854 180.536C87.3854 181.037 87.2467 181.485 86.9694 181.88C86.692 182.275 86.2974 182.584 85.7854 182.808C85.284 183.032 84.692 183.144 84.0094 183.144ZM97.4363 178.376C97.4363 178.707 97.4149 179.005 97.3723 179.272H90.6363C90.6896 179.976 90.9509 180.541 91.4203 180.968C91.8896 181.395 92.4656 181.608 93.1483 181.608C94.1296 181.608 94.8229 181.197 95.2283 180.376H97.1962C96.9296 181.187 96.4443 181.853 95.7403 182.376C95.0469 182.888 94.1829 183.144 93.1483 183.144C92.3056 183.144 91.5483 182.957 90.8763 182.584C90.2149 182.2 89.6923 181.667 89.3083 180.984C88.9349 180.291 88.7483 179.491 88.7483 178.584C88.7483 177.677 88.9296 176.883 89.2923 176.2C89.6656 175.507 90.1829 174.973 90.8443 174.6C91.5163 174.227 92.2843 174.04 93.1483 174.04C93.9803 174.04 94.7216 174.221 95.3723 174.584C96.0229 174.947 96.5296 175.459 96.8923 176.12C97.2549 176.771 97.4363 177.523 97.4363 178.376ZM95.5323 177.8C95.5216 177.128 95.2816 176.589 94.8123 176.184C94.3429 175.779 93.7616 175.576 93.0683 175.576C92.4389 175.576 91.9003 175.779 91.4523 176.184C91.0043 176.579 90.7376 177.117 90.6523 177.8H95.5323ZM101.055 175.464C101.322 175.016 101.674 174.669 102.111 174.424C102.559 174.168 103.087 174.04 103.695 174.04V175.928H103.231C102.517 175.928 101.973 176.109 101.599 176.472C101.237 176.835 101.055 177.464 101.055 178.36V183H99.2313V174.184H101.055V175.464ZM108.78 181.368L111.276 174.184H113.212L109.852 183H107.676L104.332 174.184H106.284L108.78 181.368ZM115.519 173.016C115.188 173.016 114.911 172.904 114.687 172.68C114.463 172.456 114.351 172.179 114.351 171.848C114.351 171.517 114.463 171.24 114.687 171.016C114.911 170.792 115.188 170.68 115.519 170.68C115.839 170.68 116.111 170.792 116.335 171.016C116.559 171.24 116.671 171.517 116.671 171.848C116.671 172.179 116.559 172.456 116.335 172.68C116.111 172.904 115.839 173.016 115.519 173.016ZM116.415 174.184V183H114.591V174.184H116.415ZM118.201 178.584C118.201 177.677 118.383 176.883 118.745 176.2C119.119 175.507 119.631 174.973 120.281 174.6C120.932 174.227 121.679 174.04 122.521 174.04C123.588 174.04 124.468 174.296 125.161 174.808C125.865 175.309 126.34 176.029 126.585 176.968H124.617C124.457 176.531 124.201 176.189 123.849 175.944C123.497 175.699 123.055 175.576 122.521 175.576C121.775 175.576 121.177 175.843 120.729 176.376C120.292 176.899 120.073 177.635 120.073 178.584C120.073 179.533 120.292 180.275 120.729 180.808C121.177 181.341 121.775 181.608 122.521 181.608C123.577 181.608 124.276 181.144 124.617 180.216H126.585C126.329 181.112 125.849 181.827 125.145 182.36C124.441 182.883 123.567 183.144 122.521 183.144C121.679 183.144 120.932 182.957 120.281 182.584C119.631 182.2 119.119 181.667 118.745 180.984C118.383 180.291 118.201 179.491 118.201 178.584ZM136.483 178.376C136.483 178.707 136.462 179.005 136.419 179.272H129.683C129.736 179.976 129.998 180.541 130.467 180.968C130.936 181.395 131.512 181.608 132.195 181.608C133.176 181.608 133.87 181.197 134.275 180.376H136.243C135.976 181.187 135.491 181.853 134.787 182.376C134.094 182.888 133.23 183.144 132.195 183.144C131.352 183.144 130.595 182.957 129.923 182.584C129.262 182.2 128.739 181.667 128.355 180.984C127.982 180.291 127.795 179.491 127.795 178.584C127.795 177.677 127.976 176.883 128.339 176.2C128.712 175.507 129.23 174.973 129.891 174.6C130.563 174.227 131.331 174.04 132.195 174.04C133.027 174.04 133.768 174.221 134.419 174.584C135.07 174.947 135.576 175.459 135.939 176.12C136.302 176.771 136.483 177.523 136.483 178.376ZM134.579 177.8C134.568 177.128 134.328 176.589 133.859 176.184C133.39 175.779 132.808 175.576 132.115 175.576C131.486 175.576 130.947 175.779 130.499 176.184C130.051 176.579 129.784 177.117 129.699 177.8H134.579ZM141.478 183.144C140.785 183.144 140.161 183.021 139.606 182.776C139.062 182.52 138.63 182.179 138.31 181.752C137.99 181.315 137.819 180.829 137.798 180.296H139.686C139.718 180.669 139.894 180.984 140.214 181.24C140.545 181.485 140.955 181.608 141.446 181.608C141.958 181.608 142.353 181.512 142.63 181.32C142.918 181.117 143.062 180.861 143.062 180.552C143.062 180.221 142.902 179.976 142.582 179.816C142.273 179.656 141.777 179.48 141.094 179.288C140.433 179.107 139.894 178.931 139.478 178.76C139.062 178.589 138.699 178.328 138.39 177.976C138.091 177.624 137.942 177.16 137.942 176.584C137.942 176.115 138.081 175.688 138.358 175.304C138.635 174.909 139.03 174.6 139.542 174.376C140.065 174.152 140.662 174.04 141.334 174.04C142.337 174.04 143.142 174.296 143.75 174.808C144.369 175.309 144.699 175.997 144.742 176.872H142.918C142.886 176.477 142.726 176.163 142.438 175.928C142.15 175.693 141.761 175.576 141.27 175.576C140.79 175.576 140.422 175.667 140.166 175.848C139.91 176.029 139.782 176.269 139.782 176.568C139.782 176.803 139.867 177 140.038 177.16C140.209 177.32 140.417 177.448 140.662 177.544C140.907 177.629 141.27 177.741 141.75 177.88C142.39 178.051 142.913 178.227 143.318 178.408C143.734 178.579 144.091 178.835 144.39 179.176C144.689 179.517 144.843 179.971 144.854 180.536C144.854 181.037 144.715 181.485 144.438 181.88C144.161 182.275 143.766 182.584 143.254 182.808C142.753 183.032 142.161 183.144 141.478 183.144ZM154.677 175.672H153.045V183H151.205V175.672H150.165V174.184H151.205V173.56C151.205 172.547 151.472 171.811 152.005 171.352C152.549 170.883 153.397 170.648 154.549 170.648V172.168C153.995 172.168 153.605 172.275 153.381 172.488C153.157 172.691 153.045 173.048 153.045 173.56V174.184H154.677V175.672ZM160.118 183.144C159.286 183.144 158.534 182.957 157.862 182.584C157.19 182.2 156.662 181.667 156.278 180.984C155.894 180.291 155.702 179.491 155.702 178.584C155.702 177.688 155.899 176.893 156.294 176.2C156.688 175.507 157.227 174.973 157.91 174.6C158.592 174.227 159.355 174.04 160.198 174.04C161.04 174.04 161.803 174.227 162.486 174.6C163.168 174.973 163.707 175.507 164.102 176.2C164.496 176.893 164.694 177.688 164.694 178.584C164.694 179.48 164.491 180.275 164.086 180.968C163.68 181.661 163.126 182.2 162.422 182.584C161.728 182.957 160.96 183.144 160.118 183.144ZM160.118 181.56C160.587 181.56 161.024 181.448 161.43 181.224C161.846 181 162.182 180.664 162.438 180.216C162.694 179.768 162.822 179.224 162.822 178.584C162.822 177.944 162.699 177.405 162.454 176.968C162.208 176.52 161.883 176.184 161.478 175.96C161.072 175.736 160.635 175.624 160.166 175.624C159.696 175.624 159.259 175.736 158.854 175.96C158.459 176.184 158.144 176.52 157.91 176.968C157.675 177.405 157.558 177.944 157.558 178.584C157.558 179.533 157.798 180.269 158.278 180.792C158.768 181.304 159.382 181.56 160.118 181.56ZM168.321 175.464C168.588 175.016 168.94 174.669 169.377 174.424C169.825 174.168 170.353 174.04 170.961 174.04V175.928H170.497C169.782 175.928 169.238 176.109 168.865 176.472C168.502 176.835 168.321 177.464 168.321 178.36V183H166.497V174.184H168.321V175.464ZM26.5908 200.04C27.2841 200.04 27.9028 200.184 28.4468 200.472C29.0014 200.76 29.4334 201.187 29.7428 201.752C30.0628 202.317 30.2228 203 30.2228 203.8V209H28.4148V204.072C28.4148 203.283 28.2174 202.68 27.8228 202.264C27.4281 201.837 26.8894 201.624 26.2068 201.624C25.5241 201.624 24.9801 201.837 24.5748 202.264C24.1801 202.68 23.9828 203.283 23.9828 204.072V209H22.1748V204.072C22.1748 203.283 21.9774 202.68 21.5828 202.264C21.1881 201.837 20.6494 201.624 19.9668 201.624C19.2841 201.624 18.7401 201.837 18.3348 202.264C17.9401 202.68 17.7428 203.283 17.7428 204.072V209H15.9188V200.184H17.7428V201.192C18.0414 200.829 18.4201 200.547 18.8788 200.344C19.3374 200.141 19.8281 200.04 20.3508 200.04C21.0548 200.04 21.6841 200.189 22.2388 200.488C22.7934 200.787 23.2201 201.219 23.5188 201.784C23.7854 201.251 24.2014 200.829 24.7668 200.52C25.3321 200.2 25.9401 200.04 26.5908 200.04ZM33.4718 199.016C33.1411 199.016 32.8638 198.904 32.6398 198.68C32.4158 198.456 32.3038 198.179 32.3038 197.848C32.3038 197.517 32.4158 197.24 32.6398 197.016C32.8638 196.792 33.1411 196.68 33.4718 196.68C33.7918 196.68 34.0638 196.792 34.2878 197.016C34.5118 197.24 34.6238 197.517 34.6238 197.848C34.6238 198.179 34.5118 198.456 34.2878 198.68C34.0638 198.904 33.7918 199.016 33.4718 199.016ZM34.3678 200.184V209H32.5438V200.184H34.3678ZM38.5865 197.16V209H36.7625V197.16H38.5865ZM41.9093 199.016C41.5786 199.016 41.3013 198.904 41.0773 198.68C40.8533 198.456 40.7413 198.179 40.7413 197.848C40.7413 197.517 40.8533 197.24 41.0773 197.016C41.3013 196.792 41.5786 196.68 41.9093 196.68C42.2293 196.68 42.5013 196.792 42.7253 197.016C42.9493 197.24 43.0613 197.517 43.0613 197.848C43.0613 198.179 42.9493 198.456 42.7253 198.68C42.5013 198.904 42.2293 199.016 41.9093 199.016ZM42.8053 200.184V209H40.9813V200.184H42.8053ZM47.328 201.672V206.552C47.328 206.883 47.4027 207.123 47.552 207.272C47.712 207.411 47.9787 207.48 48.352 207.48H49.472V209H48.032C47.2107 209 46.5813 208.808 46.144 208.424C45.7067 208.04 45.488 207.416 45.488 206.552V201.672H44.448V200.184H45.488V197.992H47.328V200.184H49.472V201.672H47.328ZM50.5451 204.552C50.5451 203.667 50.7265 202.883 51.0891 202.2C51.4625 201.517 51.9638 200.989 52.5931 200.616C53.2331 200.232 53.9371 200.04 54.7051 200.04C55.3985 200.04 56.0011 200.179 56.5131 200.456C57.0358 200.723 57.4518 201.059 57.7611 201.464V200.184H59.6011V209H57.7611V207.688C57.4518 208.104 57.0305 208.451 56.4971 208.728C55.9638 209.005 55.3558 209.144 54.6731 209.144C53.9158 209.144 53.2225 208.952 52.5931 208.568C51.9638 208.173 51.4625 207.629 51.0891 206.936C50.7265 206.232 50.5451 205.437 50.5451 204.552ZM57.7611 204.584C57.7611 203.976 57.6331 203.448 57.3771 203C57.1318 202.552 56.8065 202.211 56.4011 201.976C55.9958 201.741 55.5585 201.624 55.0891 201.624C54.6198 201.624 54.1825 201.741 53.7771 201.976C53.3718 202.2 53.0411 202.536 52.7851 202.984C52.5398 203.421 52.4171 203.944 52.4171 204.552C52.4171 205.16 52.5398 205.693 52.7851 206.152C53.0411 206.611 53.3718 206.963 53.7771 207.208C54.1931 207.443 54.6305 207.56 55.0891 207.56C55.5585 207.56 55.9958 207.443 56.4011 207.208C56.8065 206.973 57.1318 206.632 57.3771 206.184C57.6331 205.725 57.7611 205.192 57.7611 204.584ZM63.8209 201.464C64.0875 201.016 64.4395 200.669 64.8769 200.424C65.3249 200.168 65.8529 200.04 66.4609 200.04V201.928H65.9969C65.2822 201.928 64.7382 202.109 64.3649 202.472C64.0022 202.835 63.8209 203.464 63.8209 204.36V209H61.9969V200.184H63.8209V201.464ZM76.0735 200.184L70.6655 213.144H68.7775L70.5695 208.856L67.0975 200.184H69.1295L71.6095 206.904L74.1855 200.184H76.0735ZM80.9983 204.584C80.9983 203.677 81.1796 202.883 81.5423 202.2C81.9156 201.507 82.4276 200.973 83.0783 200.6C83.7289 200.227 84.4756 200.04 85.3183 200.04C86.3849 200.04 87.2649 200.296 87.9583 200.808C88.6623 201.309 89.1369 202.029 89.3823 202.968H87.4143C87.2543 202.531 86.9983 202.189 86.6463 201.944C86.2943 201.699 85.8516 201.576 85.3183 201.576C84.5716 201.576 83.9743 201.843 83.5263 202.376C83.0889 202.899 82.8703 203.635 82.8703 204.584C82.8703 205.533 83.0889 206.275 83.5263 206.808C83.9743 207.341 84.5716 207.608 85.3183 207.608C86.3743 207.608 87.0729 207.144 87.4143 206.216H89.3823C89.1263 207.112 88.6463 207.827 87.9423 208.36C87.2383 208.883 86.3636 209.144 85.3183 209.144C84.4756 209.144 83.7289 208.957 83.0783 208.584C82.4276 208.2 81.9156 207.667 81.5423 206.984C81.1796 206.291 80.9983 205.491 80.9983 204.584ZM99.184 200.184V209H97.36V207.96C97.072 208.323 96.6933 208.611 96.224 208.824C95.7653 209.027 95.2747 209.128 94.752 209.128C94.0587 209.128 93.4347 208.984 92.88 208.696C92.336 208.408 91.904 207.981 91.584 207.416C91.2747 206.851 91.12 206.168 91.12 205.368V200.184H92.928V205.096C92.928 205.885 93.1253 206.493 93.52 206.92C93.9147 207.336 94.4533 207.544 95.136 207.544C95.8187 207.544 96.3573 207.336 96.752 206.92C97.1573 206.493 97.36 205.885 97.36 205.096V200.184H99.184ZM104.791 209.144C104.097 209.144 103.473 209.021 102.919 208.776C102.375 208.52 101.943 208.179 101.623 207.752C101.303 207.315 101.132 206.829 101.111 206.296H102.999C103.031 206.669 103.207 206.984 103.527 207.24C103.857 207.485 104.268 207.608 104.759 207.608C105.271 207.608 105.665 207.512 105.943 207.32C106.231 207.117 106.375 206.861 106.375 206.552C106.375 206.221 106.215 205.976 105.895 205.816C105.585 205.656 105.089 205.48 104.407 205.288C103.745 205.107 103.207 204.931 102.791 204.76C102.375 204.589 102.012 204.328 101.703 203.976C101.404 203.624 101.255 203.16 101.255 202.584C101.255 202.115 101.393 201.688 101.671 201.304C101.948 200.909 102.343 200.6 102.855 200.376C103.377 200.152 103.975 200.04 104.647 200.04C105.649 200.04 106.455 200.296 107.063 200.808C107.681 201.309 108.012 201.997 108.055 202.872H106.231C106.199 202.477 106.039 202.163 105.751 201.928C105.463 201.693 105.073 201.576 104.583 201.576C104.103 201.576 103.735 201.667 103.479 201.848C103.223 202.029 103.095 202.269 103.095 202.568C103.095 202.803 103.18 203 103.351 203.16C103.521 203.32 103.729 203.448 103.975 203.544C104.22 203.629 104.583 203.741 105.063 203.88C105.703 204.051 106.225 204.227 106.631 204.408C107.047 204.579 107.404 204.835 107.703 205.176C108.001 205.517 108.156 205.971 108.167 206.536C108.167 207.037 108.028 207.485 107.751 207.88C107.473 208.275 107.079 208.584 106.567 208.808C106.065 209.032 105.473 209.144 104.791 209.144ZM112.266 201.672V206.552C112.266 206.883 112.34 207.123 112.49 207.272C112.65 207.411 112.916 207.48 113.29 207.48H114.41V209H112.97C112.148 209 111.519 208.808 111.082 208.424C110.644 208.04 110.426 207.416 110.426 206.552V201.672H109.386V200.184H110.426V197.992H112.266V200.184H114.41V201.672H112.266ZM119.915 209.144C119.083 209.144 118.331 208.957 117.659 208.584C116.987 208.2 116.459 207.667 116.075 206.984C115.691 206.291 115.499 205.491 115.499 204.584C115.499 203.688 115.696 202.893 116.091 202.2C116.485 201.507 117.024 200.973 117.707 200.6C118.389 200.227 119.152 200.04 119.995 200.04C120.837 200.04 121.6 200.227 122.283 200.6C122.965 200.973 123.504 201.507 123.899 202.2C124.293 202.893 124.491 203.688 124.491 204.584C124.491 205.48 124.288 206.275 123.883 206.968C123.477 207.661 122.923 208.2 122.219 208.584C121.525 208.957 120.757 209.144 119.915 209.144ZM119.915 207.56C120.384 207.56 120.821 207.448 121.227 207.224C121.643 207 121.979 206.664 122.235 206.216C122.491 205.768 122.619 205.224 122.619 204.584C122.619 203.944 122.496 203.405 122.251 202.968C122.005 202.52 121.68 202.184 121.275 201.96C120.869 201.736 120.432 201.624 119.963 201.624C119.493 201.624 119.056 201.736 118.651 201.96C118.256 202.184 117.941 202.52 117.707 202.968C117.472 203.405 117.355 203.944 117.355 204.584C117.355 205.533 117.595 206.269 118.075 206.792C118.565 207.304 119.179 207.56 119.915 207.56ZM136.966 200.04C137.659 200.04 138.278 200.184 138.822 200.472C139.376 200.76 139.808 201.187 140.118 201.752C140.438 202.317 140.598 203 140.598 203.8V209H138.79V204.072C138.79 203.283 138.592 202.68 138.198 202.264C137.803 201.837 137.264 201.624 136.582 201.624C135.899 201.624 135.355 201.837 134.95 202.264C134.555 202.68 134.358 203.283 134.358 204.072V209H132.55V204.072C132.55 203.283 132.352 202.68 131.958 202.264C131.563 201.837 131.024 201.624 130.342 201.624C129.659 201.624 129.115 201.837 128.71 202.264C128.315 202.68 128.118 203.283 128.118 204.072V209H126.294V200.184H128.118V201.192C128.416 200.829 128.795 200.547 129.254 200.344C129.712 200.141 130.203 200.04 130.726 200.04C131.43 200.04 132.059 200.189 132.614 200.488C133.168 200.787 133.595 201.219 133.894 201.784C134.16 201.251 134.576 200.829 135.142 200.52C135.707 200.2 136.315 200.04 136.966 200.04ZM150.999 204.376C150.999 204.707 150.977 205.005 150.935 205.272H144.199C144.252 205.976 144.513 206.541 144.983 206.968C145.452 207.395 146.028 207.608 146.711 207.608C147.692 207.608 148.385 207.197 148.791 206.376H150.759C150.492 207.187 150.007 207.853 149.303 208.376C148.609 208.888 147.745 209.144 146.711 209.144C145.868 209.144 145.111 208.957 144.439 208.584C143.777 208.2 143.255 207.667 142.871 206.984C142.497 206.291 142.311 205.491 142.311 204.584C142.311 203.677 142.492 202.883 142.855 202.2C143.228 201.507 143.745 200.973 144.407 200.6C145.079 200.227 145.847 200.04 146.711 200.04C147.543 200.04 148.284 200.221 148.935 200.584C149.585 200.947 150.092 201.459 150.455 202.12C150.817 202.771 150.999 203.523 150.999 204.376ZM149.095 203.8C149.084 203.128 148.844 202.589 148.375 202.184C147.905 201.779 147.324 201.576 146.631 201.576C146.001 201.576 145.463 201.779 145.015 202.184C144.567 202.579 144.3 203.117 144.215 203.8H149.095ZM154.618 201.464C154.884 201.016 155.236 200.669 155.674 200.424C156.122 200.168 156.65 200.04 157.258 200.04V201.928H156.794C156.079 201.928 155.535 202.109 155.162 202.472C154.799 202.835 154.618 203.464 154.618 204.36V209H152.794V200.184H154.618V201.464ZM162.134 209.144C161.441 209.144 160.817 209.021 160.262 208.776C159.718 208.52 159.286 208.179 158.966 207.752C158.646 207.315 158.476 206.829 158.454 206.296H160.342C160.374 206.669 160.55 206.984 160.87 207.24C161.201 207.485 161.612 207.608 162.102 207.608C162.614 207.608 163.009 207.512 163.286 207.32C163.574 207.117 163.718 206.861 163.718 206.552C163.718 206.221 163.558 205.976 163.238 205.816C162.929 205.656 162.433 205.48 161.75 205.288C161.089 205.107 160.55 204.931 160.134 204.76C159.718 204.589 159.356 204.328 159.046 203.976C158.748 203.624 158.598 203.16 158.598 202.584C158.598 202.115 158.737 201.688 159.014 201.304C159.292 200.909 159.686 200.6 160.198 200.376C160.721 200.152 161.318 200.04 161.99 200.04C162.993 200.04 163.798 200.296 164.406 200.808C165.025 201.309 165.356 201.997 165.398 202.872H163.574C163.542 202.477 163.382 202.163 163.094 201.928C162.806 201.693 162.417 201.576 161.926 201.576C161.446 201.576 161.078 201.667 160.822 201.848C160.566 202.029 160.438 202.269 160.438 202.568C160.438 202.803 160.524 203 160.694 203.16C160.865 203.32 161.073 203.448 161.318 203.544C161.564 203.629 161.926 203.741 162.406 203.88C163.046 204.051 163.569 204.227 163.974 204.408C164.39 204.579 164.748 204.835 165.046 205.176C165.345 205.517 165.5 205.971 165.51 206.536C165.51 207.037 165.372 207.485 165.094 207.88C164.817 208.275 164.422 208.584 163.91 208.808C163.409 209.032 162.817 209.144 162.134 209.144Z" fill="#5E6282"/>
<path d="M28.2227 104.52C26.8815 104.52 25.8268 104.995 25.0586 105.945C24.2904 106.896 23.9062 108.208 23.9062 109.881C23.9062 111.632 24.2741 112.957 25.0098 113.855C25.752 114.754 26.8229 115.203 28.2227 115.203C28.8281 115.203 29.4141 115.145 29.9805 115.027C30.5469 114.904 31.1361 114.747 31.748 114.559V116.561C30.6283 116.984 29.3587 117.195 27.9395 117.195C25.8496 117.195 24.2448 116.564 23.125 115.301C22.0052 114.031 21.4453 112.218 21.4453 109.861C21.4453 108.377 21.7155 107.078 22.2559 105.965C22.8027 104.852 23.5905 103.999 24.6191 103.406C25.6478 102.814 26.8555 102.518 28.2422 102.518C29.7005 102.518 31.0482 102.824 32.2852 103.436L31.4453 105.379C30.9635 105.151 30.4525 104.952 29.9121 104.783C29.3783 104.607 28.8151 104.52 28.2227 104.52ZM42.1973 117L41.875 115.584H41.7578C41.4388 116.085 40.9831 116.479 40.3906 116.766C39.8047 117.052 39.1341 117.195 38.3789 117.195C37.0703 117.195 36.0938 116.87 35.4492 116.219C34.8047 115.568 34.4824 114.581 34.4824 113.26V106.199H36.7969V112.859C36.7969 113.686 36.9661 114.308 37.3047 114.725C37.6432 115.135 38.1738 115.34 38.8965 115.34C39.86 115.34 40.5664 115.053 41.0156 114.48C41.4714 113.901 41.6992 112.934 41.6992 111.58V106.199H44.0039V117H42.1973ZM54.5312 113.924C54.5312 114.979 54.1471 115.789 53.3789 116.355C52.6107 116.915 51.5104 117.195 50.0781 117.195C48.6393 117.195 47.4837 116.977 46.6113 116.541V114.559C47.8809 115.145 49.0625 115.438 50.1562 115.438C51.569 115.438 52.2754 115.011 52.2754 114.158C52.2754 113.885 52.1973 113.657 52.041 113.475C51.8848 113.292 51.6276 113.104 51.2695 112.908C50.9115 112.713 50.4134 112.492 49.7754 112.244C48.5319 111.762 47.6888 111.281 47.2461 110.799C46.8099 110.317 46.5918 109.692 46.5918 108.924C46.5918 107.999 46.9629 107.283 47.7051 106.775C48.4538 106.261 49.4694 106.004 50.752 106.004C52.0215 106.004 53.2227 106.261 54.3555 106.775L53.6133 108.504C52.4479 108.022 51.4681 107.781 50.6738 107.781C49.4629 107.781 48.8574 108.126 48.8574 108.816C48.8574 109.155 49.0137 109.441 49.3262 109.676C49.6452 109.91 50.3353 110.232 51.3965 110.643C52.2884 110.988 52.9362 111.303 53.3398 111.59C53.7435 111.876 54.043 112.208 54.2383 112.586C54.4336 112.957 54.5312 113.403 54.5312 113.924ZM61.0449 115.34C61.6048 115.34 62.1647 115.252 62.7246 115.076V116.805C62.4707 116.915 62.1419 117.007 61.7383 117.078C61.3411 117.156 60.9277 117.195 60.498 117.195C58.3236 117.195 57.2363 116.049 57.2363 113.758V107.938H55.7617V106.922L57.3438 106.082L58.125 103.797H59.541V106.199H62.6172V107.938H59.541V113.719C59.541 114.272 59.6777 114.682 59.9512 114.949C60.2311 115.21 60.5957 115.34 61.0449 115.34ZM74.4727 111.58C74.4727 113.344 74.0202 114.721 73.1152 115.711C72.2103 116.701 70.9505 117.195 69.3359 117.195C68.3268 117.195 67.4349 116.967 66.6602 116.512C65.8854 116.056 65.2897 115.402 64.873 114.549C64.4564 113.696 64.248 112.706 64.248 111.58C64.248 109.829 64.6973 108.462 65.5957 107.479C66.4941 106.495 67.7604 106.004 69.3945 106.004C70.957 106.004 72.194 106.508 73.1055 107.518C74.0169 108.52 74.4727 109.874 74.4727 111.58ZM66.6113 111.58C66.6113 114.074 67.5326 115.32 69.375 115.32C71.1979 115.32 72.1094 114.074 72.1094 111.58C72.1094 109.113 71.1914 107.879 69.3555 107.879C68.3919 107.879 67.6921 108.198 67.2559 108.836C66.8262 109.474 66.6113 110.389 66.6113 111.58ZM86.2207 117H83.916V110.34C83.916 109.513 83.7598 108.898 83.4473 108.494C83.1348 108.084 82.6465 107.879 81.9824 107.879C81.097 107.879 80.446 108.169 80.0293 108.748C79.6191 109.321 79.4141 110.278 79.4141 111.619V117H77.1191V106.199H78.916L79.2383 107.615H79.3555C79.6549 107.101 80.0879 106.704 80.6543 106.424C81.2272 106.144 81.8555 106.004 82.5391 106.004C84.1992 106.004 85.2995 106.57 85.8398 107.703H85.9961C86.3151 107.169 86.7643 106.753 87.3438 106.453C87.9232 106.154 88.5872 106.004 89.3359 106.004C90.625 106.004 91.5625 106.329 92.1484 106.98C92.7409 107.632 93.0371 108.624 93.0371 109.959V117H90.7422V110.34C90.7422 109.513 90.5827 108.898 90.2637 108.494C89.9512 108.084 89.4629 107.879 88.7988 107.879C87.9069 107.879 87.2526 108.159 86.8359 108.719C86.4258 109.272 86.2207 110.125 86.2207 111.277V117ZM98.5352 117H96.2402V106.199H98.5352V117ZM96.1035 103.338C96.1035 102.928 96.2142 102.612 96.4355 102.391C96.6634 102.169 96.9857 102.059 97.4023 102.059C97.806 102.059 98.1185 102.169 98.3398 102.391C98.5677 102.612 98.6816 102.928 98.6816 103.338C98.6816 103.729 98.5677 104.038 98.3398 104.266C98.1185 104.487 97.806 104.598 97.4023 104.598C96.9857 104.598 96.6634 104.487 96.4355 104.266C96.2142 104.038 96.1035 103.729 96.1035 103.338ZM109.043 117H100.85V115.584L106.309 107.957H101.182V106.199H108.887V107.801L103.545 115.242H109.043V117ZM118.154 117L117.695 115.496H117.617C117.096 116.154 116.572 116.603 116.045 116.844C115.518 117.078 114.84 117.195 114.014 117.195C112.952 117.195 112.122 116.909 111.523 116.336C110.931 115.763 110.635 114.952 110.635 113.904C110.635 112.791 111.048 111.951 111.875 111.385C112.702 110.818 113.962 110.509 115.654 110.457L117.52 110.398V109.822C117.52 109.132 117.357 108.618 117.031 108.279C116.712 107.934 116.214 107.762 115.537 107.762C114.984 107.762 114.453 107.843 113.945 108.006C113.438 108.169 112.949 108.361 112.48 108.582L111.738 106.941C112.324 106.635 112.965 106.404 113.662 106.248C114.359 106.085 115.016 106.004 115.635 106.004C117.008 106.004 118.044 106.303 118.74 106.902C119.443 107.501 119.795 108.442 119.795 109.725V117H118.154ZM114.736 115.438C115.57 115.438 116.237 115.206 116.738 114.744C117.246 114.275 117.5 113.621 117.5 112.781V111.844L116.113 111.902C115.033 111.941 114.245 112.124 113.75 112.449C113.262 112.768 113.018 113.26 113.018 113.924C113.018 114.406 113.161 114.78 113.447 115.047C113.734 115.307 114.163 115.438 114.736 115.438ZM127.021 115.34C127.581 115.34 128.141 115.252 128.701 115.076V116.805C128.447 116.915 128.118 117.007 127.715 117.078C127.318 117.156 126.904 117.195 126.475 117.195C124.3 117.195 123.213 116.049 123.213 113.758V107.938H121.738V106.922L123.32 106.082L124.102 103.797H125.518V106.199H128.594V107.938H125.518V113.719C125.518 114.272 125.654 114.682 125.928 114.949C126.208 115.21 126.572 115.34 127.021 115.34ZM133.164 117H130.869V106.199H133.164V117ZM130.732 103.338C130.732 102.928 130.843 102.612 131.064 102.391C131.292 102.169 131.615 102.059 132.031 102.059C132.435 102.059 132.747 102.169 132.969 102.391C133.197 102.612 133.311 102.928 133.311 103.338C133.311 103.729 133.197 104.038 132.969 104.266C132.747 104.487 132.435 104.598 132.031 104.598C131.615 104.598 131.292 104.487 131.064 104.266C130.843 104.038 130.732 103.729 130.732 103.338ZM146.035 111.58C146.035 113.344 145.583 114.721 144.678 115.711C143.773 116.701 142.513 117.195 140.898 117.195C139.889 117.195 138.997 116.967 138.223 116.512C137.448 116.056 136.852 115.402 136.436 114.549C136.019 113.696 135.811 112.706 135.811 111.58C135.811 109.829 136.26 108.462 137.158 107.479C138.057 106.495 139.323 106.004 140.957 106.004C142.52 106.004 143.757 106.508 144.668 107.518C145.579 108.52 146.035 109.874 146.035 111.58ZM138.174 111.58C138.174 114.074 139.095 115.32 140.938 115.32C142.76 115.32 143.672 114.074 143.672 111.58C143.672 109.113 142.754 107.879 140.918 107.879C139.954 107.879 139.255 108.198 138.818 108.836C138.389 109.474 138.174 110.389 138.174 111.58ZM158.184 117H155.879V110.359C155.879 109.526 155.71 108.904 155.371 108.494C155.039 108.084 154.508 107.879 153.779 107.879C152.809 107.879 152.1 108.165 151.65 108.738C151.201 109.311 150.977 110.271 150.977 111.619V117H148.682V106.199H150.479L150.801 107.615H150.918C151.243 107.101 151.706 106.704 152.305 106.424C152.904 106.144 153.568 106.004 154.297 106.004C156.888 106.004 158.184 107.322 158.184 109.959V117Z" fill="#1E1D4C"/>
</svg>
