<svg width="124" height="43" viewBox="0 0 124 43" fill="none" xmlns="http://www.w3.org/2000/svg">
<g filter="url(#filter0_d_108_2505)">
<path d="M4.91992 24.064V21.902L11.0379 20.798V23.788C11.0686 25.4133 11.4826 26.64 12.2799 27.468C13.1079 28.2653 14.1966 28.664 15.5459 28.664C16.8646 28.664 17.9073 28.2347 18.6739 27.376C19.4713 26.5173 19.8699 25.3673 19.8699 23.926V1.38598H26.2179V23.926C26.2179 26.9313 25.2213 29.4767 23.2279 31.562C21.2346 33.6473 18.6893 34.69 15.5919 34.69C12.3719 34.69 9.78059 33.724 7.81792 31.792C5.88592 29.8293 4.91992 27.2533 4.91992 24.064Z" fill="black"/>
<path d="M27.6766 27.836C27.6766 25.904 28.3053 24.3553 29.5626 23.19C30.82 22.0247 32.4453 21.2887 34.4386 20.982L40.0046 20.154C41.1393 20.0007 41.7066 19.464 41.7066 18.544C41.7066 17.6853 41.3693 16.98 40.6946 16.428C40.0506 15.876 39.1153 15.6 37.8886 15.6C36.6006 15.6 35.5733 15.9527 34.8066 16.658C34.0706 17.3633 33.6566 18.2373 33.5646 19.28L28.1366 18.13C28.3513 16.1673 29.3173 14.4347 31.0346 12.932C32.752 11.4293 35.0213 10.678 37.8426 10.678C41.216 10.678 43.7 11.4907 45.2946 13.116C46.8893 14.7107 47.6866 16.7653 47.6866 19.28V30.412C47.6866 31.7613 47.7786 32.9573 47.9626 34H42.3506C42.1973 33.3253 42.1206 32.4207 42.1206 31.286C40.6793 33.5247 38.456 34.644 35.4506 34.644C33.12 34.644 31.234 33.9693 29.7926 32.62C28.382 31.2707 27.6766 29.676 27.6766 27.836ZM36.7386 30.09C38.18 30.09 39.3606 29.6913 40.2806 28.894C41.2313 28.066 41.7066 26.7167 41.7066 24.846V23.834L36.6006 24.616C34.73 24.892 33.7946 25.8427 33.7946 27.468C33.7946 28.204 34.0553 28.8327 34.5766 29.354C35.098 29.8447 35.8186 30.09 36.7386 30.09Z" fill="black"/>
<path d="M71.6577 0.695984V29.906C71.6577 31.4087 71.719 32.7733 71.8417 34H65.9997C65.8463 33.2333 65.7697 32.3593 65.7697 31.378C65.2483 32.3287 64.4203 33.0953 63.2857 33.678C62.1817 34.2607 60.8937 34.552 59.4217 34.552C56.2017 34.552 53.549 33.4327 51.4637 31.194C49.409 28.9247 48.3817 26.0727 48.3817 22.638C48.3817 19.2953 49.3937 16.4893 51.4177 14.22C53.4723 11.9507 56.079 10.816 59.2377 10.816C62.4883 10.816 64.6197 11.7513 65.6317 13.622V0.695984H71.6577ZM54.5457 22.638C54.5457 24.6313 55.067 26.2107 56.1097 27.376C57.1523 28.5107 58.5017 29.078 60.1577 29.078C61.783 29.078 63.117 28.4953 64.1597 27.33C65.2023 26.1647 65.7237 24.5853 65.7237 22.592C65.7237 20.6293 65.2023 19.096 64.1597 17.992C63.117 16.8573 61.783 16.29 60.1577 16.29C58.5323 16.29 57.183 16.8573 56.1097 17.992C55.067 19.1267 54.5457 20.6753 54.5457 22.638Z" fill="black"/>
<path d="M80.6866 27.422C81.8213 28.5567 83.1859 29.124 84.7806 29.124C86.3753 29.124 87.7246 28.5567 88.8286 27.422C89.9633 26.2873 90.5306 24.708 90.5306 22.684C90.5306 20.66 89.9633 19.0807 88.8286 17.946C87.7246 16.8113 86.3753 16.244 84.7806 16.244C83.1859 16.244 81.8213 16.8113 80.6866 17.946C79.5826 19.0807 79.0306 20.66 79.0306 22.684C79.0306 24.708 79.5826 26.2873 80.6866 27.422ZM76.2706 14.082C78.5399 11.8127 81.3766 10.678 84.7806 10.678C88.1846 10.678 91.0059 11.8127 93.2446 14.082C95.5139 16.3513 96.6486 19.2187 96.6486 22.684C96.6486 26.1493 95.5139 29.0167 93.2446 31.286C91.0059 33.5553 88.1846 34.69 84.7806 34.69C81.3766 34.69 78.5399 33.5553 76.2706 31.286C74.0319 29.0167 72.9126 26.1493 72.9126 22.684C72.9126 19.2187 74.0319 16.3513 76.2706 14.082Z" fill="black"/>
<path d="M103.87 27.422C105.005 28.5567 106.369 29.124 107.964 29.124C109.559 29.124 110.908 28.5567 112.012 27.422C113.147 26.2873 113.714 24.708 113.714 22.684C113.714 20.66 113.147 19.0807 112.012 17.946C110.908 16.8113 109.559 16.244 107.964 16.244C106.369 16.244 105.005 16.8113 103.87 17.946C102.766 19.0807 102.214 20.66 102.214 22.684C102.214 24.708 102.766 26.2873 103.87 27.422ZM99.4539 14.082C101.723 11.8127 104.56 10.678 107.964 10.678C111.368 10.678 114.189 11.8127 116.428 14.082C118.697 16.3513 119.832 19.2187 119.832 22.684C119.832 26.1493 118.697 29.0167 116.428 31.286C114.189 33.5553 111.368 34.69 107.964 34.69C104.56 34.69 101.723 33.5553 99.4539 31.286C97.2152 29.0167 96.0959 26.1493 96.0959 22.684C96.0959 19.2187 97.2152 16.3513 99.4539 14.082Z" fill="black"/>
</g>
<defs>
<filter id="filter0_d_108_2505" x="0.919922" y="0.695984" width="122.912" height="41.994" filterUnits="userSpaceOnUse" color-interpolation-filters="sRGB">
<feFlood flood-opacity="0" result="BackgroundImageFix"/>
<feColorMatrix in="SourceAlpha" type="matrix" values="0 0 0 0 0 0 0 0 0 0 0 0 0 0 0 0 0 0 127 0" result="hardAlpha"/>
<feOffset dy="4"/>
<feGaussianBlur stdDeviation="2"/>
<feComposite in2="hardAlpha" operator="out"/>
<feColorMatrix type="matrix" values="0 0 0 0 0 0 0 0 0 0 0 0 0 0 0 0 0 0 0.25 0"/>
<feBlend mode="normal" in2="BackgroundImageFix" result="effect1_dropShadow_108_2505"/>
<feBlend mode="normal" in="SourceGraphic" in2="effect1_dropShadow_108_2505" result="shape"/>
</filter>
</defs>
</svg>
