<svg width="195" height="112" viewBox="0 0 195 112" fill="none" xmlns="http://www.w3.org/2000/svg">
<path d="M112.537 40.704C112.537 41.3047 112.395 41.8713 112.112 42.404C111.829 42.9367 111.375 43.373 110.752 43.713C110.129 44.0417 109.33 44.206 108.355 44.206H106.213V49H104.275V37.185H108.355C109.262 37.185 110.027 37.3437 110.65 37.661C111.285 37.967 111.755 38.3863 112.061 38.919C112.378 39.4517 112.537 40.0467 112.537 40.704ZM108.355 42.625C109.092 42.625 109.641 42.4607 110.004 42.132C110.367 41.792 110.548 41.316 110.548 40.704C110.548 39.412 109.817 38.766 108.355 38.766H106.213V42.625H108.355ZM116.323 36.42V49H114.385V36.42H116.323ZM118.222 44.274C118.222 43.3333 118.414 42.5003 118.8 41.775C119.196 41.0497 119.729 40.4887 120.398 40.092C121.078 39.684 121.826 39.48 122.642 39.48C123.378 39.48 124.019 39.6273 124.563 39.922C125.118 40.2053 125.56 40.5623 125.889 40.993V39.633H127.844V49H125.889V47.606C125.56 48.048 125.112 48.4163 124.546 48.711C123.979 49.0057 123.333 49.153 122.608 49.153C121.803 49.153 121.066 48.949 120.398 48.541C119.729 48.1217 119.196 47.5437 118.8 46.807C118.414 46.059 118.222 45.2147 118.222 44.274ZM125.889 44.308C125.889 43.662 125.753 43.101 125.481 42.625C125.22 42.149 124.874 41.7863 124.444 41.537C124.013 41.2877 123.548 41.163 123.05 41.163C122.551 41.163 122.086 41.2877 121.656 41.537C121.225 41.775 120.874 42.132 120.602 42.608C120.341 43.0727 120.211 43.628 120.211 44.274C120.211 44.92 120.341 45.4867 120.602 45.974C120.874 46.4613 121.225 46.8353 121.656 47.096C122.098 47.3453 122.562 47.47 123.05 47.47C123.548 47.47 124.013 47.3453 124.444 47.096C124.874 46.8467 125.22 46.484 125.481 46.008C125.753 45.5207 125.889 44.954 125.889 44.308ZM138.821 39.633L133.075 53.403H131.069L132.973 48.847L129.284 39.633H131.443L134.078 46.773L136.815 39.633H138.821ZM148.559 37.185C149.817 37.185 150.916 37.4287 151.857 37.916C152.809 38.392 153.54 39.0833 154.05 39.99C154.571 40.8853 154.832 41.9337 154.832 43.135C154.832 44.3363 154.571 45.379 154.05 46.263C153.54 47.147 152.809 47.827 151.857 48.303C150.916 48.7677 149.817 49 148.559 49H144.7V37.185H148.559ZM148.559 47.419C149.941 47.419 151.001 47.045 151.738 46.297C152.474 45.549 152.843 44.495 152.843 43.135C152.843 41.7637 152.474 40.6927 151.738 39.922C151.001 39.1513 149.941 38.766 148.559 38.766H146.638V47.419H148.559ZM165.338 44.087C165.338 44.4383 165.315 44.7557 165.27 45.039H158.113C158.169 45.787 158.447 46.3877 158.946 46.841C159.444 47.2943 160.056 47.521 160.782 47.521C161.824 47.521 162.561 47.0847 162.992 46.212H165.083C164.799 47.0733 164.284 47.7817 163.536 48.337C162.799 48.881 161.881 49.153 160.782 49.153C159.886 49.153 159.082 48.9547 158.368 48.558C157.665 48.15 157.11 47.5833 156.702 46.858C156.305 46.1213 156.107 45.2713 156.107 44.308C156.107 43.3447 156.299 42.5003 156.685 41.775C157.081 41.0383 157.631 40.4717 158.334 40.075C159.048 39.6783 159.864 39.48 160.782 39.48C161.666 39.48 162.453 39.6727 163.145 40.058C163.836 40.4433 164.374 40.9873 164.76 41.69C165.145 42.3813 165.338 43.1803 165.338 44.087ZM163.315 43.475C163.303 42.761 163.048 42.1887 162.55 41.758C162.051 41.3273 161.433 41.112 160.697 41.112C160.028 41.112 159.456 41.3273 158.98 41.758C158.504 42.1773 158.22 42.7497 158.13 43.475H163.315ZM178.584 39.48C179.32 39.48 179.978 39.633 180.556 39.939C181.145 40.245 181.604 40.6983 181.933 41.299C182.273 41.8997 182.443 42.625 182.443 43.475V49H180.522V43.764C180.522 42.9253 180.312 42.285 179.893 41.843C179.473 41.3897 178.901 41.163 178.176 41.163C177.45 41.163 176.872 41.3897 176.442 41.843C176.022 42.285 175.813 42.9253 175.813 43.764V49H173.892V43.764C173.892 42.9253 173.682 42.285 173.263 41.843C172.843 41.3897 172.271 41.163 171.546 41.163C170.82 41.163 170.242 41.3897 169.812 41.843C169.392 42.285 169.183 42.9253 169.183 43.764V49H167.245V39.633H169.183V40.704C169.5 40.3187 169.902 40.0183 170.39 39.803C170.877 39.5877 171.398 39.48 171.954 39.48C172.702 39.48 173.37 39.6387 173.96 39.956C174.549 40.2733 175.002 40.7323 175.32 41.333C175.603 40.7663 176.045 40.3187 176.646 39.99C177.246 39.65 177.892 39.48 178.584 39.48ZM188.972 49.153C188.088 49.153 187.289 48.9547 186.575 48.558C185.861 48.15 185.3 47.5833 184.892 46.858C184.484 46.1213 184.28 45.2713 184.28 44.308C184.28 43.356 184.489 42.5117 184.909 41.775C185.328 41.0383 185.9 40.4717 186.626 40.075C187.351 39.6783 188.161 39.48 189.057 39.48C189.952 39.48 190.762 39.6783 191.488 40.075C192.213 40.4717 192.785 41.0383 193.205 41.775C193.624 42.5117 193.834 43.356 193.834 44.308C193.834 45.26 193.618 46.1043 193.188 46.841C192.757 47.5777 192.168 48.15 191.42 48.558C190.683 48.9547 189.867 49.153 188.972 49.153ZM188.972 47.47C189.47 47.47 189.935 47.351 190.366 47.113C190.808 46.875 191.165 46.518 191.437 46.042C191.709 45.566 191.845 44.988 191.845 44.308C191.845 43.628 191.714 43.0557 191.454 42.591C191.193 42.115 190.847 41.758 190.417 41.52C189.986 41.282 189.521 41.163 189.023 41.163C188.524 41.163 188.059 41.282 187.629 41.52C187.209 41.758 186.875 42.115 186.626 42.591C186.376 43.0557 186.252 43.628 186.252 44.308C186.252 45.3167 186.507 46.0987 187.017 46.654C187.538 47.198 188.19 47.47 188.972 47.47Z" fill="#686D77"/>
<g filter="url(#filter0_d_1_570)">
<circle cx="56" cy="41" r="26" fill="#DF6951"/>
</g>
<path d="M64 42.5L52.75 48.9952L52.75 36.0048L64 42.5Z" fill="white"/>
<defs>
<filter id="filter0_d_1_570" x="0" y="0" width="112" height="112" filterUnits="userSpaceOnUse" color-interpolation-filters="sRGB">
<feFlood flood-opacity="0" result="BackgroundImageFix"/>
<feColorMatrix in="SourceAlpha" type="matrix" values="0 0 0 0 0 0 0 0 0 0 0 0 0 0 0 0 0 0 127 0" result="hardAlpha"/>
<feOffset dy="15"/>
<feGaussianBlur stdDeviation="15"/>
<feColorMatrix type="matrix" values="0 0 0 0 0.87451 0 0 0 0 0.411765 0 0 0 0 0.317647 0 0 0 0.3 0"/>
<feBlend mode="normal" in2="BackgroundImageFix" result="effect1_dropShadow_1_570"/>
<feBlend mode="normal" in="SourceGraphic" in2="effect1_dropShadow_1_570" result="shape"/>
</filter>
</defs>
</svg>
